<?xml version="1.0" standalone="no"?>
<!DOCTYPE svg PUBLIC "-//W3C//DTD SVG 20010904//EN"
 "http://www.w3.org/TR/2001/REC-SVG-20010904/DTD/svg10.dtd">
<svg version="1.0" xmlns="http://www.w3.org/2000/svg"
 width="512.000000pt" height="512.000000pt" viewBox="0 0 512.000000 512.000000"
 preserveAspectRatio="xMidYMid meet">
<metadata>
Created by potrace 1.11, written by Peter Selinger 2001-2013
</metadata>
<g transform="translate(0.000000,512.000000) scale(0.100000,-0.100000)"
fill="#000000" stroke="none">
<path d="M3417 4803 c-4 -3 -7 -52 -7 -107 0 -137 -38 -473 -59 -529 -6 -15
-15 -27 -20 -27 -6 0 -60 56 -122 125 -61 69 -115 125 -119 125 -4 0 -26 18
-48 40 -22 22 -49 40 -59 40 -22 0 -125 52 -206 104 -37 24 -226 59 -279 52
-50 -7 -222 -58 -275 -82 -31 -14 -55 -39 -103 -109 -41 -59 -92 -83 -195 -90
-64 -5 -108 -2 -151 8 -44 11 -104 13 -230 10 -164 -4 -233 -14 -264 -38 -21
-17 -78 -35 -110 -35 -104 0 -284 -116 -422 -273 -39 -45 -97 -100 -127 -123
-78 -59 -156 -164 -224 -302 -39 -78 -79 -142 -119 -192 -33 -43 -52 -131 -43
-201 6 -45 14 -56 92 -134 64 -64 95 -87 126 -96 23 -6 58 -19 78 -30 20 -10
67 -23 105 -30 70 -13 102 -25 187 -74 54 -31 147 -42 420 -50 126 -3 142 -2
179 17 99 52 177 -12 108 -87 -10 -11 -25 -36 -33 -55 -10 -26 -43 -57 -120
-115 -78 -59 -109 -89 -117 -112 -15 -42 -95 -113 -156 -137 -27 -11 -75 -35
-107 -53 -70 -39 -266 -220 -289 -265 -44 -89 -48 -104 -37 -141 7 -26 7 -61
0 -113 -6 -41 -11 -94 -11 -116 0 -23 -9 -71 -20 -109 l-21 -68 21 -58 c19
-53 19 -65 8 -164 -10 -95 -10 -114 6 -172 12 -45 16 -81 11 -114 -5 -39 -1
-59 18 -103 13 -30 27 -71 31 -91 8 -47 134 -236 181 -273 21 -16 55 -33 77
-37 50 -12 150 4 186 29 15 11 58 25 96 33 42 8 93 28 133 51 36 21 76 38 88
38 13 0 36 5 52 11 15 7 75 13 133 14 97 2 110 4 164 33 32 18 76 47 97 67 35
31 44 35 91 33 45 -2 60 2 98 28 54 37 101 54 147 54 55 0 99 27 133 81 16 27
30 52 30 55 0 3 11 20 24 37 22 30 56 92 148 270 31 61 52 87 93 118 70 53 82
86 95 261 6 79 17 161 25 183 9 29 11 53 4 85 -5 25 -15 96 -23 158 -15 116
-9 179 25 258 32 73 69 86 69 23 0 -80 40 -241 72 -291 16 -26 38 -82 49 -125
21 -84 62 -157 108 -191 34 -25 43 -43 98 -207 22 -66 54 -158 72 -205 62
-165 76 -258 58 -381 -8 -51 -7 -58 17 -85 18 -22 41 -34 81 -44 52 -12 61
-12 133 11 52 16 97 39 140 71 35 27 68 48 74 48 6 0 41 23 78 50 37 28 72 50
78 50 6 0 56 49 111 108 73 78 111 112 137 120 80 24 144 74 195 152 27 41 49
81 49 91 0 9 15 32 34 51 35 36 66 116 66 169 0 19 15 45 45 79 52 59 48 43
74 260 3 30 10 61 15 69 15 23 35 132 36 186 0 68 16 119 48 158 49 58 52 69
50 199 -1 113 -3 125 -25 151 -12 16 -23 34 -23 40 0 7 -16 25 -35 40 -29 23
-35 35 -35 65 0 20 4 52 10 71 12 44 -14 115 -69 180 -31 37 -44 63 -55 114
-8 42 -24 79 -43 104 -16 21 -38 53 -49 71 -20 36 -95 81 -189 114 -70 26
-103 61 -111 119 -5 39 -16 58 -66 113 -53 58 -64 66 -96 66 -20 0 -49 6 -63
14 -20 10 -54 12 -136 9 -158 -8 -257 18 -332 89 l-33 31 7 81 c3 45 18 159
31 255 13 96 24 195 24 221 0 26 7 67 15 90 8 23 15 44 15 46 0 5 -92 44 -105
44 -6 0 -15 -3 -18 -7z"/>
</g>
</svg>
