<?xml version="1.0" encoding="utf-8"?>
<!-- Generator: Adobe Illustrator 15.1.0, SVG Export Plug-In . SVG Version: 6.00 Build 0)  -->
<!DOCTYPE svg PUBLIC "-//W3C//DTD SVG 1.1//EN" "http://www.w3.org/Graphics/SVG/1.1/DTD/svg11.dtd">
<svg version="1.1" id="Capa_1" xmlns="http://www.w3.org/2000/svg" xmlns:xlink="http://www.w3.org/1999/xlink" x="0px" y="0px"
	 width="720px" height="720px" viewBox="0 0 720 720" enable-background="new 0 0 720 720" xml:space="preserve">
<g>
	<path fill="#98D9D5" d="M461.716,105.721l16.248-16.248c-4.487-4.489-4.485-11.761,0.001-16.248l49.161-49.162
		c-5.228-0.716-10.506-1.085-15.814-1.085c-31.017,0-60.17,12.073-82.094,33.997c-26.042,26.042-37.872,62.225-32.93,97.924
		l49.179-49.181C449.956,101.235,457.23,101.235,461.716,105.721z"/>
	<path fill="#6DA8D6" d="M461.716,105.721c4.487,4.488,4.487,11.762,0,16.249l-49.162,49.162c5.228,0.712,10.508,1.083,15.814,1.083
		c31.015,0,60.169-12.075,82.092-33.998c26.041-26.041,37.871-62.223,32.931-97.923l-49.18,49.181
		c-2.242,2.243-5.184,3.364-8.124,3.364c-2.939,0-5.881-1.122-8.123-3.364C477.964,89.472,461.716,105.721,461.716,105.721z"/>
	<path fill="#F2484B" d="M512.789,259.114c-17.531-7.261-35.954-10.944-54.754-10.944c-32.948,0-65.185,11.499-90.771,32.375
		c-0.525,0.418-1.042,0.767-1.583,1.075c-0.041,0.024-0.079,0.051-0.121,0.074c-0.513,0.285-1.054,0.522-1.609,0.726
		c-0.088,0.032-0.174,0.066-0.261,0.096c-0.533,0.181-1.081,0.323-1.646,0.424c-0.102,0.019-0.202,0.031-0.304,0.046
		c-0.563,0.085-1.132,0.142-1.717,0.144c-0.63-0.001-1.201-0.058-1.762-0.144c-0.102-0.017-0.202-0.029-0.304-0.046
		c-0.565-0.101-1.113-0.243-1.646-0.424c-0.088-0.03-0.174-0.063-0.261-0.096c-0.558-0.204-1.097-0.441-1.61-0.726
		c-0.041-0.023-0.079-0.049-0.121-0.074c-0.54-0.308-1.057-0.657-1.538-1.046c-25.632-20.906-57.868-32.404-90.816-32.404
		c-18.8,0-37.223,3.681-54.754,10.944c-70.894,29.367-106.018,108.849-79.963,180.95c7.54,20.869,73.887,150.856,107.917,216.672
		c12.87,24.847,38.293,40.285,66.346,40.285c9.804,0,19.414-1.921,28.563-5.711c8.21-3.401,15.655-8.157,22.127-14.139
		c2.202-2.032,5.001-3.05,7.798-3.05c2.799,0,5.596,1.018,7.798,3.05c6.472,5.981,13.915,10.739,22.127,14.139
		c9.148,3.79,18.758,5.711,28.563,5.711c28.056,0,53.482-15.441,66.355-40.302c34.023-65.807,100.367-195.785,107.908-216.651
		C618.808,367.965,583.684,288.479,512.789,259.114z M182.494,369.947c-0.066,0.001-0.13,0.01-0.196,0.01
		c-6.345,0-11.489-5.143-11.489-11.489c0-0.066,0.009-0.13,0.009-0.196c0.1-5.935,4.695-10.768,10.532-11.246
		c0.313-0.026,0.626-0.048,0.947-0.048c0.29,0,0.573,0.023,0.856,0.043c5.66,0.417,10.172,4.93,10.59,10.59
		c0.021,0.285,0.043,0.567,0.043,0.856c0,0.32-0.023,0.634-0.047,0.947C193.262,365.252,188.429,369.848,182.494,369.947z
		 M239.745,312.511c0,0.031-0.004,0.06-0.004,0.092c-0.046,5.887-4.516,10.717-10.252,11.33c-0.406,0.043-0.816,0.069-1.233,0.069
		c-0.305,0-0.604-0.023-0.901-0.044c-5.512-0.429-9.931-4.74-10.518-10.204c-0.044-0.409-0.069-0.821-0.069-1.241
		s0.026-0.832,0.069-1.241c0.616-5.731,5.444-10.198,11.329-10.246c0.031,0,0.06-0.004,0.09-0.004
		C234.601,301.021,239.745,306.164,239.745,312.511z M461.108,589.021c-0.548,0-1.082-0.051-1.607-0.126
		c-4.073-0.571-7.464-3.268-8.997-6.941c-0.569-1.361-0.886-2.854-0.886-4.422c0-1.37,0.253-2.678,0.692-3.896
		c1.438-3.981,5.002-6.936,9.327-7.49c0.482-0.061,0.971-0.104,1.471-0.104c0.165,0,0.327,0.018,0.491,0.025
		c6.115,0.259,10.998,5.284,10.998,11.464C472.596,583.879,467.453,589.021,461.108,589.021z"/>
	<path fill="#082947" d="M521.582,237.885c-20.333-8.422-41.714-12.693-63.547-12.693c-30.963,0-61.376,8.758-87.589,24.952
		c-4.872-49.924-26.671-96.225-62.606-132.159c-4.487-4.485-11.762-4.487-16.248,0.001c-4.487,4.487-4.487,11.762,0,16.248
		c31.245,31.245,50.532,71.256,55.58,114.483c-25.667-15.269-55.173-23.526-85.207-23.526c-21.833,0-43.214,4.271-63.547,12.693
		c-82.264,34.075-123.018,126.313-92.781,209.987c9.928,27.479,105.071,211.593,109.12,219.424
		C231.597,699.805,264.837,720,301.512,720c12.837,0,25.405-2.511,37.355-7.459c7.569-3.136,14.646-7.157,21.131-12.004
		c6.486,4.847,13.563,8.868,21.13,12.003c11.951,4.949,24.519,7.46,37.357,7.46c36.676,0,69.925-20.201,86.763-52.72
		c4.046-7.823,99.183-191.924,109.111-219.402C644.603,364.201,603.849,271.959,521.582,237.885z M592.75,440.07
		c-7.54,20.866-73.885,150.845-107.908,216.651c-12.873,24.859-38.298,40.301-66.354,40.301c-9.805,0-19.414-1.921-28.564-5.711
		c-8.21-3.4-15.654-8.157-22.127-14.138c-2.201-2.033-4.999-3.05-7.798-3.05c-2.797,0-5.596,1.017-7.797,3.05
		c-6.474,5.98-13.918,10.738-22.127,14.138c-9.147,3.789-18.759,5.71-28.563,5.71c-28.054,0-53.478-15.438-66.348-40.285
		c-34.028-65.817-100.375-195.803-107.917-216.672c-26.055-72.102,9.069-151.583,79.963-180.95
		c17.531-7.261,35.954-10.944,54.753-10.944c32.949,0,65.185,11.499,90.772,32.375c0.525,0.418,1.042,0.768,1.583,1.075
		c0.041,0.024,0.079,0.051,0.121,0.074c0.513,0.285,1.054,0.522,1.609,0.726c0.088,0.032,0.174,0.066,0.261,0.096
		c0.533,0.181,1.082,0.323,1.646,0.424c0.102,0.019,0.202,0.031,0.304,0.046c0.563,0.085,1.132,0.142,1.717,0.144
		c0.63-0.002,1.201-0.059,1.762-0.144c0.102-0.017,0.203-0.029,0.304-0.046c0.565-0.101,1.114-0.243,1.646-0.424
		c0.088-0.03,0.174-0.063,0.261-0.096c0.558-0.204,1.097-0.441,1.61-0.726c0.041-0.023,0.079-0.049,0.121-0.074
		c0.54-0.308,1.057-0.657,1.538-1.046c25.632-20.906,57.868-32.404,90.816-32.404c18.8,0,37.223,3.681,54.754,10.944
		C583.684,288.479,618.808,367.965,592.75,440.07z"/>
	<path fill="#082947" d="M193.744,357.612c-0.418-5.661-4.93-10.173-10.59-10.59c-0.284-0.021-0.567-0.043-0.856-0.043
		c-0.32,0-0.634,0.023-0.947,0.048c-5.836,0.478-10.432,5.311-10.532,11.246c-0.001,0.066-0.009,0.13-0.009,0.196
		c0,6.346,5.144,11.489,11.489,11.489c0.066,0,0.13-0.009,0.196-0.01c5.936-0.1,10.768-4.695,11.246-10.532
		c0.026-0.313,0.047-0.627,0.047-0.947C193.787,358.18,193.764,357.895,193.744,357.612z"/>
	<path fill="#082947" d="M228.255,301.021c-0.031,0-0.06,0.004-0.092,0.004c-5.884,0.046-10.713,4.513-11.329,10.246
		c-0.044,0.409-0.069,0.821-0.069,1.241s0.026,0.832,0.069,1.241c0.586,5.464,5.006,9.775,10.518,10.204
		c0.299,0.023,0.598,0.044,0.901,0.044c0.417,0,0.829-0.026,1.233-0.069c5.736-0.611,10.204-5.443,10.252-11.33
		c0-0.032,0.004-0.061,0.004-0.092C239.745,306.164,234.601,301.021,228.255,301.021z"/>
	<path fill="#082947" d="M461.598,566.068c-0.163-0.008-0.324-0.025-0.491-0.025c-0.499,0-0.988,0.043-1.471,0.104
		c-4.326,0.554-7.89,3.509-9.326,7.49c-0.439,1.218-0.692,2.524-0.692,3.896c0,1.566,0.315,3.061,0.886,4.422
		c1.534,3.674,4.923,6.37,8.996,6.941c0.527,0.075,1.061,0.126,1.607,0.126c6.345,0,11.489-5.143,11.489-11.489
		C472.596,571.353,467.714,566.327,461.598,566.068z"/>
	<path fill="#082947" d="M378.708,181.084c0.012,0.04,0.022,0.082,0.035,0.121c0.02,0.063,0.049,0.12,0.068,0.181
		c0.11,0.328,0.233,0.651,0.373,0.97c0.049,0.11,0.1,0.219,0.151,0.327c0.135,0.285,0.283,0.562,0.442,0.836
		c0.063,0.107,0.124,0.216,0.19,0.32c0.17,0.271,0.355,0.533,0.55,0.792c0.067,0.09,0.129,0.183,0.197,0.27
		c0.264,0.331,0.544,0.651,0.849,0.956c0.317,0.317,0.638,0.598,0.969,0.862c0.089,0.071,0.186,0.135,0.277,0.204
		c0.256,0.191,0.515,0.375,0.782,0.542c0.107,0.067,0.22,0.13,0.329,0.195c0.271,0.158,0.546,0.303,0.824,0.437
		c0.112,0.054,0.223,0.106,0.336,0.156c0.315,0.139,0.636,0.26,0.961,0.369c0.063,0.021,0.122,0.051,0.187,0.072
		c0.04,0.013,0.079,0.023,0.119,0.036c0.053,0.015,0.106,0.032,0.159,0.046c13.543,4.254,27.624,6.418,41.86,6.418
		c37.151,0,72.079-14.464,98.341-40.728c36.803-36.801,49.932-90.504,34.306-140.208c-0.014-0.05-0.029-0.099-0.044-0.15
		c-0.013-0.04-0.023-0.081-0.035-0.121c-0.021-0.061-0.05-0.118-0.069-0.179c-0.11-0.33-0.234-0.654-0.374-0.973
		c-0.047-0.109-0.098-0.216-0.15-0.323c-0.136-0.285-0.284-0.564-0.445-0.839c-0.063-0.106-0.122-0.215-0.188-0.317
		c-0.172-0.272-0.356-0.538-0.553-0.798c-0.066-0.087-0.126-0.178-0.194-0.264c-0.266-0.334-0.549-0.657-0.856-0.965
		c-0.309-0.308-0.632-0.589-0.964-0.856c-0.086-0.069-0.178-0.129-0.265-0.195c-0.259-0.196-0.522-0.381-0.796-0.551
		c-0.105-0.067-0.214-0.127-0.321-0.19c-0.272-0.16-0.548-0.307-0.83-0.441c-0.11-0.052-0.221-0.104-0.334-0.155
		c-0.314-0.138-0.633-0.259-0.956-0.368c-0.065-0.021-0.126-0.052-0.191-0.073c-0.041-0.014-0.083-0.025-0.123-0.036
		c-0.05-0.015-0.099-0.03-0.149-0.044C539.633,2.163,525.55,0,511.312,0c-37.153,0-72.078,14.463-98.341,40.728
		c-36.803,36.803-49.933,90.504-34.308,140.207C378.679,180.986,378.694,181.036,378.708,181.084z M429.22,56.975
		c21.923-21.923,51.077-33.997,82.092-33.997c5.309,0,10.587,0.369,15.813,1.083l-49.16,49.163
		c-4.487,4.488-4.487,11.76-0.002,16.248c2.244,2.244,5.185,3.365,8.125,3.365c2.941,0,5.882-1.121,8.124-3.364l49.18-49.181
		c4.939,35.7-6.89,71.882-32.931,97.923c-21.925,21.925-51.078,33.998-82.092,33.998c-5.309,0-10.588-0.371-15.814-1.083
		l49.162-49.163c4.487-4.488,4.487-11.762,0-16.249c-4.485-4.485-11.761-4.485-16.247,0l-49.18,49.181
		C391.348,119.201,403.177,83.018,429.22,56.975z"/>
</g>
</svg>
