<?xml version="1.0" encoding="utf-8"?>
<!-- Generator: Adobe Illustrator 15.1.0, SVG Export Plug-In . SVG Version: 6.00 Build 0)  -->
<!DOCTYPE svg PUBLIC "-//W3C//DTD SVG 1.1//EN" "http://www.w3.org/Graphics/SVG/1.1/DTD/svg11.dtd">
<svg version="1.1" id="Capa_1" xmlns="http://www.w3.org/2000/svg" xmlns:xlink="http://www.w3.org/1999/xlink" x="0px" y="0px"
	 width="720px" height="720px" viewBox="0 0 720 720" enable-background="new 0 0 720 720" xml:space="preserve">
<g>
	<path fill="#FDD44B" d="M494.317,518.208c-52.019,0-102.449-9.442-150.299-28.184c-35.633-13.954-69.813-33.103-102.315-57.252
		c62.071,69.98,151.032,113.178,265.82,128.983c43.901-4.85,99.658-26.4,157.313-60.872c1.231-0.736,19.438-9.913,22.944-25.618
		c-29.106,13.626-88.443,36.82-163.898,41.936C513.979,517.874,504.115,518.208,494.317,518.208z"/>
	<g>
		<path fill="#FDD44B" d="M563.65,639.599c-3.828,0-7.809-0.041-11.859-0.103c0.889-0.016,1.734-0.037,2.608-0.054
			c-4.82,0.094-9.841,0.156-15.117,0.156c-24.065,0-52.656-1.124-83.75-4.569c-116.843-12.947-212.776-53.13-277.427-116.203
			c-71.64-69.884-106.816-167.436-105.131-290.443c-0.058,4.347-0.118,8.693-0.085,12.978
			C39.9,357.987,48.559,512.315,182.772,609.124c62.958,45.418,140.785,69.46,231.447,71.621
			c51.256-0.968,104.446-8.652,154.585-22.54c16.161-4.478,23.137-12.127,25.965-19.247
			C585.574,639.342,575.138,639.599,563.65,639.599z"/>
		<path fill="#FDD44B" d="M590.657,637.821c1.642-0.117,3.225-0.235,4.706-0.354C593.884,637.586,592.297,637.704,590.657,637.821z"
			/>
		<path fill="#FDD44B" d="M73.072,221.91c0.167-6.991,0.469-14.073,0.874-21.225C73.545,207.834,73.237,214.922,73.072,221.91z"/>
		<path fill="#FDD44B" d="M76.361,169.277c-0.833,8.269-1.458,16.396-1.991,24.46C74.909,185.67,75.53,177.546,76.361,169.277z"/>
		<path fill="#FDD44B" d="M557.326,639.383c1.652-0.039,3.261-0.086,4.854-0.133C560.587,639.297,558.979,639.342,557.326,639.383z"
			/>
		<path fill="#FDD44B" d="M585.503,638.168c1.18-0.074,2.311-0.149,3.424-0.227C587.817,638.019,586.681,638.094,585.503,638.168z"
			/>
		<path fill="#FDD44B" d="M564.469,639.181c2.237-0.074,4.408-0.156,6.514-0.246C568.877,639.024,566.704,639.106,564.469,639.181z"
			/>
		<path fill="#FDD44B" d="M573.048,638.841c1.454-0.066,2.889-0.133,4.276-0.203C575.938,638.708,574.5,638.774,573.048,638.841z"/>
		<path fill="#FDD44B" d="M579.698,638.509c1.208-0.066,2.388-0.133,3.537-0.201C582.088,638.376,580.904,638.444,579.698,638.509z"
			/>
	</g>
	<g>
		<path fill="#FDD44B" d="M59.718,130.803c-1.182-0.764-2.383-1.608-3.567-2.616C57.335,129.198,58.534,130.037,59.718,130.803z"/>
		<path fill="#FDD44B" d="M156.707,90.354l-83.519-14.87l-8.762,49.196c-0.39,2.946-0.589,5.552-0.623,8.237
			c3.648,1.748,6.415,2.165,6.458,2.165h0.007l44.167,8.063c5.271,0.779,30.697,2.691,38.771-33.232l8.759-49.147L156.707,90.354z"
			/>
		<path fill="#FDD44B" d="M63.756,133.094c-1.039-0.499-2.161-1.122-3.3-1.818C61.602,131.979,62.713,132.593,63.756,133.094z"/>
	</g>
	<g>
		<path fill="#FDD44B" d="M664.385,450.396c1.225-0.529,2.475-1.064,3.62-1.572C666.857,449.334,665.611,449.867,664.385,450.396z"
			/>
		<path fill="#FDD44B" d="M657.903,453.126c1.49-0.612,2.984-1.225,4.383-1.82C660.888,451.899,659.394,452.514,657.903,453.126z"/>
		<path fill="#FDD44B" d="M646.262,457.015c-0.142,0.032-0.156,0.036-0.298,0.062c-163.001,32.575-297.175,7.654-398.773-74.065
			c-35.193-28.308-62.463-60.485-83.448-91.747c3.633,11.881,7.903,24.118,13.024,36.566
			c97.633,113.223,213.665,166.14,344.937,157.24c52.877-3.586,97.485-16.892,127.646-28.532
			C647.813,456.71,646.718,456.918,646.262,457.015z"/>
		<path fill="#FDD44B" d="M651.296,455.774c1.571-0.616,3.145-1.231,4.633-1.833C654.443,454.543,652.867,455.16,651.296,455.774z"
			/>
		<path fill="#FDD44B" d="M161.856,284.744c-0.85-2.938-1.743-5.907-2.514-8.789C160.109,278.838,161.008,281.804,161.856,284.744z"
			/>
	</g>
	<g>
		<path fill="#FDD44B" d="M563.901,599.5c-19.915-1.109-39.251-2.938-58.001-5.471c-0.068-0.007-0.137-0.018-0.205-0.025
			c-0.247-0.035-0.486-0.071-0.732-0.105c-0.215-0.03-0.431-0.054-0.641-0.097c-81.294-11.177-151.438-35.732-209.068-73.299
			c-57.592-37.543-102.752-87.942-134.235-149.804c-4.758-9.348-9.029-18.653-12.907-27.862c-0.028-0.06-0.051-0.122-0.079-0.185
			c-13.136-31.228-21.469-61.272-26.76-87.643c0.679,3.381,1.387,6.8,2.171,10.297c5.158,96.629,36.806,173.887,94.653,230.372
			c74.933,73.169,181.531,98.71,257.759,107.249c26.104,2.925,50.521,4.106,71.813,4.354c-3.084,0.037-6.259,0.056-9.516,0.052
			c18.527,0.015,34.337-0.65,46.307-1.417C576.084,601.309,565.657,599.735,563.901,599.5z"/>
		<path fill="#FDD44B" d="M537.641,607.33c-2.846-0.005-5.769-0.028-8.738-0.066C531.874,607.302,534.793,607.325,537.641,607.33z"
			/>
		<path fill="#FDD44B" d="M516.347,606.991c-3.049-0.09-6.149-0.201-9.299-0.334C510.2,606.79,513.296,606.901,516.347,606.991z"/>
		<path fill="#FDD44B" d="M526.575,607.227c-2.512-0.04-5.065-0.096-7.657-0.164C521.509,607.131,524.062,607.185,526.575,607.227z"
			/>
		<path fill="#FDD44B" d="M481.008,605.077c-2.593-0.203-5.214-0.426-7.85-0.664C475.796,604.651,478.413,604.874,481.008,605.077z"
			/>
		<path fill="#FDD44B" d="M469.643,604.097c-3.762-0.357-7.552-0.738-11.391-1.169C462.091,603.355,465.883,603.739,469.643,604.097
			z"/>
		<path fill="#FDD44B" d="M506.067,606.619c-3.462-0.152-6.991-0.334-10.564-0.544C499.076,606.285,502.605,606.467,506.067,606.619
			z"/>
		<path fill="#FDD44B" d="M492.711,605.899c-2.657-0.165-5.338-0.345-8.051-0.544C487.373,605.555,490.052,605.734,492.711,605.899z
			"/>
		<path fill="#FDD44B" d="M112.762,187.674c-0.101-2.036-0.178-3.959-0.24-5.783C112.584,183.717,112.662,185.635,112.762,187.674z"
			/>
		<path fill="#FDD44B" d="M115.679,220.686c-0.349-2.786-0.675-5.524-0.958-8.153C115.004,215.162,115.33,217.898,115.679,220.686z"
			/>
		<path fill="#FDD44B" d="M118.747,241.405c-0.484-2.839-0.934-5.625-1.349-8.353C117.811,235.781,118.261,238.564,118.747,241.405z
			"/>
		<path fill="#FDD44B" d="M117.137,231.372c-0.443-2.98-0.844-5.884-1.212-8.721C116.293,225.488,116.693,228.39,117.137,231.372z"
			/>
		<path fill="#FDD44B" d="M120.817,252.721c-0.641-3.27-1.24-6.492-1.788-9.637C119.578,246.231,120.177,249.452,120.817,252.721z"
			/>
		<path fill="#FDD44B" d="M114.693,212.284c-0.291-2.723-0.537-5.331-0.764-7.875C114.156,206.955,114.402,209.558,114.693,212.284z
			"/>
		<path fill="#FDD44B" d="M112.486,180.781c-0.056-1.796-0.101-3.524-0.126-5.094C112.385,177.257,112.43,178.983,112.486,180.781z"
			/>
		<path fill="#FDD44B" d="M113.167,194.611c-0.135-2.058-0.253-4.038-0.351-5.929C112.912,190.575,113.03,192.551,113.167,194.611z"
			/>
		<path fill="#FDD44B" d="M113.784,202.76c-0.208-2.435-0.392-4.798-0.546-7.051C113.392,197.964,113.576,200.324,113.784,202.76z"
			/>
	</g>
	<path fill="#3F2D20" d="M713.429,443.754c-17.352-33.827-54.017-35.596-71.257-31.761
		c-335.379,66.925-456.23-137.542-495.383-242.515c16.076-7.699,31.444-23.417,37.937-52.834c0.047-0.216,0.09-0.43,0.128-0.649
		l11.644-65.39c0.747-4.203-0.204-8.532-2.649-12.038c-2.443-3.5-6.179-5.89-10.382-6.637L44.021,7.104
		c-8.738-1.557-17.118,4.275-18.675,13.031L13.703,85.523c-0.039,0.216-0.073,0.435-0.103,0.653
		c-5.494,40.388,12.892,62.885,31.393,73.599C9.862,231.728-5.785,315.818,1.929,393.318
		c10.005,100.538,57.598,184.198,137.636,241.93c71.657,51.69,160.4,77.9,263.76,77.9c57.432,0,117.63-8.265,174.08-23.905
		c51.133-14.164,53.665-55.025,50.015-71.917c-1.771-23.644-19.14-37.187-36.821-44.124c29.045-11.073,59.759-26.137,90.767-44.679
		c1.023-0.612,1.784-1.068,2.262-1.345C730.976,499.923,721.359,458.11,713.429,443.754z M664.836,500.884
		c-57.654,34.472-113.411,56.022-157.313,60.872c-114.788-15.806-203.75-59.001-265.82-128.983
		c32.504,24.147,66.683,43.298,102.315,57.252c47.85,18.741,98.277,28.184,150.299,28.184c9.798,0,19.661-0.334,29.566-1.007
		c75.455-5.117,134.792-28.31,163.898-41.936C684.273,490.971,666.067,500.147,664.836,500.884z M568.807,658.207
		c-53.695,14.874-110.917,22.734-165.483,22.734c-96.455,0-178.858-24.16-244.918-71.815
		c-164.5-118.654-140.4-323.725-82.162-439.87l0.12,0.021C61.144,320.485,95.34,438.089,178.107,518.826
		c64.651,63.073,160.586,103.256,277.428,116.203c31.091,3.445,59.684,4.569,83.75,4.569c23.751,0,43.081-1.094,56.078-2.131
		C592.939,644.988,586.097,653.415,568.807,658.207z M45.471,90.831l8.759-49.199l107.735,19.18l-8.759,49.199
		c-8.072,35.926-33.5,34.115-38.771,33.333l-44.167-7.862l-0.007-0.002c-0.07-0.013-7.451-1.608-14.11-7.295
		C46.837,120.232,43.244,107.667,45.471,90.831z M648.971,443.474c1.828-0.381,13.759-2.573,24.209,3.009
		c-26.909,12.448-82.12,33.885-151.476,38.589c-131.272,8.901-247.302-44.02-344.937-157.24
		c-9.654-23.456-16.444-46.27-21.197-67.081c22.152,36.373,52.719,75.256,94.327,108.722
		c101.598,81.72,235.772,106.639,398.774,74.063C648.812,443.508,648.829,443.504,648.971,443.474z M584.458,605.914
		c-26.89,1.724-73.089,2.964-126.206-2.986c-76.229-8.541-182.826-34.08-257.759-107.249
		C125.609,422.56,94.584,314.66,108.165,174.943l4.195,0.747c0.46,28.265,5.186,94.483,35.671,166.965
		c0.028,0.062,0.051,0.124,0.079,0.184c3.88,9.211,8.149,18.517,12.907,27.862c31.483,61.859,76.644,112.262,134.236,149.804
		c57.632,37.566,127.774,62.125,209.068,73.3c0.212,0.042,0.428,0.063,0.641,0.096c0.246,0.034,0.485,0.071,0.731,0.105
		c0.069,0.009,0.138,0.02,0.206,0.025c18.75,2.533,38.084,4.361,57.999,5.471C565.657,599.735,576.084,601.309,584.458,605.914z"/>
</g>
</svg>
