<?xml version="1.0" encoding="utf-8"?>
<!-- Generator: Adobe Illustrator 15.1.0, SVG Export Plug-In . SVG Version: 6.00 Build 0)  -->
<!DOCTYPE svg PUBLIC "-//W3C//DTD SVG 1.1//EN" "http://www.w3.org/Graphics/SVG/1.1/DTD/svg11.dtd">
<svg version="1.1" id="Capa_1" xmlns="http://www.w3.org/2000/svg" xmlns:xlink="http://www.w3.org/1999/xlink" x="0px" y="0px"
	 width="720px" height="720px" viewBox="0 0 720 720" enable-background="new 0 0 720 720" xml:space="preserve">
<g>
	<g>
		<path fill="#CE593F" d="M282.703,541.462c1.054,0.174,2.094,0.386,3.116,0.65C284.795,541.85,283.757,541.636,282.703,541.462z"/>
		<path fill="#CE593F" d="M194.69,557.756c0.396,0.574,0.828,1.11,1.198,1.708C195.52,558.866,195.086,558.33,194.69,557.756z"/>
		<path fill="#CE593F" d="M191.224,553.398c0.524,0.571,1.066,1.124,1.56,1.729C192.29,554.522,191.75,553.972,191.224,553.398z"/>
		<path fill="#CE593F" d="M189.188,551.286c-0.572-0.538-1.17-1.034-1.768-1.534C188.018,550.252,188.618,550.748,189.188,551.286z"
			/>
		<path fill="#CE593F" d="M183.254,546.702c0.644,0.408,1.28,0.828,1.902,1.276C184.534,547.53,183.9,547.11,183.254,546.702z"/>
		<path fill="#CE593F" d="M287.181,542.49c1.082,0.326,2.144,0.704,3.186,1.128C289.325,543.194,288.265,542.814,287.181,542.49z"/>
		<path fill="#CE593F" d="M308.907,559.521c-1.651-2.692-3.6-5.148-5.778-7.353C305.305,554.372,307.256,556.83,308.907,559.521z"/>
		<path fill="#CE593F" d="M276.855,540.934c1.53,0,3.032,0.122,4.514,0.311C279.885,541.056,278.385,540.934,276.855,540.934z"/>
		<path fill="#CE593F" d="M178.76,544.258c0.666,0.305,1.318,0.643,1.968,0.986C180.078,544.9,179.428,544.563,178.76,544.258z"/>
		<path fill="#CE593F" d="M291.311,543.988c1.374,0.604,2.716,1.275,4.006,2.04C294.025,545.264,292.687,544.59,291.311,543.988z"/>
		<path fill="#CE593F" d="M295.405,546.084c1.244,0.742,2.438,1.568,3.594,2.448C297.841,547.652,296.651,546.826,295.405,546.084z"
			/>
		<path fill="#CE593F" d="M299.719,549.11c0.966,0.773,1.898,1.592,2.79,2.456C301.615,550.702,300.688,549.884,299.719,549.11z"/>
		<path fill="#CE593F" d="M142.216,645.226c-0.36-0.566-0.704-1.145-1.052-1.719C141.512,644.083,141.855,644.659,142.216,645.226z"
			/>
		<path fill="#CE593F" d="M152.618,658.913c0.342,0.38,0.67,0.776,1.02,1.152C153.29,659.691,152.962,659.295,152.618,658.913z"/>
		<path fill="#CE593F" d="M137.224,636.483c-0.092-0.183-0.198-0.358-0.29-0.54C137.023,636.125,137.129,636.299,137.224,636.483z"
			/>
		<path fill="#CE593F" d="M147.981,653.383c-0.376-0.481-0.764-0.951-1.132-1.441C147.218,652.432,147.604,652.899,147.981,653.383z
			"/>
		<path fill="#CE593F" d="M309.111,559.521c-4.948-2.498-10.552-3.937-16.378-3.937c-14.678,0-28.314,9.185-34.665,23.396
			c-2.31,5.168-7.35,8.604-13.004,8.888c-6.09,0.307-11.724,0.307-17.816,0c-5.654-0.283-10.676-3.72-12.986-8.888
			c-0.916-2.05-2.002-3.982-3.2-5.813c0.134,0.011,0.262,0.042,0.396,0.049c-5.654-0.284-10.672-3.721-12.98-8.889
			c-0.748-1.674-1.614-3.266-2.554-4.794c-5.022-2.542-10.414-3.952-16.132-3.952c-21.14,0-38.187,18.424-38.187,41.068
			c0,0.435,0,4.132,0,5.078c0,27.19,9.646,51.931,25.596,70.337c15.205,11.248,33.681,17.849,53.437,17.849
			c52.296,0,94.969-46.133,94.969-102.836c0-0.945,0-4.718,0-5.078C315.609,573.704,313.079,565.986,309.111,559.521z"/>
		<path fill="#CE593F" d="M160.95,667.121c-0.542-0.476-1.084-0.952-1.618-1.439C159.868,666.169,160.406,666.646,160.95,667.121z"
			/>
		<path fill="#CE593F" d="M129.563,616.661c0.126,0.456,0.234,0.922,0.368,1.376C129.797,617.583,129.689,617.119,129.563,616.661z"
			/>
		<path fill="#CE593F" d="M132.695,626.215c0.238,0.624,0.488,1.24,0.736,1.86C133.184,627.457,132.934,626.839,132.695,626.215z"/>
		<path fill="#CE593F" d="M169.006,541.332c0.57,0.084,1.122,0.238,1.686,0.348C170.128,541.57,169.576,541.416,169.006,541.332z"/>
		<path fill="#CE593F" d="M125.959,596.471c0.054,0.654,0.106,1.308,0.172,1.958C126.065,597.78,126.016,597.125,125.959,596.471z"
			/>
		<path fill="#CE593F" d="M127.383,607.291c0.094,0.508,0.212,1.006,0.312,1.514C127.593,608.299,127.476,607.799,127.383,607.291z"
			/>
		<path fill="#CE593F" d="M173.994,542.454c0.656,0.196,1.294,0.446,1.938,0.676C175.286,542.9,174.652,542.65,173.994,542.454z"/>
	</g>
	<g>
		<path fill="#CE593F" d="M473.991,557.782c0.388,0.562,0.813,1.09,1.174,1.676C474.804,558.872,474.379,558.347,473.991,557.782z"
			/>
		<path fill="#CE593F" d="M561.984,541.462c1.052,0.174,2.09,0.386,3.112,0.65C564.074,541.848,563.036,541.636,561.984,541.462z"/>
		<path fill="#CE593F" d="M470.516,553.408c0.52,0.568,1.056,1.116,1.546,1.716C471.571,554.524,471.035,553.977,470.516,553.408z"
			/>
		<path fill="#CE593F" d="M468.467,551.282c-0.567-0.536-1.164-1.028-1.76-1.526C467.301,550.252,467.899,550.746,468.467,551.282z"
			/>
		<path fill="#CE593F" d="M566.464,542.49c1.082,0.326,2.143,0.704,3.185,1.128C568.606,543.194,567.548,542.816,566.464,542.49z"/>
		<path fill="#CE593F" d="M556.134,540.934c1.53,0,3.03,0.122,4.515,0.311C559.164,541.056,557.664,540.934,556.134,540.934z"/>
		<path fill="#CE593F" d="M585.389,555.512c1.004,1.272,1.939,2.61,2.796,4.007C587.326,558.122,586.395,556.784,585.389,555.512z"
			/>
		<path fill="#CE593F" d="M570.59,543.986c1.375,0.602,2.715,1.275,4.005,2.038C573.303,545.264,571.965,544.588,570.59,543.986z"/>
		<path fill="#CE593F" d="M462.539,546.702c0.645,0.406,1.278,0.828,1.9,1.273C463.815,547.53,463.184,547.108,462.539,546.702z"/>
		<path fill="#CE593F" d="M585.387,555.51c-0.931-1.178-1.933-2.283-2.979-3.342C583.454,553.229,584.456,554.334,585.387,555.51z"
			/>
		<path fill="#CE593F" d="M574.7,546.096c1.238,0.738,2.426,1.561,3.576,2.437C577.126,547.658,575.94,546.834,574.7,546.096z"/>
		<path fill="#CE593F" d="M578.996,549.108c0.967,0.773,1.9,1.592,2.792,2.458C580.895,550.7,579.965,549.882,578.996,549.108z"/>
		<path fill="#CE593F" d="M453.277,542.454c0.655,0.196,1.292,0.444,1.934,0.676C454.567,542.898,453.933,542.65,453.277,542.454z"
			/>
		<path fill="#CE593F" d="M421.49,645.224c-0.357-0.564-0.699-1.141-1.048-1.713C420.791,644.085,421.133,644.659,421.49,645.224z"
			/>
		<path fill="#CE593F" d="M416.501,636.485c-0.095-0.185-0.2-0.36-0.292-0.544C416.301,636.125,416.406,636.301,416.501,636.485z"/>
		<path fill="#CE593F" d="M427.259,653.383c-0.378-0.481-0.766-0.953-1.134-1.443C426.495,652.43,426.883,652.901,427.259,653.383z"
			/>
		<path fill="#CE593F" d="M440.227,667.119c-0.542-0.474-1.082-0.952-1.613-1.438C439.145,666.167,439.683,666.644,440.227,667.119z
			"/>
		<path fill="#CE593F" d="M458.045,544.258c0.666,0.305,1.316,0.643,1.964,0.984C459.361,544.9,458.713,544.563,458.045,544.258z"/>
		<path fill="#CE593F" d="M587.753,559.521c-4.948-2.498-10.234-3.937-16.057-3.937c-14.683,0-28.16,9.185-34.507,23.395
			c-2.308,5.17-7.27,8.606-12.924,8.89c-6.094,0.307-11.696,0.307-17.78,0c-5.651-0.283-10.656-3.72-12.964-8.89
			c-0.916-2.05-1.99-3.98-3.188-5.809c0.133,0.011,0.265,0.042,0.396,0.049c-5.652-0.284-10.668-3.721-12.977-8.891
			c-0.748-1.676-1.611-3.266-2.552-4.796c-5.022-2.538-11.046-3.948-16.762-3.948c-21.146,0-38.833,18.425-38.833,41.068
			c0,0.32,0,4.104,0,5.078c0,27.188,10.282,51.925,26.23,70.333c15.206,11.252,33.37,17.853,53.127,17.853
			c52.292,0,94.645-46.133,94.645-102.836c0-0.956,0-4.718,0-5.078C593.612,573.704,591.719,565.986,587.753,559.521z"/>
		<path fill="#CE593F" d="M431.896,658.913c0.345,0.38,0.67,0.776,1.021,1.152C432.566,659.691,432.239,659.293,431.896,658.913z"/>
		<path fill="#CE593F" d="M411.973,626.217c0.238,0.622,0.486,1.238,0.734,1.854C412.459,627.455,412.211,626.839,411.973,626.217z"
			/>
		<path fill="#CE593F" d="M448.291,541.332c0.57,0.084,1.122,0.238,1.686,0.348C449.413,541.57,448.861,541.416,448.291,541.332z"/>
		<path fill="#CE593F" d="M406.656,607.283c0.097,0.516,0.214,1.02,0.318,1.533C406.87,608.305,406.753,607.799,406.656,607.283z"/>
		<path fill="#CE593F" d="M405.234,596.471c0.056,0.654,0.106,1.308,0.172,1.96C405.341,597.78,405.29,597.125,405.234,596.471z"/>
		<path fill="#CE593F" d="M408.837,616.657c0.128,0.46,0.235,0.926,0.37,1.382C409.074,617.583,408.965,617.115,408.837,616.657z"/>
	</g>
	<g>
		<path fill="#84BD93" d="M390.898,136.375c-2.154,0.05-4.23,0.08-6.11,0.08C386.668,136.456,388.742,136.423,390.898,136.375z"/>
		<path fill="#84BD93" d="M574.066,30.084c-1.488,2.456-3.145,5.084-4.956,7.842C570.912,35.178,572.58,32.536,574.066,30.084z"/>
		<path fill="#84BD93" d="M399.2,136.056c-2.348,0.128-4.569,0.214-6.696,0.276C394.633,136.27,396.851,136.184,399.2,136.056z"/>
		<path fill="#84BD93" d="M563.2,46.561c2.122-2.978,4.096-5.864,5.902-8.618C567.29,40.698,565.32,43.586,563.2,46.561z"/>
		<path fill="#84BD93" d="M407.681,135.454c-2.769,0.24-5.456,0.436-8.002,0.58C402.227,135.892,404.91,135.693,407.681,135.454z"/>
		<path fill="#84BD93" d="M486.359,70.631c-30.94,17.388-53.641,42.854-68.539,63.752c22.935-2.87,50.879-9.46,76.819-24.04
			c30.952-17.392,53.656-42.871,68.551-63.773C540.264,49.444,512.288,56.059,486.359,70.631z"/>
		<path fill="#84BD93" d="M417.028,134.478c-2.68,0.328-5.286,0.602-7.815,0.836C411.742,135.082,414.345,134.806,417.028,134.478z"
			/>
	</g>
	<path fill="#3F2D20" d="M556.134,510.85c-15.938,0-31.086,5.856-43.072,15.942c-1.99-23.788-6.428-58.959-16.326-98.533
		c-22.853-91.375-64.736-163.782-121.369-210.061v-51.84c2.998,0.108,6.324,0.178,9.958,0.178c32.267,0,79.985-5.198,124.056-29.969
		C578.75,97.585,610.965,25.428,612.301,22.374c1.896-4.324,1.648-9.288-0.662-13.404c-2.315-4.116-6.424-6.908-11.104-7.538
		C600.101,1.374,589.721,0,573.519,0c-32.265,0-79.975,5.2-124.044,29.966c-32.812,18.44-57.263,44.272-74.108,66.729V51.723
		c0-8.308-6.734-15.042-15.042-15.042c-8.309,0-15.042,6.734-15.042,15.042v165.924c-56.967,46.252-99.08,118.883-122.021,210.612
		c-9.898,39.576-14.334,74.751-16.324,98.537c-11.99-10.09-27.137-15.946-43.077-15.946c-37.73,0-68.425,31.918-68.425,71.152
		c0,0.646,0,4.005,0,5.078c0,73.291,56.041,132.92,124.921,132.92c68.885,0,124.926-59.629,124.926-132.92c0-1.077,0-4.436,0-5.078
		c0-39.232-30.698-71.152-68.431-71.152c-14.334,0-28.03,4.732-39.364,13.021c6.072-63.755,29.806-200.646,122.507-279.31
		c92.519,78.533,116.35,215.465,122.481,279.283c-11.324-8.274-25.011-12.994-39.331-12.994c-37.734,0-68.433,31.918-68.433,71.152
		c0,0.633,0,4.001,0,5.078c0,73.291,56.043,132.92,124.93,132.92c68.883,0,124.921-59.629,124.921-132.92c0-1.075,0-4.432,0-5.078
		C624.563,542.768,593.868,510.85,556.134,510.85z M315.203,587.08c0,56.703-42.546,102.836-94.843,102.836
		c-52.294,0-94.839-46.133-94.839-102.836c0-0.945,0-4.644,0-5.078c0-22.644,17.2-41.068,38.34-41.068
		c14.682,0,28.269,9.185,34.616,23.396c2.31,5.168,7.326,8.604,12.98,8.889c6.094,0.306,11.714,0.306,17.804,0
		c5.654-0.284,10.67-3.721,12.98-8.889c6.35-14.214,19.934-23.396,34.614-23.396c21.145,0,38.348,18.425,38.348,41.068
		C315.203,582.362,315.203,586.135,315.203,587.08z M574.066,30.084c-13.433,22.164-39.648,57.907-79.427,80.259
		c-40.73,22.894-86.451,26.125-109.854,26.11c13.431-22.168,39.65-57.909,79.429-80.263c40.417-22.714,85.831-26.108,109.304-26.108
		C573.702,30.083,573.883,30.083,574.066,30.084z M499.642,689.916c-52.297,0-94.845-46.133-94.845-102.836c0-0.976,0-4.76,0-5.077
		c0-22.645,17.204-41.069,38.35-41.069c14.681,0,28.267,9.185,34.613,23.395c2.308,5.17,7.323,8.606,12.978,8.891
		c6.084,0.306,11.712,0.306,17.807,0c5.651-0.284,10.67-3.721,12.978-8.891c6.347-14.21,19.935-23.395,34.617-23.395
		c21.144,0,38.344,18.425,38.344,41.069c0,0.359,0,4.124,0,5.077C594.479,643.785,551.937,689.916,499.642,689.916z"/>
</g>
</svg>
