<?xml version="1.0" encoding="iso-8859-1"?>
<!-- Generator: Adobe Illustrator 18.0.0, SVG Export Plug-In . SVG Version: 6.00 Build 0)  -->
<!DOCTYPE svg PUBLIC "-//W3C//DTD SVG 1.1//EN" "http://www.w3.org/Graphics/SVG/1.1/DTD/svg11.dtd">
<svg xmlns="http://www.w3.org/2000/svg" xmlns:xlink="http://www.w3.org/1999/xlink" version="1.1" id="Capa_1" x="0px" y="0px" viewBox="0 0 303.136 303.136" style="enable-background:new 0 0 303.136 303.136;" xml:space="preserve" width="512px" height="512px">
<path d="M247.078,118.307c0.338-0.596,1.028-0.896,1.695-0.74c3.324,0.78,6.895,1.229,10.619,1.279  c18.09,0.242,43.743-20.409,43.743-20.409s-25.085-21.337-43.177-21.58c-3.725-0.052-7.308,0.3-10.652,0.99  c-0.67,0.139-1.352-0.182-1.673-0.786c-0.321-0.604-0.206-1.35,0.284-1.827c0,0,0.001-0.001,0.002-0.002  c13.673-13.304,17.403-47.835,17.403-47.835s-34.621,2.797-48.288,16.104c-0.001,0.001-0.002,0.002-0.003,0.003  c-1.5,1.458-3.552,2.205-5.638,2.053c-2.087-0.152-4.007-1.191-5.28-2.851c-6.915-9.006-16.944-16.437-16.944-16.437  s-9.695,21.872-7.413,35.136c1.224,7.111,6.933,16.361,6.989,15.994c-2.755-0.452-5.525-0.625-8.309-0.502  c-4.984,0.214-9.582,1.354-13.761,3.031c3.078-13.079,3.145-27.507,0.106-42.966c-1.065-5.419-6.322-8.947-11.741-7.884  c-5.419,1.065-8.948,6.321-7.884,11.741c3.132,15.938,2.358,30.045-2.271,42.196c-0.039-0.098-0.072-0.195-0.113-0.293  c-7.66-18.415-28.805-27.112-47.21-19.463c-12.32,5.128-20.285,16.304-21.912,28.652c-9.911-7.54-23.453-9.757-35.766-4.623  c-18.406,7.661-27.105,28.796-19.456,47.202c2.209,5.298,5.539,9.787,9.595,13.319c-17.685,8.011-25.939,28.693-18.417,46.751  c2.205,5.297,5.529,9.785,9.58,13.317C3.503,215.91-4.737,236.579,2.785,254.632c7.65,18.415,28.796,27.114,47.201,19.453  c12.306-5.12,20.275-16.296,21.913-28.64c9.909,7.538,23.442,9.754,35.756,4.622c12.311-5.127,20.284-16.29,21.925-28.63  c9.907,7.538,23.449,9.749,35.762,4.629c18.397-7.67,27.122-28.824,19.465-47.21c-0.156-0.375-0.327-0.739-0.494-1.106  c-2.201-4.828-5.342-8.949-9.119-12.236c17.699-8.004,25.95-28.685,18.436-46.737c-4.96-11.917-15.585-19.747-27.446-21.724  c4.247-2.769,9.298-4.932,14.896-5.172c4.597-0.198,9.232,0.701,13.568,3.717c5.892,4.096,9.947,10.491,12.829,17.414  c4.818,11.575,5.217,24.235,1.217,36.004c0.427-0.098,0.862-0.166,1.306-0.187c2.088-0.096,4.123,0.701,5.582,2.198  c0.001,0.001,0.002,0.002,0.003,0.003c13.303,13.67,47.836,17.4,47.836,17.4s-2.797-34.62-16.104-48.288  C246.837,119.651,246.74,118.904,247.078,118.307z M89.085,96.829c0.459-6.6,3.461-12.627,8.453-16.971  c4.994-4.345,11.387-6.484,17.979-6.022c4.132,0.288,7.248,3.872,6.959,8.004c-0.287,4.132-3.88,7.252-8.004,6.959  c-2.596-0.18-5.118,0.662-7.087,2.376c-1.97,1.714-3.154,4.091-3.335,6.693c-0.275,3.956-3.569,6.98-7.475,6.98  c-0.175,0-0.351-0.006-0.527-0.018C91.915,104.543,88.798,100.961,89.085,96.829z M73.181,145.228  c0.459-6.6,3.461-12.627,8.453-16.971c1.973-1.717,4.166-3.082,6.502-4.086c3.576-1.536,7.489-2.215,11.476-1.937  c4.132,0.288,7.248,3.872,6.959,8.004c-0.051,0.729-0.21,1.424-0.451,2.076c-1.127,3.047-4.162,5.12-7.553,4.883  c-2.595-0.18-5.118,0.662-7.087,2.376c-1.97,1.714-3.154,4.091-3.335,6.693c-0.275,3.956-3.569,6.98-7.475,6.98  c-0.175,0-0.351-0.006-0.527-0.018c-2.32-0.162-4.32-1.362-5.577-3.115C73.584,148.745,73.055,147.039,73.181,145.228z   M28.24,117.72c0.459-6.6,3.461-12.627,8.453-16.971c4.994-4.345,11.384-6.483,17.979-6.022c4.132,0.288,7.248,3.872,6.959,8.004  c-0.288,4.132-3.873,7.26-8.004,6.959c-2.594-0.176-5.117,0.662-7.087,2.376c-1.97,1.714-3.154,4.091-3.335,6.693  c-0.275,3.956-3.569,6.98-7.475,6.98c-0.175,0-0.351-0.006-0.527-0.018C31.07,125.434,27.953,121.852,28.24,117.72z" fill="#431e59"/>
<g>
</g>
<g>
</g>
<g>
</g>
<g>
</g>
<g>
</g>
<g>
</g>
<g>
</g>
<g>
</g>
<g>
</g>
<g>
</g>
<g>
</g>
<g>
</g>
<g>
</g>
<g>
</g>
<g>
</g>
</svg>
