<?xml version="1.0" encoding="iso-8859-1"?>
<!-- Generator: Adobe Illustrator 18.1.1, SVG Export Plug-In . SVG Version: 6.00 Build 0)  -->
<svg xmlns="http://www.w3.org/2000/svg" xmlns:xlink="http://www.w3.org/1999/xlink" version="1.1" id="Capa_1" x="0px" y="0px" viewBox="0 0 43.061 43.061" style="enable-background:new 0 0 43.061 43.061;" xml:space="preserve" width="512px" height="512px">
<g>
	<g id="b10_fruit">
		<path d="M37.759,26.305c0-6.917-4.334-12.807-10.432-15.143c0,0-1.473-0.893-0.7-3.79c0.035-0.117,0.057-0.241,0.113-0.346    c0.193-0.389,0.515-0.727,0.919-0.986c0.817-0.514,1.871-0.708,2.903-0.766c-1.027-0.135-2.112-0.171-3.172,0.232    c-0.522,0.204-1.03,0.545-1.401,1.028c-0.14,0.182-0.235,0.385-0.334,0.585c-0.146-0.808-0.054-1.687,0.26-2.538    c0.655-1.75,2.053-3.283,3.57-4.581c-1.737,0.994-3.451,2.209-4.612,4.073c-0.563,0.929-0.94,2.049-0.949,3.231    c0,0.024,0.004,0.046,0.004,0.068c-0.01,0-0.023,0-0.032,0c-0.244-0.234-0.474-0.658-0.543-1.062    c-0.081-0.426-0.031-0.891,0.134-1.342c0.338-0.904,1.059-1.696,1.846-2.368c-0.899,0.516-1.783,1.144-2.383,2.105    c-0.291,0.479-0.487,1.059-0.493,1.668c0.003,0.343-0.967,1.701-0.862,2.026c-0.271,0,0.485-1.028,0.207-1.028    c-0.142-0.832-0.449-1.614-0.862-2.29c-1.16-1.864-2.876-3.079-4.616-4.073c1.523,1.297,2.918,2.829,3.572,4.583    c0.219,0.594,0.291,1.192,0.291,1.781c-0.104-0.768-1.503-1.475-1.902-2.104c-0.535-0.827-1.303-1.444-2.115-1.845    c-1.648-0.791-3.397-0.878-5.065-0.799c1.651,0.232,3.317,0.684,4.562,1.622c0.613,0.469,1.086,1.061,1.342,1.71    c0.04,0.092,0.042,0.201,0.072,0.3c-0.268-0.26-0.558-0.445-0.853-0.632c-0.616-0.337-1.242-0.511-1.85-0.6    C13.16,4.845,12,4.956,10.878,5.14c1.115,0.199,2.222,0.49,3.147,0.988c0.463,0.244,0.87,0.548,1.155,0.882    c0.097,0.102,1.279,1.426,1.256,1.426c1.306,1.97-0.701,2.727-0.701,2.727C9.639,13.498,5.302,19.388,5.302,26.305    c0,8.154,6.018,14.883,13.849,16.037c0.36,0.422,1.11,0.719,1.994,0.719c0.792,0,1.456-0.248,1.849-0.598    C31.273,41.721,37.759,34.775,37.759,26.305z" fill="#9557ad"/>
	</g>
	<g id="Capa_1_275_">
	</g>
</g>
<g>
</g>
<g>
</g>
<g>
</g>
<g>
</g>
<g>
</g>
<g>
</g>
<g>
</g>
<g>
</g>
<g>
</g>
<g>
</g>
<g>
</g>
<g>
</g>
<g>
</g>
<g>
</g>
<g>
</g>
</svg>
