<?xml version="1.0" encoding="iso-8859-1"?>
<!-- Generator: Adobe Illustrator 16.0.0, SVG Export Plug-In . SVG Version: 6.00 Build 0)  -->
<!DOCTYPE svg PUBLIC "-//W3C//DTD SVG 1.1//EN" "http://www.w3.org/Graphics/SVG/1.1/DTD/svg11.dtd">
<svg xmlns="http://www.w3.org/2000/svg" xmlns:xlink="http://www.w3.org/1999/xlink" version="1.1" id="Capa_1" x="0px" y="0px" width="512px" height="512px" viewBox="0 0 967.416 967.416" style="enable-background:new 0 0 967.416 967.416;" xml:space="preserve">
<g>
	<path d="M581.653,353.435c1.301-3.698,2.682-7.37,4.135-11.014c11.854-26.637,27.168-51.625,44.664-74.927   c18.57-23.412,39.395-45.146,62.707-63.87c5.184-3.853,10.479-7.549,15.922-11.035c19.281-12.349,27.049-37.185,15.098-57.585   c-11.232-19.178-38.246-27.484-57.584-15.099c-46.264,29.629-84.582,70.394-116.111,115.059c-0.719,1.018-1.43,2.042-2.141,3.066   c-10.154-44.645-32.043-106.492-78.998-153.507C411.967,27.227,332.551,7.232,289.187,0.355   c-17.218-2.73-30.556,10.618-27.816,27.834c6.899,43.353,26.917,122.732,84.129,180.025   c53.738,53.708,127.01,74.663,171.716,82.741c-1.801,3.761-3.535,7.552-5.184,11.383c-5.029,11.691-9.947,23.422-13.865,35.523   c-4.793-0.243-9.615-0.381-14.476-0.381c-173.998,0-314.95,140.97-314.95,314.934c0,173.947,140.954,315.018,314.984,315.002   c173.879,0,314.95-141.039,314.95-315.002C798.677,512.748,707.546,394.625,581.653,353.435z M517.823,887.549   c-11.621,0-21.32-9.697-21.32-21.318c0-11.623,9.699-21.32,21.32-21.32c11.623,0,21.32,9.697,21.32,21.32   C539.144,877.852,529.446,887.549,517.823,887.549z M545.54,808.664c-11.623,0-21.32-9.699-21.32-21.32   c0-11.623,9.697-21.32,21.32-21.32c11.621,0,21.32,9.697,21.32,21.32C566.86,798.965,557.161,808.664,545.54,808.664z    M618.028,853.438c-11.621,0-21.32-9.699-21.32-21.32c0-11.623,9.699-21.32,21.32-21.32c11.623,0,21.32,9.697,21.32,21.32   C639.349,843.738,629.651,853.438,618.028,853.438z" fill="#ffc445"/>
</g>
<g>
</g>
<g>
</g>
<g>
</g>
<g>
</g>
<g>
</g>
<g>
</g>
<g>
</g>
<g>
</g>
<g>
</g>
<g>
</g>
<g>
</g>
<g>
</g>
<g>
</g>
<g>
</g>
<g>
</g>
</svg>
