<?xml version="1.0" encoding="iso-8859-1"?>
<!-- Generator: Adobe Illustrator 16.0.0, SVG Export Plug-In . SVG Version: 6.00 Build 0)  -->
<!DOCTYPE svg PUBLIC "-//W3C//DTD SVG 1.1//EN" "http://www.w3.org/Graphics/SVG/1.1/DTD/svg11.dtd">
<svg xmlns="http://www.w3.org/2000/svg" xmlns:xlink="http://www.w3.org/1999/xlink" version="1.1" id="Capa_1" x="0px" y="0px" width="512px" height="512px" viewBox="0 0 980.167 980.167" style="enable-background:new 0 0 980.167 980.167;" xml:space="preserve">
<g>
	<path d="M531.331,170.95c-107.632,33.938-222.123,98.967-284.917,161.817C127.412,451.86,120.597,638.668,231.221,749.183   C341.84,859.68,528.649,852.684,647.641,733.592c62.794-62.85,127.714-177.399,161.561-285.052   c38.19-121.442,33.317-217.836-13.356-264.475C749.169,137.427,652.754,132.642,531.331,170.95z M539.905,661.775   c-62.639,57.943-160.387,54.142-218.336-8.501c-57.95-62.644-54.131-160.386,8.523-218.336   c62.626-57.943,160.391-54.137,218.324,8.513C606.362,506.088,602.554,603.864,539.905,661.775z" fill="#8fc45a"/>
	<path d="M957.435,143.178c-11.531-28.921-27.455-53.653-47.327-73.512C864.498,24.09,793.59,0,705.051,0   c-56.884,0-120.196,9.715-188.174,28.873c-72.559,20.436-147.803,51.248-217.603,89.105   c-70.57,38.277-130.251,80.911-172.59,123.291c-41.239,41.273-73.172,89.464-94.91,143.231   C10.797,436.39,0.174,491.216,0.2,547.457c0.026,56.242,10.7,111.06,31.726,162.93c21.787,53.75,53.764,101.913,95.043,143.154   c41.244,41.202,89.401,73.198,143.134,94.931c51.849,20.973,106.633,31.695,162.834,31.695c0.012,0,0.019,0,0.027,0   c56.269,0,111.117-10.743,163.013-31.764c53.782-21.786,101.977-53.817,143.243-95.122   c42.338-42.379,84.914-102.123,123.126-172.735c37.788-69.831,68.53-145.114,88.902-217.688   c23.723-84.481,32.814-160.942,27.026-227.249C975.298,201.492,968.286,170.391,957.435,143.178z M874.228,441.224   c-18.793,66.952-47.23,136.535-82.238,201.229c-34.095,63.003-72.934,117.866-109.361,154.33   c-66.557,66.616-155.218,103.385-249.663,103.385c-0.006,0-0.017,0-0.022,0c-94.331,0-182.915-36.689-249.433-103.138   C116.934,730.513,80.244,641.854,80.2,547.462s36.562-183.058,103.078-249.628c36.432-36.467,91.173-75.37,154.139-109.522   c64.66-35.071,134.216-63.579,201.154-82.431c60.922-17.17,116.934-25.877,166.479-25.877c66.872,0,118.226,15.994,148.508,46.254   C906.911,179.57,914.638,297.313,874.228,441.224z" fill="#8fc45a"/>
</g>
<g>
</g>
<g>
</g>
<g>
</g>
<g>
</g>
<g>
</g>
<g>
</g>
<g>
</g>
<g>
</g>
<g>
</g>
<g>
</g>
<g>
</g>
<g>
</g>
<g>
</g>
<g>
</g>
<g>
</g>
</svg>
