<?xml version="1.0" encoding="utf-8"?>
<!-- Generator: Adobe Illustrator 15.1.0, SVG Export Plug-In . SVG Version: 6.00 Build 0)  -->
<!DOCTYPE svg PUBLIC "-//W3C//DTD SVG 1.1//EN" "http://www.w3.org/Graphics/SVG/1.1/DTD/svg11.dtd">
<svg version="1.1" id="Capa_1" xmlns="http://www.w3.org/2000/svg" xmlns:xlink="http://www.w3.org/1999/xlink" x="0px" y="0px"
	 width="720px" height="720px" viewBox="0 0 720 720" enable-background="new 0 0 720 720" xml:space="preserve">
<g>
	<g>
		<path fill="#724CFC" d="M269.577,270.216c1.532,0.473,3.008,1.07,4.446,1.733C272.583,271.286,271.109,270.688,269.577,270.216z"
			/>
		<path fill="#724CFC" d="M264.923,269.147c1.522,0.257,3.024,0.581,4.478,1.021C267.948,269.73,266.448,269.405,264.923,269.147z"
			/>
		<path fill="#724CFC" d="M222.653,310.028c-0.217-1.605-0.368-3.23-0.368-4.895C222.285,306.798,222.437,308.423,222.653,310.028z"
			/>
		<path fill="#724CFC" d="M279.02,274.71c1.353,0.902,2.626,1.907,3.844,2.976C281.646,276.618,280.373,275.612,279.02,274.71z"/>
		<path fill="#724CFC" d="M283.402,278.177c2.404,2.197,4.521,4.7,6.271,7.463C287.921,282.875,285.81,280.373,283.402,278.177z"/>
		<path fill="#724CFC" d="M258.824,268.596c1.665,0,3.292,0.151,4.896,0.368C262.116,268.748,260.489,268.596,258.824,268.596z"/>
		<path fill="#724CFC" d="M274.94,272.392c1.384,0.686,2.737,1.431,4.015,2.279C277.675,273.823,276.326,273.076,274.94,272.392z"/>
		<path fill="#724CFC" d="M231.868,329.715c2.195,2.406,4.698,4.517,7.461,6.27C236.568,334.234,234.065,332.117,231.868,329.715z"
			/>
		<path fill="#724CFC" d="M289.942,286.081c0.859,1.397,1.642,2.847,2.311,4.358c-4.502-1.988-9.467-3.11-14.696-3.11
			c-20.149,0-36.539,16.39-36.539,36.539c0,5.229,1.123,10.194,3.11,14.696c-1.513-0.667-2.961-1.451-4.358-2.311
			c5.556,3.415,12.068,5.421,19.054,5.421c20.149,0,36.539-16.39,36.539-36.539C295.363,298.149,293.357,291.637,289.942,286.081z"
			/>
		<path fill="#724CFC" d="M231.375,329.171c-1.068-1.216-2.071-2.49-2.974-3.841C229.302,326.683,230.307,327.956,231.375,329.171z"
			/>
		<path fill="#724CFC" d="M223.86,315.71c-0.441-1.452-0.764-2.952-1.021-4.474C223.096,312.759,223.419,314.259,223.86,315.71z"/>
		<path fill="#724CFC" d="M228.358,325.26c-0.848-1.278-1.592-2.626-2.275-4.009C226.767,322.635,227.512,323.982,228.358,325.26z"
			/>
		<path fill="#724CFC" d="M225.638,320.33c-0.663-1.438-1.259-2.914-1.733-4.444C224.377,317.418,224.977,318.892,225.638,320.33z"
			/>
	</g>
	<g>
		<path fill="#FDD44B" d="M370.753,270.216c1.531,0.473,3.005,1.07,4.443,1.733C373.758,271.286,372.284,270.688,370.753,270.216z"
			/>
		<path fill="#FDD44B" d="M323.829,310.028c-0.217-1.605-0.366-3.23-0.366-4.895C323.463,306.798,323.612,308.423,323.829,310.028z"
			/>
		<path fill="#FDD44B" d="M376.117,272.392c1.383,0.686,2.731,1.429,4.009,2.275C378.847,273.821,377.502,273.076,376.117,272.392z"
			/>
		<path fill="#FDD44B" d="M366.101,269.147c1.522,0.257,3.024,0.581,4.477,1.021C369.124,269.73,367.623,269.405,366.101,269.147z"
			/>
		<path fill="#FDD44B" d="M360.002,268.596c1.664,0,3.291,0.151,4.896,0.368C363.291,268.748,361.664,268.596,360.002,268.596z"/>
		<path fill="#FDD44B" d="M384.578,278.177c2.404,2.197,4.521,4.7,6.271,7.463C389.097,282.875,386.986,280.373,384.578,278.177z"/>
		<path fill="#FDD44B" d="M380.197,274.712c1.351,0.902,2.627,1.906,3.843,2.974C382.822,276.618,381.55,275.612,380.197,274.712z"
			/>
		<path fill="#FDD44B" d="M332.551,329.171c-1.068-1.216-2.071-2.49-2.974-3.841C330.479,326.683,331.482,327.956,332.551,329.171z"
			/>
		<path fill="#FDD44B" d="M333.044,329.715c2.195,2.406,4.698,4.517,7.461,6.27C337.744,334.234,335.241,332.117,333.044,329.715z"
			/>
		<path fill="#724CFC" d="M391.118,286.081c0.859,1.397,1.642,2.847,2.311,4.358c-4.502-1.988-9.467-3.11-14.696-3.11
			c-20.148,0-36.539,16.39-36.539,36.539c0,5.229,1.123,10.194,3.11,14.696c-1.513-0.667-2.961-1.451-4.357-2.311
			c5.555,3.415,12.067,5.421,19.054,5.421c20.146,0,36.539-16.39,36.539-36.539C396.539,298.149,394.535,291.637,391.118,286.081z"
			/>
		<path fill="#FDD44B" d="M325.035,315.71c-0.44-1.452-0.764-2.952-1.021-4.474C324.271,312.759,324.595,314.259,325.035,315.71z"/>
		<path fill="#FDD44B" d="M329.534,325.26c-0.849-1.278-1.592-2.626-2.275-4.009C327.942,322.635,328.688,323.982,329.534,325.26z"
			/>
		<path fill="#FDD44B" d="M326.814,320.33c-0.664-1.438-1.26-2.914-1.734-4.444C325.553,317.418,326.15,318.892,326.814,320.33z"/>
	</g>
	<g>
		<path fill="#84BD93" d="M306.763,40.964c1.134,0.585,2.23,1.188,3.321,1.793C308.991,42.153,307.898,41.549,306.763,40.964z"/>
		<path fill="#84BD93" d="M298.003,36.804c1.031,0.447,2.003,0.925,3.006,1.384C300.004,37.729,299.034,37.251,298.003,36.804z"/>
		<path fill="#84BD93" d="M204.821,93.53c-0.667-1.269-1.278-2.632-1.889-3.994C203.545,90.899,204.156,92.261,204.821,93.53z"/>
		<path fill="#84BD93" d="M202.004,87.505c-0.871-2.121-1.68-4.338-2.393-6.684C200.324,83.167,201.133,85.385,202.004,87.505z"/>
		<path fill="#84BD93" d="M314.787,45.498c1.093,0.673,2.181,1.349,3.227,2.044C316.968,46.847,315.882,46.169,314.787,45.498z"/>
		<path fill="#84BD93" d="M336.248,63.454c0.807,0.957,1.519,1.954,2.264,2.938C337.769,65.408,337.055,64.409,336.248,63.454z"/>
		<path fill="#84BD93" d="M332.71,59.634c-1.179-1.214-2.416-2.4-3.703-3.564C330.292,57.233,331.531,58.419,332.71,59.634z"/>
		<path fill="#84BD93" d="M322.104,50.436c0.99,0.73,2.007,1.448,2.948,2.201C324.109,51.883,323.095,51.166,322.104,50.436z"/>
		<path fill="#84BD93" d="M207.985,98.927c-0.667-1.029-1.298-2.134-1.932-3.238C206.687,96.795,207.316,97.897,207.985,98.927z"/>
		<path fill="#84BD93" d="M216.543,109.541c0.749,0.754,1.494,1.479,2.247,2.17C218.037,111.021,217.29,110.293,216.543,109.541z"/>
		<path fill="#84BD93" d="M345.623,77.892c-1.535-3.263-3.457-6.351-5.555-9.361c-9.034-6.52-19.99-12.125-32.839-16.788
			c-0.749,9.893-2.47,22.773-6.232,37.042c-1.115,4.233-4.142,7.706-8.184,9.389c-4.035,1.683-8.634,1.386-12.426-0.805
			c-1.188-0.662-29.235-15.828-62.045,2.184c2.221,7.295,5.27,13.446,8.716,18.652c8.154,5.414,14.888,7.364,15.527,7.538
			c4.242,1.082,7.689,4.065,9.408,8.091c1.145,2.686,1.309,5.61,0.704,8.398c0.08-0.375,0.206-0.741,0.256-1.121
			c4.642,2.311,7.928,3.245,8.365,3.363c4.242,1.082,7.689,4.064,9.405,8.09c1.717,4.025,1.409,8.61-0.749,12.42
			c-4.565,8.061-9.325,15.161-13.812,21.218c16.951,3.984,32.321,3.627,45.892-1.306c31.298-11.386,43.808-43.707,43.932-44.032
			C346.03,140.747,358.883,106.09,345.623,77.892z"/>
		<path fill="#84BD93" d="M238.782,180.826c0.846,0.325,1.688,0.641,2.527,0.947C240.471,181.466,239.626,181.149,238.782,180.826z"
			/>
		<path fill="#84BD93" d="M248.991,184.339c0.813,0.245,1.614,0.458,2.419,0.682C250.605,184.799,249.802,184.583,248.991,184.339z"
			/>
		<path fill="#84BD93" d="M211.417,103.733c-0.691-0.882-1.362-1.825-2.029-2.776C210.057,101.908,210.726,102.85,211.417,103.733z"
			/>
		<path fill="#84BD93" d="M252.398,143.543c-0.297,0.931-0.663,1.846-1.153,2.71C251.735,145.387,252.107,144.475,252.398,143.543z"
			/>
		<path fill="#84BD93" d="M215.044,107.985c-0.721-0.775-1.431-1.599-2.139-2.44C213.614,106.386,214.322,107.208,215.044,107.985z"
			/>
		<path fill="#84BD93" d="M222.59,114.951c-0.787-0.62-1.575-1.271-2.367-1.956C221.017,113.682,221.801,114.329,222.59,114.951z"/>
		<path fill="#84BD93" d="M226.371,117.734c-0.82-0.56-1.651-1.147-2.494-1.778C224.721,116.589,225.547,117.174,226.371,117.734z"
			/>
	</g>
	<g>
		<path fill="#724CFC" d="M467.278,269.149c1.519,0.258,3.018,0.581,4.467,1.02C470.294,269.73,468.799,269.405,467.278,269.149z"/>
		<path fill="#724CFC" d="M471.93,270.216c1.53,0.473,3.004,1.068,4.438,1.729C474.932,271.286,473.46,270.688,471.93,270.216z"/>
		<path fill="#724CFC" d="M424.639,305.135c0-2.518,0.256-4.979,0.743-7.354C424.895,300.157,424.639,302.615,424.639,305.135z"/>
		<path fill="#724CFC" d="M461.18,268.596c1.662,0,3.287,0.151,4.893,0.368C464.467,268.748,462.842,268.596,461.18,268.596z"/>
		<path fill="#724CFC" d="M492.021,285.633c-1.75-2.757-3.857-5.257-6.26-7.448C488.16,280.376,490.272,282.875,492.021,285.633z"/>
		<path fill="#724CFC" d="M477.297,272.394c1.379,0.682,2.722,1.423,3.996,2.27C480.019,273.819,478.676,273.076,477.297,272.394z"
			/>
		<path fill="#724CFC" d="M481.375,274.712c1.347,0.9,2.619,1.902,3.833,2.969C483.994,276.616,482.726,275.612,481.375,274.712z"/>
		<path fill="#724CFC" d="M492.301,286.092c0.853,1.388,1.631,2.826,2.294,4.328C493.93,288.917,493.153,287.48,492.301,286.092z"/>
		<path fill="#724CFC" d="M434.218,329.711c2.196,2.408,4.702,4.522,7.467,6.275C438.92,334.236,436.414,332.117,434.218,329.711z"
			/>
		<path fill="#724CFC" d="M430.715,325.267c-0.85-1.279-1.595-2.632-2.282-4.018C429.118,322.635,429.865,323.986,430.715,325.267z"
			/>
		<path fill="#724CFC" d="M433.729,329.175c-1.068-1.218-2.075-2.494-2.978-3.846C431.653,326.683,432.66,327.957,433.729,329.175z"
			/>
		<path fill="#724CFC" d="M494.604,290.439c-4.502-1.986-9.466-3.11-14.694-3.11c-20.148,0-36.539,16.39-36.539,36.539
			c0,5.229,1.123,10.194,3.11,14.696c-1.515-0.668-2.965-1.453-4.363-2.313c5.557,3.417,12.069,5.423,19.058,5.423
			c20.148,0,36.539-16.39,36.539-36.539C497.715,299.907,496.59,294.941,494.604,290.439z"/>
		<path fill="#724CFC" d="M461.176,268.596L461.176,268.596c-17.631,0-32.383,12.549-35.796,29.185
			C428.795,281.146,443.549,268.596,461.176,268.596z"/>
		<path fill="#724CFC" d="M427.991,320.334c-0.663-1.438-1.261-2.917-1.733-4.45C426.729,317.418,427.328,318.894,427.991,320.334z"
			/>
		<path fill="#724CFC" d="M424.639,305.135c0,1.665,0.151,3.29,0.367,4.896C424.788,308.427,424.639,306.798,424.639,305.135z"/>
		<path fill="#724CFC" d="M425.189,311.234c0.258,1.526,0.583,3.03,1.025,4.485C425.772,314.265,425.447,312.761,425.189,311.234z"
			/>
	</g>
	<g>
		<path fill="#724CFC" d="M239.083,373.19c-1.75-2.759-3.858-5.257-6.26-7.45C235.222,367.936,237.334,370.434,239.083,373.19z"/>
		<path fill="#724CFC" d="M218.99,357.773c1.53,0.473,3.003,1.068,4.438,1.731C221.992,358.844,220.522,358.244,218.99,357.773z"/>
		<path fill="#724CFC" d="M214.338,356.705c1.519,0.258,3.015,0.579,4.465,1.02C217.354,357.286,215.857,356.962,214.338,356.705z"
			/>
		<path fill="#724CFC" d="M224.359,359.951c1.375,0.68,2.716,1.422,3.986,2.264C227.073,361.373,225.735,360.631,224.359,359.951z"
			/>
		<path fill="#724CFC" d="M239.359,373.645c0.854,1.392,1.634,2.834,2.299,4.34C240.994,376.479,240.213,375.036,239.359,373.645z"
			/>
		<path fill="#724CFC" d="M208.237,356.152c1.663,0,3.29,0.151,4.895,0.368C211.525,356.303,209.9,356.152,208.237,356.152z"/>
		<path fill="#724CFC" d="M228.438,362.271c1.347,0.898,2.617,1.9,3.832,2.967C231.054,364.174,229.787,363.17,228.438,362.271z"/>
		<path fill="#724CFC" d="M173.275,403.275c-0.443-1.455-0.766-2.961-1.025-4.487C172.507,400.316,172.832,401.818,173.275,403.275z
			"/>
		<path fill="#724CFC" d="M193.536,426.116c-1.51-0.667-2.956-1.45-4.351-2.308C190.581,424.668,192.024,425.449,193.536,426.116z"
			/>
		<path fill="#724CFC" d="M241.665,377.995c-4.502-1.987-9.467-3.11-14.696-3.11c-20.147,0-36.539,16.391-36.539,36.539
			c0,5.229,1.123,10.194,3.11,14.696c4.502,1.987,9.467,3.11,14.696,3.11c20.148,0,36.539-16.391,36.539-36.537
			C244.776,387.464,243.652,382.497,241.665,377.995z"/>
		<path fill="#724CFC" d="M181.28,417.269c2.197,2.406,4.698,4.52,7.463,6.271C185.978,421.79,183.477,419.673,181.28,417.269z"/>
		<path fill="#724CFC" d="M180.788,416.73c-1.068-1.216-2.073-2.493-2.976-3.844C178.713,414.239,179.72,415.511,180.788,416.73z"/>
		<path fill="#724CFC" d="M175.052,407.892c-0.664-1.44-1.261-2.916-1.736-4.45C173.791,404.976,174.388,406.451,175.052,407.892z"
			/>
		<path fill="#724CFC" d="M177.775,412.825c-0.852-1.282-1.598-2.635-2.285-4.022C176.178,410.192,176.925,411.543,177.775,412.825z
			"/>
		<path fill="#724CFC" d="M171.698,392.693L171.698,392.693c0,1.666,0.151,3.291,0.368,4.897
			C171.85,395.984,171.698,394.357,171.698,392.693z"/>
	</g>
	<g>
		<path fill="#724CFC" d="M315.514,356.705c1.52,0.258,3.016,0.579,4.465,1.02C318.529,357.286,317.033,356.962,315.514,356.705z"/>
		<path fill="#724CFC" d="M320.168,357.773c1.529,0.473,3.002,1.068,4.438,1.731C323.168,358.844,321.697,358.244,320.168,357.773z"
			/>
		<path fill="#724CFC" d="M329.614,362.271c1.347,0.898,2.617,1.9,3.831,2.967C332.229,364.174,330.963,363.17,329.614,362.271z"/>
		<path fill="#724CFC" d="M325.534,359.951c1.375,0.68,2.717,1.422,3.986,2.264C328.249,361.373,326.911,360.631,325.534,359.951z"
			/>
		<path fill="#724CFC" d="M340.257,373.188c-1.751-2.757-3.857-5.255-6.259-7.448C336.397,367.934,338.51,370.432,340.257,373.188z"
			/>
		<path fill="#724CFC" d="M309.413,356.152c1.663,0,3.29,0.151,4.895,0.368C312.701,356.303,311.076,356.152,309.413,356.152z"/>
		<path fill="#724CFC" d="M340.537,373.648c0.852,1.388,1.631,2.828,2.294,4.33C342.168,376.475,341.391,375.037,340.537,373.648z"
			/>
		<path fill="#724CFC" d="M294.711,426.116c-1.509-0.667-2.955-1.45-4.351-2.308C291.756,424.668,293.2,425.449,294.711,426.116z"/>
		<path fill="#724CFC" d="M282.455,417.269c2.197,2.406,4.698,4.52,7.461,6.271C287.155,421.79,284.652,419.673,282.455,417.269z"/>
		<path fill="#724CFC" d="M281.964,416.73c-1.068-1.216-2.073-2.493-2.976-3.844C279.889,414.239,280.896,415.511,281.964,416.73z"
			/>
		<path fill="#724CFC" d="M272.874,392.693L272.874,392.693c0,1.666,0.151,3.291,0.368,4.897
			C273.025,395.984,272.874,394.357,272.874,392.693z"/>
		<path fill="#724CFC" d="M342.84,377.995c-4.502-1.987-9.465-3.11-14.695-3.11c-20.149,0-36.54,16.391-36.54,36.539
			c0,5.229,1.123,10.194,3.11,14.696c4.502,1.987,9.467,3.11,14.696,3.11c20.148,0,36.539-16.391,36.539-36.537
			C345.952,387.464,344.828,382.499,342.84,377.995z"/>
		<path fill="#724CFC" d="M274.451,403.275c-0.443-1.455-0.766-2.961-1.025-4.487C273.683,400.316,274.008,401.818,274.451,403.275z
			"/>
		<path fill="#724CFC" d="M276.227,407.892c-0.663-1.44-1.261-2.916-1.735-4.45C274.966,404.976,275.564,406.451,276.227,407.892z"
			/>
		<path fill="#724CFC" d="M278.951,412.825c-0.852-1.282-1.597-2.635-2.283-4.022C277.354,410.192,278.101,411.543,278.951,412.825z
			"/>
	</g>
	<g>
		<path fill="#724CFC" d="M421.343,357.773c1.528,0.473,3.002,1.068,4.437,1.729C424.343,358.842,422.873,358.244,421.343,357.773z"
			/>
		<path fill="#724CFC" d="M426.712,359.953c1.371,0.68,2.711,1.418,3.98,2.261C429.423,361.373,428.085,360.631,426.712,359.953z"/>
		<path fill="#724CFC" d="M416.689,356.705c1.52,0.258,3.016,0.579,4.465,1.02C419.705,357.286,418.21,356.962,416.689,356.705z"/>
		<path fill="#724CFC" d="M430.79,362.271c1.345,0.898,2.615,1.898,3.827,2.963C433.405,364.172,432.137,363.17,430.79,362.271z"/>
		<path fill="#724CFC" d="M441.716,373.655c0.849,1.382,1.622,2.813,2.285,4.308C443.34,376.469,442.566,375.037,441.716,373.655z"
			/>
		<path fill="#724CFC" d="M410.589,356.152c1.662,0,3.289,0.151,4.895,0.368C413.877,356.303,412.251,356.152,410.589,356.152z"/>
		<path fill="#724CFC" d="M374.05,392.693L374.05,392.693c0,1.666,0.151,3.291,0.368,4.897
			C374.201,395.984,374.05,394.357,374.05,392.693z"/>
		<path fill="#724CFC" d="M441.429,373.183c-1.749-2.753-3.854-5.249-6.251-7.438C437.572,367.936,439.684,370.43,441.429,373.183z"
			/>
		<path fill="#724CFC" d="M375.626,403.275c-0.442-1.455-0.766-2.961-1.025-4.487C374.858,400.316,375.184,401.818,375.626,403.275z
			"/>
		<path fill="#724CFC" d="M395.887,426.116c-1.509-0.667-2.955-1.45-4.351-2.308C392.932,424.668,394.376,425.449,395.887,426.116z"
			/>
		<path fill="#724CFC" d="M444.016,377.995c-4.502-1.985-9.466-3.11-14.694-3.11c-20.148,0-36.539,16.391-36.539,36.539
			c0,5.229,1.123,10.194,3.11,14.696c4.502,1.987,9.468,3.11,14.696,3.11c20.148,0,36.539-16.391,36.539-36.537
			C447.126,387.464,446.003,382.497,444.016,377.995z"/>
		<path fill="#724CFC" d="M383.631,417.269c2.197,2.406,4.698,4.52,7.463,6.271C388.331,421.79,385.828,419.673,383.631,417.269z"/>
		<path fill="#724CFC" d="M383.14,416.73c-1.068-1.216-2.075-2.493-2.976-3.844C381.066,414.239,382.071,415.511,383.14,416.73z"/>
		<path fill="#724CFC" d="M377.404,407.892c-0.663-1.44-1.261-2.916-1.735-4.45C376.142,404.976,376.741,406.451,377.404,407.892z"
			/>
		<path fill="#724CFC" d="M380.128,412.825c-0.852-1.282-1.597-2.635-2.284-4.022C378.529,410.192,379.276,411.543,380.128,412.825z
			"/>
	</g>
	<g>
		<path fill="#724CFC" d="M527.886,359.951c1.375,0.68,2.716,1.422,3.986,2.264C530.6,361.373,529.261,360.631,527.886,359.951z"/>
		<path fill="#724CFC" d="M522.519,357.773c1.53,0.473,3.002,1.068,4.438,1.731C525.519,358.844,524.047,358.244,522.519,357.773z"
			/>
		<path fill="#724CFC" d="M517.865,356.705c1.519,0.258,3.017,0.579,4.465,1.02C520.881,357.286,519.384,356.96,517.865,356.705z"/>
		<path fill="#724CFC" d="M542.886,373.646c0.853,1.39,1.631,2.828,2.296,4.332C544.517,376.475,543.74,375.036,542.886,373.646z"/>
		<path fill="#724CFC" d="M531.964,362.271c1.347,0.898,2.617,1.9,3.831,2.967C534.581,364.174,533.313,363.17,531.964,362.271z"/>
		<path fill="#724CFC" d="M542.609,373.19c-1.75-2.757-3.857-5.257-6.26-7.45C538.748,367.936,540.861,370.434,542.609,373.19z"/>
		<path fill="#724CFC" d="M511.765,356.152c1.662,0,3.289,0.151,4.894,0.368C515.052,356.303,513.427,356.152,511.765,356.152z"/>
		<path fill="#724CFC" d="M475.226,392.693L475.226,392.693c0,1.804,0.144,3.573,0.397,5.309
			C475.369,396.267,475.226,394.496,475.226,392.693z"/>
		<path fill="#724CFC" d="M493.154,424.044c0.419,0.251,0.806,0.548,1.235,0.781c0.019,0.002,0.039,0.004,0.062,0.004
			c0.056,0.035,0.11,0.072,0.164,0.108c0.536,0.285,1.112,0.504,1.663,0.764C495.208,425.197,494.165,424.646,493.154,424.044z"/>
		<path fill="#724CFC" d="M491.692,423.121c-0.927-0.612-1.821-1.267-2.688-1.957C489.871,421.856,490.764,422.507,491.692,423.121z
			"/>
		<path fill="#724CFC" d="M476.757,403.081c-0.334-1.123-0.563-2.286-0.788-3.45C476.193,400.795,476.423,401.956,476.757,403.081z"
			/>
		<path fill="#724CFC" d="M485.311,417.76c0.749,0.791,1.52,1.547,2.335,2.269C486.83,419.309,486.059,418.547,485.311,417.76z"/>
		<path fill="#724CFC" d="M545.191,377.995c-4.502-1.987-9.466-3.11-14.694-3.11c-20.148,0-36.539,16.391-36.539,36.539
			c0,5.204,1.115,10.144,3.086,14.629c4.516,2.004,9.475,3.178,14.723,3.178c20.146,0,36.539-16.391,36.539-36.537
			C548.302,387.464,547.179,382.499,545.191,377.995z"/>
		<path fill="#724CFC" d="M478.574,407.882c-0.45-0.977-0.814-1.999-1.177-3.019C477.76,405.885,478.124,406.903,478.574,407.882z"
			/>
		<path fill="#724CFC" d="M481.029,412.345c-0.571-0.89-1.074-1.823-1.569-2.763C479.955,410.523,480.458,411.453,481.029,412.345z"
			/>
		<path fill="#724CFC" d="M484.07,416.413c-0.694-0.807-1.334-1.66-1.956-2.527C482.736,414.755,483.376,415.604,484.07,416.413z"/>
	</g>
	<g>
		<path fill="#724CFC" d="M274.94,447.476c1.384,0.686,2.737,1.431,4.015,2.28C277.675,448.906,276.326,448.161,274.94,447.476z"/>
		<path fill="#724CFC" d="M264.923,444.23c1.522,0.258,3.024,0.583,4.478,1.021C267.948,444.813,266.448,444.488,264.923,444.23z"/>
		<path fill="#724CFC" d="M269.577,445.299c1.532,0.473,3.008,1.07,4.446,1.733C272.583,446.371,271.109,445.771,269.577,445.299z"
			/>
		<path fill="#724CFC" d="M279.02,449.796c1.353,0.901,2.626,1.907,3.844,2.976C281.646,451.701,280.373,450.696,279.02,449.796z"/>
		<path fill="#724CFC" d="M283.402,453.261c2.404,2.196,4.521,4.7,6.271,7.463C287.921,457.959,285.81,455.457,283.402,453.261z"/>
		<path fill="#724CFC" d="M258.824,443.68c1.665,0,3.292,0.151,4.896,0.368C262.116,443.831,260.489,443.68,258.824,443.68z"/>
		<path fill="#724CFC" d="M225.638,495.417c-0.663-1.438-1.261-2.914-1.733-4.448C224.377,492.503,224.977,493.977,225.638,495.417z
			"/>
		<path fill="#724CFC" d="M231.863,504.793c2.201,2.411,4.708,4.526,7.478,6.282C236.572,509.323,234.063,507.201,231.863,504.793z"
			/>
		<path fill="#724CFC" d="M231.379,504.261c-1.07-1.219-2.075-2.496-2.979-3.849C229.302,501.769,230.309,503.041,231.379,504.261z"
			/>
		<path fill="#724CFC" d="M222.653,485.113c-0.217-1.605-0.368-3.23-0.368-4.895C222.285,481.883,222.437,483.506,222.653,485.113z"
			/>
		<path fill="#724CFC" d="M289.942,461.164c0.859,1.397,1.642,2.848,2.311,4.358c-4.502-1.987-9.467-3.11-14.696-3.11
			c-20.149,0-36.539,16.391-36.539,36.539c0,5.229,1.123,10.194,3.11,14.696c-1.519-0.671-2.972-1.455-4.373-2.318
			c5.559,3.421,12.077,5.431,19.069,5.431c20.149,0,36.539-16.393,36.539-36.541C295.363,473.232,293.357,466.722,289.942,461.164z"
			/>
		<path fill="#724CFC" d="M228.364,500.353c-0.85-1.279-1.595-2.634-2.283-4.021C226.767,497.721,227.514,499.071,228.364,500.353z"
			/>
		<path fill="#724CFC" d="M223.86,490.797c-0.441-1.453-0.764-2.953-1.021-4.478C223.096,487.844,223.419,489.344,223.86,490.797z"
			/>
	</g>
	<g>
		<path fill="#724CFC" d="M320.164,532.793c1.531,0.473,3.007,1.07,4.445,1.733C323.171,533.865,321.697,533.266,320.164,532.793z"
			/>
		<path fill="#724CFC" d="M325.529,534.97c1.384,0.686,2.734,1.429,4.014,2.278C328.262,536.4,326.913,535.655,325.529,534.97z"/>
		<path fill="#724CFC" d="M309.413,531.175c1.664,0,3.292,0.149,4.896,0.366C312.703,531.325,311.077,531.175,309.413,531.175z"/>
		<path fill="#724CFC" d="M333.991,540.755c2.404,2.196,4.521,4.7,6.271,7.463C338.51,545.455,336.399,542.951,333.991,540.755z"/>
		<path fill="#724CFC" d="M315.514,531.727c1.523,0.258,3.023,0.581,4.477,1.021C318.535,532.308,317.037,531.984,315.514,531.727z"
			/>
		<path fill="#724CFC" d="M329.608,537.289c1.351,0.902,2.627,1.907,3.843,2.977C332.233,539.196,330.961,538.189,329.608,537.289z"
			/>
		<path fill="#724CFC" d="M274.447,578.289c-0.441-1.453-0.764-2.953-1.021-4.476C273.683,575.336,274.008,576.836,274.447,578.289z
			"/>
		<path fill="#724CFC" d="M281.964,591.753c-1.068-1.217-2.073-2.492-2.976-3.843C279.891,589.261,280.896,590.532,281.964,591.753z
			"/>
		<path fill="#724CFC" d="M282.455,592.29c2.197,2.408,4.7,4.52,7.463,6.271C287.155,596.812,284.652,594.694,282.455,592.29z"/>
		<path fill="#724CFC" d="M340.531,548.658c0.857,1.397,1.642,2.847,2.311,4.358c-4.502-1.987-9.467-3.11-14.696-3.11
			c-20.148,0-36.539,16.391-36.539,36.539c0,5.229,1.123,10.194,3.11,14.696c-1.513-0.667-2.961-1.452-4.358-2.312
			c5.556,3.415,12.068,5.422,19.054,5.422c20.148,0,36.539-16.391,36.539-36.539C345.952,560.726,343.946,554.214,340.531,548.658z"
			/>
		<path fill="#724CFC" d="M278.949,587.843c-0.85-1.279-1.593-2.63-2.279-4.015C277.355,585.214,278.101,586.563,278.949,587.843z"
			/>
		<path fill="#724CFC" d="M276.227,582.911c-0.663-1.438-1.261-2.914-1.733-4.446C274.966,579.997,275.564,581.471,276.227,582.911z
			"/>
		<path fill="#724CFC" d="M273.242,572.608c-0.217-1.604-0.368-3.231-0.368-4.896C272.874,569.377,273.025,571.004,273.242,572.608z
			"/>
	</g>
	<g>
		<path fill="#724CFC" d="M426.706,534.971c1.383,0.687,2.731,1.428,4.007,2.275C429.436,536.4,428.089,535.655,426.706,534.971z"/>
		<path fill="#724CFC" d="M430.786,537.289c1.351,0.9,2.625,1.905,3.839,2.973C433.407,539.195,432.137,538.189,430.786,537.289z"/>
		<path fill="#724CFC" d="M421.341,532.793c1.532,0.473,3.006,1.07,4.444,1.733C424.345,533.863,422.873,533.266,421.341,532.793z"
			/>
		<path fill="#724CFC" d="M441.711,548.666c0.854,1.392,1.634,2.834,2.299,4.338C443.345,551.498,442.566,550.058,441.711,548.666z"
			/>
		<path fill="#724CFC" d="M416.689,531.727c1.522,0.258,3.022,0.581,4.475,1.021C419.71,532.308,418.212,531.984,416.689,531.727z"
			/>
		<path fill="#724CFC" d="M441.434,548.212c-1.75-2.761-3.859-5.261-6.263-7.453C437.571,542.953,439.686,545.453,441.434,548.212z"
			/>
		<path fill="#724CFC" d="M410.589,531.175c1.664,0,3.291,0.149,4.896,0.366C413.878,531.325,412.253,531.175,410.589,531.175z"/>
		<path fill="#724CFC" d="M383.14,591.753c-1.068-1.217-2.073-2.492-2.976-3.843C381.066,589.261,382.071,590.532,383.14,591.753z"
			/>
		<path fill="#724CFC" d="M374.418,572.608c-0.217-1.604-0.368-3.231-0.368-4.896C374.05,569.377,374.201,571.004,374.418,572.608z"
			/>
		<path fill="#724CFC" d="M444.016,553.017c-4.502-1.987-9.466-3.11-14.696-3.11c-20.148,0-36.539,16.391-36.539,36.539
			c0,5.229,1.123,10.194,3.11,14.696c-1.513-0.667-2.961-1.452-4.357-2.312c5.555,3.415,12.067,5.422,19.054,5.422
			c20.148,0,36.539-16.391,36.539-36.539C447.126,562.483,446.003,557.519,444.016,553.017z"/>
		<path fill="#724CFC" d="M383.631,592.29c2.197,2.408,4.7,4.52,7.463,6.271C388.331,596.812,385.828,594.694,383.631,592.29z"/>
		<path fill="#724CFC" d="M375.624,578.289c-0.44-1.453-0.764-2.953-1.021-4.476C374.858,575.336,375.184,576.836,375.624,578.289z"
			/>
		<path fill="#724CFC" d="M377.402,582.911c-0.663-1.438-1.259-2.914-1.733-4.446C376.142,579.997,376.741,581.471,377.402,582.911z
			"/>
		<path fill="#724CFC" d="M380.125,587.843c-0.851-1.279-1.594-2.63-2.279-4.015C378.531,585.214,379.276,586.563,380.125,587.843z"
			/>
	</g>
	<g>
		<path fill="#724CFC" d="M376.117,622.62c1.383,0.684,2.731,1.428,4.009,2.275C378.847,624.049,377.502,623.304,376.117,622.62z"/>
		<path fill="#724CFC" d="M370.753,620.444c1.531,0.473,3.005,1.07,4.443,1.733C373.758,621.515,372.284,620.917,370.753,620.444z"
			/>
		<path fill="#724CFC" d="M380.197,624.94c1.351,0.9,2.627,1.905,3.843,2.974C382.822,626.846,381.55,625.841,380.197,624.94z"/>
		<path fill="#724CFC" d="M366.101,619.375c1.522,0.258,3.024,0.581,4.477,1.022C369.124,619.958,367.623,619.633,366.101,619.375z"
			/>
		<path fill="#724CFC" d="M391.118,636.31c0.859,1.397,1.642,2.845,2.311,4.358c-4.502-1.988-9.467-3.11-14.696-3.11
			c-20.148,0-36.539,16.39-36.539,36.539c0,5.229,1.123,10.193,3.11,14.695c-1.513-0.669-2.961-1.451-4.357-2.311
			c5.555,3.415,12.067,5.421,19.054,5.421c20.146,0,36.539-16.39,36.539-36.539C396.539,648.377,394.535,641.865,391.118,636.31z"/>
		<path fill="#724CFC" d="M360.002,618.824c1.664,0,3.291,0.149,4.896,0.366C363.291,618.976,361.664,618.824,360.002,618.824z"/>
		<path fill="#724CFC" d="M384.578,628.403c2.404,2.197,4.521,4.7,6.271,7.463C389.097,633.104,386.986,630.601,384.578,628.403z"/>
		<path fill="#724CFC" d="M332.551,679.399c-1.068-1.216-2.073-2.49-2.974-3.843C330.478,676.911,331.482,678.182,332.551,679.399z"
			/>
		<path fill="#724CFC" d="M323.829,660.256c-0.217-1.604-0.366-3.229-0.366-4.895C323.463,657.026,323.612,658.651,323.829,660.256z
			"/>
		<path fill="#724CFC" d="M329.538,675.493c-0.849-1.279-1.594-2.63-2.279-4.014C327.942,672.863,328.688,674.212,329.538,675.493z"
			/>
		<path fill="#724CFC" d="M333.044,679.943c2.195,2.406,4.698,4.517,7.461,6.27C337.744,684.462,335.241,682.346,333.044,679.943z"
			/>
		<path fill="#724CFC" d="M326.814,670.561c-0.664-1.438-1.26-2.915-1.734-4.446C325.555,667.647,326.152,669.12,326.814,670.561z"
			/>
		<path fill="#724CFC" d="M325.035,665.94c-0.44-1.453-0.764-2.953-1.021-4.476C324.271,662.987,324.595,664.485,325.035,665.94z"/>
	</g>
	<g>
		<path fill="#724CFC" d="M370.753,445.299c1.531,0.473,3.005,1.07,4.443,1.733C373.758,446.369,372.284,445.771,370.753,445.299z"
			/>
		<path fill="#724CFC" d="M323.829,485.113c-0.217-1.605-0.366-3.23-0.366-4.895C323.463,481.883,323.612,483.506,323.829,485.113z"
			/>
		<path fill="#724CFC" d="M366.101,444.23c1.522,0.258,3.024,0.583,4.477,1.021C369.124,444.813,367.623,444.488,366.101,444.23z"/>
		<path fill="#724CFC" d="M376.117,447.478c1.383,0.686,2.731,1.429,4.009,2.275C378.847,448.904,377.502,448.161,376.117,447.478z"
			/>
		<path fill="#724CFC" d="M380.197,449.796c1.351,0.901,2.627,1.905,3.843,2.974C382.822,451.703,381.55,450.697,380.197,449.796z"
			/>
		<path fill="#724CFC" d="M360.002,443.68c1.664,0,3.291,0.151,4.896,0.368C363.291,443.831,361.664,443.68,360.002,443.68z"/>
		<path fill="#724CFC" d="M384.578,453.261c2.404,2.196,4.521,4.7,6.271,7.463C389.097,457.959,386.986,455.457,384.578,453.261z"/>
		<path fill="#724CFC" d="M332.555,504.261c-1.07-1.219-2.075-2.496-2.978-3.849C330.478,501.769,331.484,503.041,332.555,504.261z"
			/>
		<path fill="#724CFC" d="M333.038,504.793c2.201,2.411,4.708,4.526,7.477,6.282C337.748,509.323,335.239,507.201,333.038,504.793z"
			/>
		<path fill="#724CFC" d="M391.118,461.164c0.859,1.397,1.642,2.848,2.311,4.358c-4.502-1.987-9.467-3.11-14.696-3.11
			c-20.148,0-36.539,16.391-36.539,36.539c0,5.229,1.123,10.194,3.11,14.696c-1.519-0.671-2.972-1.455-4.373-2.318
			c5.56,3.421,12.077,5.431,19.069,5.431c20.146,0,36.539-16.393,36.539-36.541C396.539,473.232,394.535,466.722,391.118,461.164z"
			/>
		<path fill="#724CFC" d="M329.539,500.353c-0.852-1.279-1.595-2.634-2.282-4.021C327.942,497.721,328.689,499.071,329.539,500.353z
			"/>
		<path fill="#724CFC" d="M326.814,495.417c-0.664-1.438-1.26-2.914-1.734-4.448C325.555,492.503,326.152,493.977,326.814,495.417z"
			/>
		<path fill="#724CFC" d="M325.037,490.797c-0.44-1.453-0.764-2.953-1.023-4.478C324.271,487.844,324.597,489.344,325.037,490.797z"
			/>
	</g>
	<g>
		<path fill="#724CFC" d="M477.297,447.479c1.379,0.682,2.722,1.423,3.996,2.27C480.019,448.902,478.676,448.161,477.297,447.479z"
			/>
		<path fill="#724CFC" d="M467.278,444.232c1.519,0.258,3.018,0.579,4.467,1.02C470.294,444.813,468.799,444.49,467.278,444.232z"/>
		<path fill="#724CFC" d="M461.18,443.68c1.662,0,3.287,0.151,4.893,0.368C464.467,443.831,462.842,443.68,461.18,443.68z"/>
		<path fill="#724CFC" d="M471.93,445.301c1.53,0.473,3.004,1.068,4.438,1.729C474.932,446.369,473.46,445.771,471.93,445.301z"/>
		<path fill="#724CFC" d="M424.639,480.219c0-2.519,0.256-4.979,0.743-7.354C424.895,475.24,424.639,477.7,424.639,480.219z"/>
		<path fill="#724CFC" d="M481.375,449.797c1.347,0.9,2.619,1.902,3.833,2.969C483.994,451.699,482.726,450.696,481.375,449.797z"/>
		<path fill="#724CFC" d="M492.301,461.176c0.853,1.388,1.631,2.826,2.294,4.328C493.93,464.002,493.153,462.563,492.301,461.176z"
			/>
		<path fill="#724CFC" d="M492.021,460.716c-1.75-2.757-3.857-5.257-6.26-7.447C488.16,455.461,490.272,457.959,492.021,460.716z"/>
		<path fill="#724CFC" d="M430.719,500.36c-0.854-1.284-1.601-2.642-2.288-4.031C429.118,497.721,429.867,499.076,430.719,500.36z"
			/>
		<path fill="#724CFC" d="M434.21,504.789c2.203,2.415,4.714,4.532,7.483,6.288C438.924,509.323,436.413,507.201,434.21,504.789z"/>
		<path fill="#724CFC" d="M433.732,504.264c-1.072-1.22-2.079-2.497-2.983-3.852C431.653,501.767,432.662,503.042,433.732,504.264z"
			/>
		<path fill="#724CFC" d="M494.604,465.522c-4.502-1.987-9.466-3.11-14.694-3.11c-20.148,0-36.539,16.391-36.539,36.539
			c0,5.229,1.123,10.194,3.11,14.696c-1.521-0.671-2.976-1.457-4.379-2.322c5.562,3.423,12.079,5.435,19.075,5.435
			c20.148,0,36.539-16.393,36.539-36.541C497.715,474.99,496.59,470.024,494.604,465.522z"/>
		<path fill="#724CFC" d="M427.991,495.421c-0.663-1.44-1.261-2.918-1.735-4.452C426.73,492.503,427.328,493.979,427.991,495.421z"
			/>
		<path fill="#724CFC" d="M461.176,443.68L461.176,443.68c-17.631,0-32.383,12.549-35.796,29.185
			C428.795,456.229,443.549,443.68,461.176,443.68z"/>
		<path fill="#724CFC" d="M424.639,480.219c0,1.664,0.151,3.289,0.367,4.896C424.788,483.51,424.639,481.883,424.639,480.219z"/>
		<path fill="#724CFC" d="M425.189,486.319c0.258,1.528,0.583,3.032,1.025,4.489C425.772,489.352,425.449,487.846,425.189,486.319z"
			/>
	</g>
	<path fill="#3F2D20" d="M576.4,392.693c0-32.406-23.967-59.31-55.105-63.931c2.894-7.326,4.52-15.284,4.52-23.627
		c0-35.641-28.994-64.636-64.637-64.636c-20.471,0-38.723,9.59-50.574,24.49c-9.055-11.397-21.871-19.661-36.552-22.932v-58.663
		c-0.022-42.117,4.444-98.118,43.316-98.211c0.022,0,0.043,0,0.062,0c7.276,0,13.371,3.043,18.124,9.047
		c5.978,7.552,8.685,18.985,6.581,27.804c-1.805,7.545,2.858,15.124,10.405,16.925s15.125-2.856,16.924-10.405
		c4.095-17.156-0.569-37.473-11.875-51.76c-10.062-12.714-24.32-19.71-40.157-19.71c-0.041,0-0.086,0-0.127,0
		c-18.808,0.043-32.652,6.667-42.852,16.964c-0.974-2.651-2.064-5.313-3.331-7.977c-14.779-31.053-45.948-53.124-92.635-65.601
		c-4.375-1.164-9.039-0.142-12.536,2.728c-3.497,2.867-5.401,7.263-5.109,11.782c0.011,0.166,0.809,13.594-2.408,32.483
		c-18.598-5.203-49.948-7.975-82.966,15.355c-4.62,3.264-6.656,8.802-5.696,14.021l-0.011,0.002
		c0.021,0.112,0.045,0.219,0.067,0.329c0.013,0.062,0.024,0.124,0.036,0.183c7.451,39.405,31.676,59.189,48.549,68.419
		c-10.889,15.761-20.838,24.806-20.943,24.901c-3.385,3.021-5.105,7.489-4.616,12c0.49,4.51,3.127,8.505,7.082,10.73
		c28.084,15.787,54.203,23.702,78.06,23.702c11.928,0,23.295-1.98,34.049-5.946c14.021-5.171,25.18-13.106,33.911-21.548v52.442
		c-14.685,3.275-27.503,11.548-36.56,22.953c-11.847-14.909-30.089-24.511-50.568-24.511c-35.641,0-64.636,28.996-64.636,64.636
		c0,8.343,1.604,16.317,4.496,23.646c-31.124,4.633-55.085,31.518-55.085,63.912c0,32.388,23.95,59.284,55.068,63.921
		c-2.886,7.313-4.479,15.274-4.479,23.603c0,32.392,23.956,59.275,55.076,63.912c-2.881,7.312-4.487,15.26-4.487,23.582
		c0,32.412,23.982,59.322,55.13,63.932c-2.916,7.35-4.543,15.343-4.543,23.718c0,35.64,28.996,64.636,64.637,64.636
		s64.637-28.996,64.637-64.636c0-8.373-1.612-16.372-4.526-23.719c31.141-4.622,55.113-31.527,55.113-63.931
		c0-8.328-1.604-16.28-4.485-23.596c31.116-4.635,55.074-31.508,55.074-63.9c0-8.339-1.614-16.303-4.504-23.627
		C552.438,451.962,576.4,425.089,576.4,392.693z M511.765,429.23c-6.194,0-12.03-1.561-17.147-4.293
		c-0.056-0.036-0.109-0.073-0.164-0.108c-0.022,0-0.043-0.002-0.062-0.004c-11.404-6.19-19.164-18.271-19.164-32.132
		c0-20.149,16.39-36.542,36.539-36.542c20.148,0,36.539,16.392,36.539,36.542C548.302,412.84,531.911,429.23,511.765,429.23z
		 M424.639,480.219c0-20.147,16.39-36.539,36.537-36.539c20.148,0,36.539,16.39,36.539,36.539c0,20.148-16.391,36.541-36.539,36.541
		C441.028,516.76,424.639,500.367,424.639,480.219z M410.589,604.252c-20.147,0-36.539-16.391-36.539-36.539
		c0-20.147,16.39-36.539,36.539-36.539c20.148,0,36.537,16.39,36.537,36.539C447.126,587.861,430.737,604.252,410.589,604.252z
		 M258.824,516.76c-20.149,0-36.539-16.393-36.539-36.541c0-20.147,16.391-36.539,36.539-36.539
		c20.149,0,36.539,16.39,36.539,36.539C295.363,500.367,278.973,516.76,258.824,516.76z M208.237,429.23
		c-20.147,0-36.539-16.391-36.539-36.537c0-20.149,16.391-36.542,36.539-36.542c20.149,0,36.539,16.392,36.539,36.542
		C244.776,412.84,228.384,429.23,208.237,429.23z M302.055,184.898c-20.294,7.379-44.529,4.756-72.225-7.782
		c6.374-7.603,14.142-18.023,21.412-30.86c2.157-3.811,2.464-8.395,0.749-12.42c-1.719-4.026-5.164-7.009-9.408-8.091
		c-1.403-0.381-32.076-9.118-42.977-44.923c32.811-18.014,60.856-2.847,62.046-2.184c3.792,2.191,8.391,2.488,12.426,0.805
		c4.042-1.683,7.068-5.156,8.184-9.389c3.762-14.268,5.483-27.148,6.232-37.042c28.58,10.372,47.94,25.342,57.125,44.88
		c13.259,28.198,0.405,62.856,0.362,62.974C345.864,141.191,333.354,173.512,302.055,184.898z M360.002,268.596
		c20.146,0,36.539,16.39,36.539,36.539s-16.391,36.539-36.539,36.539s-36.539-16.39-36.539-36.539S339.854,268.596,360.002,268.596z
		 M461.176,341.674c-20.147,0-36.537-16.39-36.537-36.539c0-20.147,16.39-36.539,36.537-36.539c20.148,0,36.539,16.39,36.539,36.539
		C497.715,325.282,481.324,341.674,461.176,341.674z M447.126,392.693c0,20.146-16.391,36.537-36.537,36.537
		c-20.147,0-36.539-16.391-36.539-36.537c0-20.149,16.39-36.542,36.539-36.542C430.737,356.152,447.126,372.546,447.126,392.693z
		 M396.539,480.219c0,20.148-16.391,36.541-36.539,36.541s-36.539-16.393-36.539-36.541c0-20.147,16.391-36.539,36.539-36.539
		S396.539,460.071,396.539,480.219z M345.952,392.693c0,20.146-16.391,36.537-36.539,36.537c-20.149,0-36.539-16.391-36.539-36.537
		c0-20.149,16.39-36.542,36.539-36.542C329.562,356.152,345.952,372.546,345.952,392.693z M295.363,305.135
		c0,20.149-16.39,36.539-36.539,36.539c-20.148,0-36.539-16.39-36.539-36.539c0-20.147,16.391-36.539,36.539-36.539
		C278.973,268.596,295.363,284.986,295.363,305.135z M309.413,531.175c20.148,0,36.539,16.391,36.539,36.54
		c0,20.148-16.391,36.539-36.539,36.539c-20.149,0-36.539-16.391-36.539-36.539C272.874,547.565,289.264,531.175,309.413,531.175z
		 M360.002,618.824c20.146,0,36.539,16.391,36.539,36.539c0,20.147-16.391,36.539-36.539,36.539s-36.539-16.39-36.539-36.539
		C323.463,635.215,339.854,618.824,360.002,618.824z"/>
</g>
</svg>
