<?xml version="1.0" encoding="utf-8"?>
<!-- Generator: Adobe Illustrator 15.1.0, SVG Export Plug-In . SVG Version: 6.00 Build 0)  -->
<!DOCTYPE svg PUBLIC "-//W3C//DTD SVG 1.1//EN" "http://www.w3.org/Graphics/SVG/1.1/DTD/svg11.dtd">
<svg version="1.1" id="Capa_1" xmlns="http://www.w3.org/2000/svg" xmlns:xlink="http://www.w3.org/1999/xlink" x="0px" y="0px"
	 width="720px" height="720px" viewBox="0 0 720 720" enable-background="new 0 0 720 720" xml:space="preserve">
<g>
	<g>
		<path fill="#52785B" d="M434.429,153.067c-2.665-2.166-5.387-4.256-8.133-6.321C491.135,195.421,533.195,272.868,533.195,360
			c0,100.442-55.84,188.073-138.098,233.518c99.511-0.371,283.728-47.553,291.464-222.136
			C678.931,218.987,536.263,164.322,434.429,153.067z"/>
		<path fill="#EF8829" d="M408.305,134.357c-4.329-2.735-8.713-5.393-13.209-7.875C399.592,128.967,403.974,131.629,408.305,134.357
			z"/>
		<path fill="#EF8829" d="M422.195,143.754c-3.254-2.353-6.563-4.632-9.924-6.84C415.638,139.12,418.939,141.406,422.195,143.754z"
			/>
	</g>
	<g>
		<path fill="#84BD93" d="M323.889,133.605c1.734,0.44,3.444,0.939,5.162,1.416C327.331,134.544,325.621,134.045,323.889,133.605z"
			/>
		<path fill="#84BD93" d="M334.77,136.648c1.743,0.534,3.46,1.121,5.184,1.693C338.228,137.77,336.511,137.183,334.77,136.648z"/>
		<path fill="#84BD93" d="M345.435,140.201c1.73,0.622,3.434,1.293,5.145,1.955C348.868,141.494,347.165,140.823,345.435,140.201z"
			/>
		<path fill="#84BD93" d="M301.502,129.092c1.668,0.251,3.313,0.572,4.971,0.857C304.815,129.664,303.171,129.343,301.502,129.092z"
			/>
		<path fill="#84BD93" d="M290.028,127.649c1.574,0.159,3.126,0.389,4.692,0.579C293.157,128.039,291.604,127.808,290.028,127.649z"
			/>
		<path fill="#84BD93" d="M355.869,144.245c1.715,0.712,3.407,1.468,5.103,2.223C359.276,145.715,357.584,144.957,355.869,144.245z"
			/>
		<path fill="#84BD93" d="M312.79,131.082c1.713,0.345,3.403,0.756,5.103,1.139C316.193,131.836,314.505,131.427,312.79,131.082z"/>
		<path fill="#84BD93" d="M33.537,374.137c-0.281-4.681-0.468-9.386-0.468-14.137C33.071,364.749,33.258,369.456,33.537,374.137z"/>
		<path fill="#84BD93" d="M404.002,171.34c1.548,1.13,3.081,2.282,4.6,3.45C407.08,173.622,405.55,172.472,404.002,171.34z"/>
		<path fill="#84BD93" d="M412.733,178.039c1.499,1.207,2.983,2.429,4.452,3.671C415.717,180.468,414.232,179.246,412.733,178.039z"
			/>
		<path fill="#84BD93" d="M421.143,185.138c1.442,1.275,2.871,2.563,4.28,3.874C424.014,187.704,422.585,186.416,421.143,185.138z"
			/>
		<path fill="#84BD93" d="M375.962,153.747c1.664,0.886,3.309,1.807,4.949,2.733C379.269,155.554,377.626,154.633,375.962,153.747z"
			/>
		<path fill="#84BD93" d="M366.037,148.76c1.697,0.803,3.373,1.643,5.046,2.484C369.407,150.403,367.734,149.563,366.037,148.76z"/>
		<path fill="#84BD93" d="M385.601,159.18c1.629,0.969,3.24,1.967,4.843,2.977C388.841,161.147,387.231,160.149,385.601,159.18z"/>
		<path fill="#84BD93" d="M394.953,165.05c1.592,1.051,3.164,2.126,4.727,3.216C398.117,167.176,396.545,166.101,394.953,165.05z"/>
		<path fill="#84BD93" d="M278.396,126.772c1.308,0.066,2.599,0.2,3.902,0.288C280.994,126.975,279.704,126.838,278.396,126.772z"/>
		<path fill="#84BD93" d="M97.379,520.679c-2.381-2.506-4.707-5.065-6.978-7.678C92.672,515.613,94.996,518.173,97.379,520.679z"/>
		<path fill="#84BD93" d="M99.736,523.152c3.091,3.161,6.246,6.26,9.511,9.243C105.982,529.412,102.828,526.312,99.736,523.152z"/>
		<path fill="#84BD93" d="M79.782,499.959c-2.713-3.609-5.299-7.318-7.803-11.087C74.483,492.641,77.069,496.35,79.782,499.959z"/>
		<path fill="#84BD93" d="M88.128,510.379c-2.81-3.331-5.554-6.719-8.177-10.204C82.574,503.662,85.318,507.05,88.128,510.379z"/>
		<path fill="#84BD93" d="M119.691,541.353c-3.551-2.883-7.031-5.845-10.406-8.925C112.66,535.509,116.14,538.472,119.691,541.353z"
			/>
		<path fill="#84BD93" d="M34.861,388.416c-0.407-3.328-0.737-6.679-1-10.049C34.124,381.737,34.454,385.086,34.861,388.416z"/>
		<path fill="#84BD93" d="M143.178,558.118c-3.327-2.079-6.594-4.245-9.806-6.485C136.584,553.873,139.852,556.036,143.178,558.118z
			"/>
		<path fill="#84BD93" d="M130.561,549.632c-2.917-2.1-5.782-4.265-8.599-6.492C124.778,545.369,127.643,547.532,130.561,549.632z"
			/>
		<path fill="#84BD93" d="M426.885,190.406c-35.544-21.885-77.354-34.535-122.069-34.535c-128.769,0-233.531,104.76-233.531,233.527
			c0,66.628,28.056,126.82,72.964,169.407c35.606,21.994,77.515,34.725,122.353,34.725c128.766,0,233.525-104.761,233.525-233.527
			C500.124,293.253,471.932,233.006,426.885,190.406z M345.487,257.733l19.692-19.695c6.46-6.459,16.93-6.457,23.385-0.002
			c6.459,6.457,6.459,16.927,0.002,23.384l-19.693,19.695c-3.229,3.23-7.462,4.844-11.691,4.844c-4.23,0-8.465-1.614-11.69-4.841
			C339.03,274.66,339.03,264.19,345.487,257.733z M251.966,204.05c0-9.133,5.158-16.533,14.291-16.533s14.291,7.402,14.291,16.533
			v27.852c0,9.133-5.158,16.536-14.291,16.536s-14.291-7.403-14.291-16.536V204.05z M144.631,238.036
			c6.459-6.455,16.927-6.455,23.386,0l19.69,19.69c6.458,6.459,6.458,16.927,0,23.386c-3.229,3.228-7.462,4.841-11.692,4.841
			s-8.464-1.614-11.692-4.841l-19.69-19.69C138.174,254.963,138.174,244.493,144.631,238.036z M110.648,378.334
			c-9.133,0-16.533-8.455-16.533-17.589c0-9.133,7.402-17.588,16.533-17.588h27.85c9.133,0,16.535,8.456,16.535,17.588
			c0,9.134-7.402,17.589-16.535,17.589H110.648z M187.708,462.271l-19.69,19.692c-3.229,3.229-7.462,4.844-11.692,4.844
			s-8.464-1.616-11.69-4.841c-6.459-6.458-6.459-16.928-0.002-23.385l19.69-19.692c6.459-6.46,16.929-6.457,23.384-0.002
			C194.166,445.345,194.166,455.814,187.708,462.271z M280.548,515.952c0,9.133-5.158,16.535-14.291,16.535
			s-14.291-7.402-14.291-16.535v-27.852c0-9.133,5.158-16.536,14.291-16.536s14.291,7.403,14.291,16.536V515.952z M266.6,454.323
			c-52.01,0-94.324-42.312-94.324-94.323s42.312-94.323,94.324-94.323c52.007,0,94.321,42.313,94.321,94.323
			S318.609,454.323,266.6,454.323z M388.563,481.966c-3.228,3.228-7.459,4.842-11.689,4.842c-4.232,0-8.465-1.616-11.692-4.844
			l-19.692-19.694c-6.457-6.458-6.457-16.928,0.002-23.385c6.458-6.457,16.927-6.455,23.385,0.003l19.692,19.694
			C395.021,465.039,395.021,475.512,388.563,481.966z M422.548,378.334h-27.853c-9.133,0-16.533-8.455-16.533-17.589
			c0-9.133,7.403-17.588,16.533-17.588h27.853c9.133,0,16.535,8.456,16.535,17.588C439.083,369.879,431.681,378.334,422.548,378.334
			z"/>
		<path fill="#84BD93" d="M40.843,419.727c-1.163-4.391-2.216-8.825-3.126-13.314C38.627,410.899,39.68,415.334,40.843,419.727z"/>
		<path fill="#84BD93" d="M70.181,486.068c-1.851-2.873-3.643-5.788-5.369-8.745C66.538,480.282,68.33,483.195,70.181,486.068z"/>
		<path fill="#84BD93" d="M44.8,432.946c-1.066-3.231-2.056-6.496-2.981-9.79C42.747,426.45,43.736,429.715,44.8,432.946z"/>
		<path fill="#84BD93" d="M37.314,404.17c-0.724-3.769-1.359-7.568-1.9-11.396C35.956,396.602,36.591,400.401,37.314,404.17z"/>
		<path fill="#84BD93" d="M49.873,446.813c-1.306-3.25-2.548-6.532-3.709-9.853C47.324,440.281,48.564,443.563,49.873,446.813z"/>
		<path fill="#84BD93" d="M62.855,473.929c-1.803-3.213-3.528-6.473-5.184-9.775C59.327,467.456,61.052,470.714,62.855,473.929z"/>
		<path fill="#84BD93" d="M56.559,461.979c-1.97-4.038-3.819-8.146-5.558-12.31C52.74,453.833,54.588,457.94,56.559,461.979z"/>
	</g>
	<g>
		<path fill="#FDD44B" d="M283.612,301.201c4.677,1.356,9.12,3.25,13.264,5.622C292.73,304.453,288.291,302.558,283.612,301.201z"/>
		<path fill="#FDD44B" d="M298.458,307.786c1.6,0.982,3.155,2.031,4.654,3.152C301.612,309.817,300.06,308.767,298.458,307.786z"/>
		<path fill="#FDD44B" d="M276.238,299.583c1.814,0.288,3.602,0.655,5.358,1.099C279.837,300.236,278.055,299.871,276.238,299.583z"
			/>
		<path fill="#FDD44B" d="M218.581,397.908c2.99,3.779,6.409,7.189,10.193,10.173C224.99,405.1,221.571,401.683,218.581,397.908z"/>
		<path fill="#FDD44B" d="M314.683,322.18c-2.985-3.789-6.399-7.211-10.182-10.204C308.28,314.969,311.699,318.392,314.683,322.18z"
			/>
		<path fill="#FDD44B" d="M266.6,298.748c2.542,0,5.032,0.205,7.493,0.506C271.632,298.952,269.142,298.748,266.6,298.748z"/>
		<path fill="#FDD44B" d="M315.633,323.446c1.176,1.577,2.279,3.21,3.305,4.896C317.912,326.654,316.812,325.025,315.633,323.446z"
			/>
		<path fill="#FDD44B" d="M234.936,412.333c-1.682-1.022-3.309-2.12-4.879-3.294C231.627,410.213,233.254,411.311,234.936,412.333z"
			/>
		<path fill="#FDD44B" d="M217.532,396.505c-1.114-1.495-2.163-3.042-3.142-4.639C215.369,393.465,216.415,395.01,217.532,396.505z"
			/>
		<path fill="#FDD44B" d="M319.407,329.119c-9.047-5.281-19.552-8.326-30.762-8.326c-33.772,0-61.252,27.478-61.252,61.252
			c0,11.209,3.045,21.716,8.326,30.763c9.08,5.332,19.613,8.442,30.881,8.442c33.774,0,61.25-27.478,61.25-61.252
			C327.851,348.732,324.739,338.199,319.407,329.119z"/>
		<path fill="#FDD44B" d="M207.282,374.996c-0.444-1.756-0.812-3.543-1.1-5.357C206.471,371.455,206.838,373.238,207.282,374.996z"
			/>
		<path fill="#FDD44B" d="M213.42,390.272c-2.37-4.143-4.263-8.585-5.62-13.26C209.158,381.689,211.051,386.128,213.42,390.272z"/>
		<path fill="#FDD44B" d="M205.855,367.492c-0.301-2.459-0.506-4.951-0.506-7.49C205.348,362.541,205.552,365.03,205.855,367.492z"
			/>
	</g>
	<path fill="#3F2D20" d="M266.6,454.323c52.007,0,94.321-42.312,94.321-94.323s-42.313-94.323-94.321-94.323
		c-52.01,0-94.324,42.312-94.324,94.323S214.59,454.323,266.6,454.323z M327.851,360c0,33.774-27.479,61.253-61.25,61.253
		c-33.772,0-61.252-27.479-61.252-61.253s27.478-61.252,61.252-61.252C300.375,298.748,327.851,326.226,327.851,360z"/>
	<path fill="#3F2D20" d="M266.6,248.438c9.133,0,16.535-7.403,16.535-16.536V204.05c0-9.133-7.402-16.536-16.535-16.536
		c-9.133,0-16.536,7.403-16.536,16.536v27.852C250.064,241.035,257.467,248.438,266.6,248.438z"/>
	<path fill="#3F2D20" d="M266.6,471.567c-9.133,0-16.536,7.402-16.536,16.535v27.852c0,9.133,7.402,16.535,16.535,16.535
		c9.133,0,16.536-7.402,16.536-16.535v-27.852C283.135,478.968,275.733,471.567,266.6,471.567z"/>
	<path fill="#3F2D20" d="M94.112,360c0,9.133,7.403,16.535,16.536,16.535h27.85c9.133,0,16.535-7.402,16.535-16.535
		s-7.402-16.536-16.535-16.536h-27.85C101.515,343.464,94.112,350.867,94.112,360z"/>
	<path fill="#3F2D20" d="M378.162,360c0,9.133,7.403,16.535,16.536,16.535h27.852c9.133,0,16.535-7.402,16.535-16.535
		s-7.402-16.536-16.535-16.536h-27.852C385.565,343.464,378.162,350.867,378.162,360z"/>
	<path fill="#3F2D20" d="M164.322,438.89l-19.69,19.692c-6.457,6.457-6.457,16.927,0.002,23.384
		c3.228,3.228,7.459,4.842,11.689,4.842c4.23,0,8.465-1.614,11.692-4.844l19.69-19.692c6.457-6.457,6.457-16.927-0.002-23.384
		C181.251,432.435,170.781,432.43,164.322,438.89z"/>
	<path fill="#3F2D20" d="M357.18,285.958c4.229,0,8.464-1.614,11.691-4.844l19.692-19.695c6.458-6.457,6.458-16.927-0.002-23.384
		c-6.455-6.455-16.925-6.458-23.384,0.002l-19.692,19.695c-6.458,6.458-6.458,16.927,0.002,23.384
		C348.715,284.345,352.949,285.958,357.18,285.958z"/>
	<path fill="#3F2D20" d="M164.322,281.113c3.23,3.228,7.462,4.841,11.692,4.841c4.23,0,8.464-1.614,11.692-4.841
		c6.457-6.459,6.457-16.927,0-23.386l-19.69-19.69c-6.459-6.455-16.927-6.455-23.386,0c-6.458,6.459-6.458,16.927,0,23.386
		L164.322,281.113z"/>
	<path fill="#3F2D20" d="M368.871,438.888c-6.457-6.458-16.927-6.46-23.384-0.003c-6.46,6.457-6.46,16.927-0.002,23.385
		l19.692,19.694c3.229,3.229,7.46,4.844,11.694,4.844c4.229,0,8.464-1.614,11.689-4.841c6.46-6.458,6.46-16.928,0.002-23.385
		L368.871,438.888z"/>
	<path fill="#3F2D20" d="M599.426,147.721c-56.446-34.01-133.278-54.316-205.526-54.316H266.602C119.596,93.404,0,212.999,0,360
		c0,146.999,119.594,266.591,266.596,266.596h127.302c72.248,0,149.079-20.307,205.525-54.316C678.304,524.753,720,451.349,720,360
		S678.306,195.247,599.426,147.721z M500.124,360c0,128.767-104.758,233.526-233.524,233.526
		c-128.769,0-233.531-104.76-233.531-233.526S137.831,126.474,266.6,126.474C395.366,126.474,500.124,231.233,500.124,360z
		 M533.195,360c0-100.442-55.84-188.073-138.098-233.518C496.754,126.86,686.931,176.001,686.931,360
		S496.754,593.138,395.098,593.518C477.355,548.073,533.195,460.442,533.195,360z"/>
</g>
</svg>
