<?xml version="1.0" encoding="utf-8"?>
<!-- Generator: Adobe Illustrator 15.1.0, SVG Export Plug-In . SVG Version: 6.00 Build 0)  -->
<!DOCTYPE svg PUBLIC "-//W3C//DTD SVG 1.1//EN" "http://www.w3.org/Graphics/SVG/1.1/DTD/svg11.dtd">
<svg version="1.1" id="Capa_1" xmlns="http://www.w3.org/2000/svg" xmlns:xlink="http://www.w3.org/1999/xlink" x="0px" y="0px"
	 width="720px" height="720px" viewBox="0 0 720 720" enable-background="new 0 0 720 720" xml:space="preserve">
<g>
	<path fill="#FDD44B" d="M29.793,303.778c0,7.132,4.676,13.599,11.797,17.812c-0.651-5.876-0.99-11.819-0.99-17.816
		c0-5.994,0.345-11.944,0.99-17.84C34.466,290.157,29.793,296.64,29.793,303.778z"/>
	<path fill="#FDD44B" d="M564.392,303.778c0-7.25-4.829-13.823-12.15-18.038c0.662,5.959,1.015,11.975,1.015,18.034
		c0,6.053-0.351,12.062-1.015,18.022C559.563,317.587,564.392,311.027,564.392,303.778z"/>
	<path fill="#FDD44B" d="M672.529,459.728c-47.042,62.037-124.265,101.205-209.197,101.205c-83.998,0-160.431-38.326-207.596-99.192
		c34.854,74.472,114.936,126.7,207.935,126.7C557.504,588.44,638.184,535.268,672.529,459.728z"/>
	<path fill="#FDD44B" d="M478.568,410.868v119.758c43.389-2.697,83.939-16.81,117.706-39.505L478.568,410.868z"/>
	<path fill="#FDD44B" d="M448.774,410.868L330.72,491.357c33.878,22.675,74.555,36.724,118.055,39.309V410.868z"/>
	<path fill="#FDD44B" d="M505.729,393.331l115.264,78.59c24.093-21.631,43.113-48.323,55.039-78.59H505.729L505.729,393.331z"/>
	<path fill="#FDD44B" d="M421.611,393.331H250.619c11.973,30.39,31.104,57.175,55.344,78.854L421.611,393.331z"/>
	<g>
		<path fill="#FDD44B" d="M480.451,202.993c-1.647-1.729-3.343-3.432-5.072-5.112C477.108,199.561,478.804,201.264,480.451,202.993z
			"/>
		<path fill="#FDD44B" d="M367.532,140.169c3.074,0.769,6.129,1.573,9.144,2.438C373.661,141.742,370.608,140.938,367.532,140.169z"
			/>
		<path fill="#FDD44B" d="M392.353,147.637c2.608,0.925,5.182,1.896,7.734,2.892C397.532,149.532,394.959,148.562,392.353,147.637z"
			/>
		<path fill="#FDD44B" d="M352.749,136.861c4.072,0.789,8.103,1.658,12.084,2.611C360.852,138.521,356.823,137.65,352.749,136.861z"
			/>
		<path fill="#FDD44B" d="M380.615,143.79c2.599,0.788,5.176,1.608,7.727,2.466C385.791,145.398,383.214,144.58,380.615,143.79z"/>
		<path fill="#FDD44B" d="M340.367,134.77c3.163,0.469,6.299,1.002,9.412,1.571C346.666,135.772,343.532,135.239,340.367,134.77z"/>
		<path fill="#FDD44B" d="M314.098,132.104c2.979,0.17,5.948,0.373,8.894,0.63C320.046,132.477,317.078,132.274,314.098,132.104z"/>
		<path fill="#FDD44B" d="M327.592,133.18c2.824,0.291,5.631,0.626,8.422,0.996C333.223,133.808,330.418,133.473,327.592,133.18z"/>
		<path fill="#FDD44B" d="M427.5,163.175c2.391,1.288,4.756,2.599,7.077,3.952C432.256,165.773,429.891,164.462,427.5,163.175z"/>
		<path fill="#FDD44B" d="M466.416,189.685c2.215,1.897,4.382,3.829,6.485,5.799C470.798,193.513,468.631,191.584,466.416,189.685z"
			/>
		<path fill="#FDD44B" d="M296.929,131.559c4.392,0,8.747,0.119,13.077,0.307C305.674,131.678,301.32,131.559,296.929,131.559z"/>
		<polygon fill="#FDD44B" points="155.853,212.084 155.851,212.084 155.876,212.086 		"/>
		<path fill="#FDD44B" d="M447.447,175.218c2.348,1.59,4.641,3.225,6.898,4.886C452.086,178.444,449.795,176.808,447.447,175.218z"
			/>
		<path fill="#FDD44B" d="M403.492,151.857c3.545,1.442,7.043,2.941,10.474,4.52C410.537,154.799,407.037,153.301,403.492,151.857z"
			/>
		<path fill="#FDD44B" d="M437.904,169.117c2.181,1.323,4.326,2.676,6.441,4.056C442.23,171.793,440.085,170.44,437.904,169.117z"/>
		<path fill="#FDD44B" d="M414.195,156.479c3.528,1.63,6.98,3.345,10.379,5.114C421.176,159.824,417.726,158.108,414.195,156.479z"
			/>
		<path fill="#FDD44B" d="M456.412,181.604c2.919,2.202,5.766,4.464,8.526,6.784C462.178,186.066,459.331,183.806,456.412,181.604z"
			/>
		<path fill="#FDD44B" d="M77.771,347.278c-0.677-1.971-1.307-3.955-1.896-5.952C76.462,343.323,77.092,345.307,77.771,347.278z"/>
		<path fill="#FDD44B" d="M222.235,365.713h287.141c9.349-19.808,14.086-40.246,14.086-60.851
			c0-37.077-15.544-71.968-41.865-100.102c-40.426-28.463-94.474-46.166-153.787-46.166c-36.943,0-72.209,6.625-103.053,18.601
			c-0.947-0.19-3.252-0.349-3.252-0.349v-0.038c5.942,0,8.128,1.573,10.91,4.332c2.759,2.781,4.53,6.604,4.53,10.536
			c0,3.914-1.5,7.742-4.258,10.523c-2.781,2.781-6.568,4.365-10.502,4.365c-3.912,0-7.723-1.59-10.503-4.37
			c-2.779-2.781-4.357-6.613-4.357-10.529c0-2.874,0.874-5.687,2.417-8.083c-0.014,0.02-0.03,0.036-0.042,0.056
			c-17.669,8.239-33.739,18.273-47.782,29.76c-0.038-0.018-0.082-0.024-0.119-0.04c1.691,0.739,3.262,1.763,4.583,3.074
			c2.759,2.779,4.35,6.614,4.35,10.545c0,3.912-1.589,7.747-4.35,10.525c-2.781,2.781-6.614,4.369-10.527,4.369
			c-3.932,0-7.767-1.588-10.545-4.369c-1.737-1.749-2.943-3.938-3.65-6.279c0.099,0.327,0.159,0.667,0.279,0.986
			c-25.61,27.898-40.658,61.795-40.658,98.321c0,36.799,15.384,71.293,41.84,99.613c-2.706-1.906-5.342-3.867-7.921-5.867
			c24.787,19.238,55.556,34.161,90.363,42.93c-11.745-27.473-18.218-56.343-18.218-87.691
			C207.338,371.294,214.007,365.713,222.235,365.713z M427.48,216.434c2.778-2.761,6.611-4.35,10.525-4.35
			c3.932,0,7.766,1.589,10.545,4.35c2.761,2.779,4.369,6.614,4.369,10.545c0,3.912-1.608,7.747-4.369,10.525
			c-2.779,2.781-6.613,4.369-10.545,4.369c-3.914,0-7.747-1.588-10.525-4.369c-2.764-2.779-4.37-6.614-4.37-10.525
			C423.108,223.049,424.717,219.215,427.48,216.434z M361.081,181.12c2.781-2.761,6.614-4.352,10.548-4.352
			c3.911,0,7.766,1.59,10.525,4.352c2.778,2.781,4.369,6.613,4.369,10.545c0,3.914-1.591,7.767-4.369,10.527
			c-2.762,2.781-6.614,4.368-10.525,4.368c-3.934,0-7.767-1.588-10.548-4.368c-2.761-2.781-4.35-6.613-4.35-10.527
			C356.731,187.733,358.32,183.901,361.081,181.12z M286.401,166.045c2.761-2.781,6.596-4.369,10.527-4.369
			c3.934,0,7.767,1.588,10.525,4.369c2.781,2.759,4.369,6.614,4.369,10.525c0,3.912-1.588,7.767-4.369,10.525
			c-2.761,2.781-6.613,4.37-10.525,4.37c-3.932,0-7.766-1.588-10.527-4.37c-2.781-2.761-4.369-6.592-4.369-10.525
			C282.032,172.641,283.621,168.806,286.401,166.045z"/>
		<path fill="#FDD44B" d="M112.182,403.333c-1.787-1.913-3.52-3.858-5.203-5.827C108.663,399.475,110.396,401.418,112.182,403.333z"
			/>
		<path fill="#FDD44B" d="M105.65,395.934c-1.63-1.953-3.213-3.93-4.74-5.934C102.439,392.004,104.02,393.98,105.65,395.934z"/>
		<path fill="#FDD44B" d="M126.394,417.036c-2.161-1.88-4.274-3.791-6.324-5.74C122.121,413.247,124.235,415.156,126.394,417.036z"
			/>
		<path fill="#FDD44B" d="M100.118,388.978c-1.789-2.383-3.506-4.8-5.146-7.247C96.612,384.18,98.329,386.595,100.118,388.978z"/>
		<path fill="#FDD44B" d="M134.148,423.449c-2.141-1.684-4.235-3.4-6.283-5.149C129.913,420.049,132.007,421.766,134.148,423.449z"
			/>
		<path fill="#FDD44B" d="M159.461,212.591c-0.192-0.05-0.375-0.133-0.571-0.174C159.087,212.458,159.269,212.542,159.461,212.591z"
			/>
		<path fill="#FDD44B" d="M112.96,404.182c2.135,2.258,4.336,4.476,6.61,6.652C117.296,408.659,115.096,406.439,112.96,404.182z"/>
		<path fill="#FDD44B" d="M141.229,229.714c-0.148-0.785-0.22-1.583-0.24-2.385C141.009,228.134,141.077,228.932,141.229,229.714z"
			/>
		<path fill="#FDD44B" d="M73.133,330.428c-0.501-2.436-0.925-4.888-1.289-7.354C72.208,325.538,72.632,327.992,73.133,330.428z"/>
		<path fill="#FDD44B" d="M94.382,380.814c-1.376-2.085-2.694-4.196-3.959-6.328C91.688,376.618,93.005,378.729,94.382,380.814z"/>
		<path fill="#FDD44B" d="M75.249,339.197c-0.735-2.654-1.407-5.326-1.977-8.02C73.842,333.871,74.514,336.541,75.249,339.197z"/>
		<path fill="#FDD44B" d="M70.683,312.091c-0.174-2.759-0.291-5.528-0.291-8.317C70.392,306.561,70.508,309.33,70.683,312.091z"/>
		<path fill="#FDD44B" d="M71.511,320.574c-0.257-1.994-0.465-4.001-0.632-6.013C71.045,316.573,71.255,318.578,71.511,320.574z"/>
		<path fill="#FDD44B" d="M89.288,372.535c-1.127-1.963-2.205-3.943-3.237-5.939C87.083,368.592,88.161,370.572,89.288,372.535z"/>
		<path fill="#FDD44B" d="M85.195,364.957c-1.27-2.531-2.472-5.088-3.585-7.672C82.724,359.869,83.926,362.424,85.195,364.957z"/>
		<path fill="#FDD44B" d="M81.218,356.322c-0.945-2.236-1.824-4.492-2.65-6.764C79.394,351.83,80.273,354.085,81.218,356.322z"/>
	</g>
	<path fill="#3F2D20" d="M296.929,191.469c3.912,0,7.767-1.588,10.525-4.37c2.781-2.761,4.369-6.613,4.369-10.525
		c0-3.912-1.588-7.766-4.369-10.525c-2.761-2.781-6.594-4.369-10.525-4.369s-7.766,1.588-10.527,4.369
		c-2.781,2.761-4.369,6.594-4.369,10.525c0,3.934,1.588,7.767,4.369,10.525C289.161,189.879,292.997,191.469,296.929,191.469z"/>
	<path fill="#3F2D20" d="M155.851,241.878c3.914,0,7.746-1.589,10.527-4.37c2.761-2.779,4.35-6.614,4.35-10.525
		c0-3.932-1.589-7.766-4.35-10.545c-2.781-2.761-6.614-4.35-10.527-4.35c-3.932,0-7.786,1.589-10.545,4.35
		c-2.761,2.779-4.352,6.614-4.352,10.545c0,3.912,1.59,7.747,4.352,10.525C148.084,240.289,151.919,241.878,155.851,241.878z"/>
	<path fill="#3F2D20" d="M438.006,241.878c3.932,0,7.766-1.589,10.545-4.37c2.761-2.779,4.369-6.614,4.369-10.525
		c0-3.932-1.608-7.766-4.369-10.545c-2.779-2.761-6.613-4.35-10.545-4.35c-3.914,0-7.747,1.589-10.525,4.35
		c-2.764,2.779-4.37,6.614-4.37,10.545c0,3.912,1.608,7.747,4.37,10.525C430.259,240.289,434.092,241.878,438.006,241.878z"/>
	<path fill="#3F2D20" d="M371.629,206.562c3.911,0,7.766-1.588,10.525-4.368c2.778-2.761,4.369-6.613,4.369-10.527
		c0-3.932-1.591-7.764-4.369-10.545c-2.762-2.761-6.614-4.352-10.525-4.352c-3.934,0-7.767,1.59-10.548,4.352
		c-2.761,2.781-4.35,6.613-4.35,10.545c0,3.914,1.589,7.747,4.35,10.527C363.862,204.974,367.695,206.562,371.629,206.562z"/>
	<path fill="#3F2D20" d="M222.227,206.562c3.934,0,7.767-1.588,10.547-4.368c2.761-2.781,4.35-6.613,4.35-10.527
		c0-3.932-1.588-7.764-4.35-10.545c-2.781-2.761-6.613-4.352-10.547-4.352c-3.912,0-7.744,1.59-10.527,4.352
		c-2.779,2.781-4.369,6.613-4.369,10.545c0,3.914,1.59,7.747,4.369,10.527C214.483,204.974,218.315,206.562,222.227,206.562z"/>
	<path fill="#3F2D20" d="M705.104,363.537H541.869c1.052-2.666,2.052-5.339,2.953-8.035c28.046-4.528,49.36-25.991,49.36-51.724
		c0-25.726-21.296-47.182-49.329-51.722c-11.543-34.761-34.741-66.521-68.084-92.364c-48.2-37.355-112.067-57.927-179.843-57.927
		c-67.775,0-131.642,20.572-179.842,57.927c-33.361,25.854-56.566,57.634-68.104,92.417C21.12,256.769,0,278.158,0,303.778
		c0,25.646,21.171,47.055,49.08,51.68c24.253,72.539,98.46,130.011,194.61,145.949c44.835,69.924,126.657,116.827,219.981,116.827
		c141.34,0,256.327-107.573,256.327-239.799C720,370.207,713.331,363.537,705.104,363.537z M255.736,461.74
		c47.165,60.864,123.598,99.192,207.596,99.192c84.933,0,162.155-39.168,209.197-101.205
		c-34.346,75.54-115.025,128.713-208.858,128.713C370.672,588.44,290.591,536.212,255.736,461.74z M523.464,303.774
		c0,20.607-4.737,40.671-14.086,59.763H222.237c-8.228,0-14.897,6.67-14.897,14.896c0,31.349,6.473,61.305,18.218,88.779
		c-91.456-23.037-155.165-88.481-155.165-163.438c0-94.96,101.625-172.215,226.535-172.215
		C421.839,131.559,523.464,208.814,523.464,303.774z M250.619,393.331h170.993l-115.648,78.854
		C281.723,450.504,262.594,423.721,250.619,393.331z M448.774,410.868v119.798c-43.5-2.585-84.178-16.634-118.055-39.309
		L448.774,410.868z M478.568,410.868l117.706,80.253c-33.767,22.693-74.317,36.808-117.706,39.505V410.868z M620.993,471.919
		l-115.264-78.59H676.03C664.106,423.596,645.086,450.288,620.993,471.919z M552.241,285.74c7.321,4.215,12.15,10.789,12.15,18.038
		c0,7.249-4.829,13.811-12.15,18.018c0.664-5.96,1.015-11.969,1.015-18.022C553.256,297.715,552.903,291.7,552.241,285.74z
		 M41.588,321.59c-7.121-4.213-11.797-10.68-11.797-17.812c0-7.139,4.674-13.619,11.799-17.844c-0.646,5.898-0.99,11.849-0.99,17.84
		C40.6,309.771,40.937,315.712,41.588,321.59z"/>
</g>
</svg>
