<?xml version="1.0" encoding="utf-8"?>
<!-- Generator: Adobe Illustrator 16.0.0, SVG Export Plug-In . SVG Version: 6.00 Build 0)  -->
<!DOCTYPE svg PUBLIC "-//W3C//DTD SVG 1.1//EN" "http://www.w3.org/Graphics/SVG/1.1/DTD/svg11.dtd">
<svg xmlns="http://www.w3.org/2000/svg" xmlns:xlink="http://www.w3.org/1999/xlink" version="1.1" id="Layer_1" x="0px" y="0px" width="512px" height="512px" viewBox="0 0 512 512" enable-background="new 0 0 512 512" xml:space="preserve">
<g>
	<path d="M229.114,136.599c6.436-2.717,13.065-4.908,19.865-6.538c-0.84-14.326,1.36-26.865,6.679-37.377   c18.19-35.902,68.419-41.7,69.505-41.812c11.212-1.118,19.421-11.083,18.335-22.295c-1.07-11.243-11.244-19.516-22.295-18.398   c-2.987,0.288-73.195,7.634-101.848,63.692c-8.457,16.548-12.24,35.208-11.398,55.875   C215.211,131.402,222.271,133.709,229.114,136.599z" fill="#ffae45"/>
	<path d="M278.177,159.314c-3.93,0-7.813,0.269-11.649,0.772c41.811,36.106,68.889,98.173,68.889,170.061   s-27.078,133.955-68.889,170.062c3.836,0.503,7.72,0.771,11.649,0.771c67.749,0,122.657-76.485,122.657-170.833   S345.926,159.314,278.177,159.314z" fill="#ffae45"/>
	<path d="M180.052,159.314c-67.749,0-122.657,76.485-122.657,170.833S112.303,500.98,180.052,500.98s122.656-76.485,122.656-170.833   S247.801,159.314,180.052,159.314z" fill="#ffae45"/>
</g>
</svg>
