<?xml version="1.0" encoding="iso-8859-1"?>
<!-- Generator: Adobe Illustrator 19.0.0, SVG Export Plug-In . SVG Version: 6.00 Build 0)  -->
<svg version="1.1" id="Layer_1" xmlns="http://www.w3.org/2000/svg" xmlns:xlink="http://www.w3.org/1999/xlink" x="0px" y="0px"
	 viewBox="0 0 512 512" style="enable-background:new 0 0 512 512;" xml:space="preserve">
<path style="fill:#89643B;" d="M118.631,512c-31.667,0-58.981-19.173-65.397-45.907L0.239,245.278
	c-1.429-5.955,3.846-11.539,10.899-11.539h489.727c7.053,0,12.329,5.584,10.9,11.539L445.218,512H118.631z"/>
<path style="fill:#D8962B;" d="M276.998,250.016c-1.986,3.805-5.863,5.984-9.877,5.984c-1.735,0-3.495-0.406-5.139-1.264
	L5.984,121.17c-5.449-2.844-7.563-9.567-4.719-15.016s9.567-7.563,15.016-4.719L272.279,235
	C277.728,237.843,279.841,244.566,276.998,250.016z"/>
<path style="fill:#5B452E;" d="M389.566,44.522V244.87c0,6.147-4.983,11.13-11.13,11.13c-6.147,0-11.13-4.983-11.13-11.13V44.522
	c0-12.275-9.986-22.261-22.261-22.261H166.959c-12.275,0-22.261,9.986-22.261,22.261V244.87c0,6.147-4.983,11.13-11.13,11.13
	s-11.13-4.983-11.13-11.13V44.522C122.438,19.972,142.41,0,166.959,0h178.086C369.593,0,389.566,19.972,389.566,44.522z"/>
<path style="fill:#D8962B;" d="M511.765,245.278l-5.452,21.852H5.484l-5.245-21.852c-1.429-5.955,3.846-11.539,10.899-11.539
	h489.727C507.919,233.739,513.194,239.323,511.765,245.278z"/>
<path style="fill:#5B452E;" d="M512,500.87c0,6.147-4.983,11.13-11.13,11.13H11.134c-6.147,0-11.13-4.983-11.13-11.13
	c0-6.147,4.983-11.13,11.13-11.13h489.735C507.017,489.739,512,494.722,512,500.87z M166.959,456.348h89.042
	c6.147,0,11.13-4.983,11.13-11.13c0-6.147-4.983-11.13-11.13-11.13h-89.042c-6.147,0-11.13,4.983-11.13,11.13
	C155.829,451.365,160.812,456.348,166.959,456.348z M120.212,456.348h2.226c6.147,0,11.13-4.983,11.13-11.13
	c0-6.147-4.983-11.13-11.13-11.13h-2.226c-6.147,0-11.13,4.983-11.13,11.13C109.081,451.365,114.064,456.348,120.212,456.348z"/>
<path style="fill:#C92B00;" d="M429.078,512h-23.373c-45.796,0-82.922-37.126-82.922-82.922v-12.243
	c0-45.796,37.126-82.922,82.922-82.922h23.373c45.796,0,82.922,37.126,82.922,82.922v12.243C512,474.874,474.874,512,429.078,512z"
	/>
<path style="fill:#FF4800;" d="M404.746,475.27h-0.307c-38.95,0-70.524-31.575-70.524-70.524v-0.308
	c0-38.95,31.575-70.524,70.524-70.524h0.307c38.95-0.001,70.524,31.574,70.524,70.522v0.308
	C475.269,443.695,443.695,475.27,404.746,475.27z"/>
<path style="fill:#FFF48B;" d="M463.521,430.553c-1.469,20.706-18.792,36.925-39.439,36.925c-6.147,0-11.13-4.983-11.13-11.13
	s4.983-11.13,11.13-11.13c9.018,0,16.587-7.133,17.232-16.238c0.435-6.132,5.763-10.744,11.89-10.316
	C459.337,419.098,463.955,424.421,463.521,430.553z"/>
<path style="fill:#999B2D;" d="M411.827,339.478c0,6.147-4.983,11.13-11.13,11.13h-14.641
	c-10.675,23.601-32.988,38.957-57.706,38.957c-27.323,0-51.71-18.759-60.683-46.681c-0.711-2.215-0.711-4.597,0-6.812
	c8.973-27.921,33.36-46.681,60.683-46.681c24.717,0,47.031,15.356,57.706,38.957h14.641
	C406.844,328.348,411.827,333.331,411.827,339.478z"/>
<path style="fill:#C3C644;" d="M389.033,336.072c0.356,1.107,0.533,2.256,0.533,3.406H267.132c0-1.15,0.178-2.298,0.533-3.406
	c8.973-27.921,33.36-46.681,60.683-46.681S380.057,308.151,389.033,336.072z"/>
<g>
</g>
<g>
</g>
<g>
</g>
<g>
</g>
<g>
</g>
<g>
</g>
<g>
</g>
<g>
</g>
<g>
</g>
<g>
</g>
<g>
</g>
<g>
</g>
<g>
</g>
<g>
</g>
<g>
</g>
</svg>
