<?xml version="1.0" encoding="UTF-8" standalone="no"?>
<svg
   xmlns:dc="http://purl.org/dc/elements/1.1/"
   xmlns:cc="http://creativecommons.org/ns#"
   xmlns:rdf="http://www.w3.org/1999/02/22-rdf-syntax-ns#"
   xmlns:svg="http://www.w3.org/2000/svg"
   xmlns="http://www.w3.org/2000/svg"
   viewBox="0 0 19.231001 31.295"
   height="31.295"
   width="19.231001"
   version="1.1"
   id="svg3390">
  <metadata
     id="metadata3396">
    <rdf:RDF>
      <cc:Work
         rdf:about="">
        <dc:format>image/svg+xml</dc:format>
        <dc:type
           rdf:resource="http://purl.org/dc/dcmitype/StillImage" />
        <dc:title></dc:title>
      </cc:Work>
    </rdf:RDF>
  </metadata>
  <defs
     id="defs3394" />
  <g
     transform="translate(0,-1.2050002)"
     id="layer1" />
  <path
     id="path4226"
     d="M 8.7696324,18.808503 C 8.0136966,17.288757 7.7449278,16.930592 5.9957411,15.111976 4.1455039,13.188297 3.7020165,12.653907 3.3295169,11.899245 2.8583045,10.944596 2.75733,10.350373 2.7942568,8.7493023 2.8239388,7.462362 2.8438138,7.317792 3.084999,6.634449 3.8250993,4.5375464 5.4662882,2.9897853 7.5541928,2.4196728 8.3947057,2.1901666 9.8490192,2.2077112 10.642638,2.4569318 c 2.430901,0.7633762 4.424607,2.6600177 5.079584,4.8322817 0.196346,0.6511927 0.197761,2.0449707 0.0028,2.7995995 -0.326265,1.263131 -0.925991,2.16931 -3.019681,4.562706 -2.035987,2.327431 -2.175611,2.534494 -3.0013467,4.451007 l -0.3658214,0.849063 -0.5685819,-1.143086 3.4e-6,0 z"
     style="opacity:1;fill:#77d350;fill-opacity:0;fill-rule:nonzero;stroke:none;stroke-width:3;stroke-linecap:round;stroke-linejoin:round;stroke-miterlimit:4;stroke-dasharray:none;stroke-dashoffset:0;stroke-opacity:1" />
  <path
     id="path3404"
     d="m 9.7967391,29.796477 c 0,0 0.3486429,-5.027918 0.9471769,-7.340619 0.419574,-1.621207 0.744056,-2.000595 1.124772,-2.959927 0.380716,-0.959332 1.26686,-1.812082 3.433516,-4.321495 2.130304,-2.46731 2.459727,-4.203285 2.427142,-5.9790522 -0.07622,-4.1534276 -4.549106,-7.6897514 -8.2877959,-7.6958106 -4.43186,-0.00718 -7.798266,3.6057025 -7.932605,7.6958106 -0.06154,1.8736102 0.0455,3.8695262 1.953552,5.9790532 1.908048,2.109526 3.30502,3.255429 3.788707,4.262295 0.483687,1.006866 0.85719,1.442839 1.302368,3.019126 0.674506,2.388294 1.243167,7.340619 1.243167,7.340619 z"
     style="fill:none;fill-rule:evenodd;stroke:#000000;stroke-width:3;stroke-linecap:butt;stroke-linejoin:round;stroke-miterlimit:4;stroke-dasharray:none;stroke-opacity:1" />
  <path
     id="path4284"
     d="M 9.4945004,21.162083 C 9.2927786,20.522148 8.2783698,18.588285 7.8289284,17.986848 7.6169151,17.703134 6.7569314,16.755203 5.9178535,15.880336 4.1214615,14.007321 3.8279222,13.652093 3.4399477,12.881678 2.9710533,11.950578 2.8254578,11.228647 2.8254578,9.8347448 c 0,-1.4988916 0.1318642,-2.1370609 0.6709776,-3.2472606 0.6748713,-1.3897667 1.611549,-2.3644985 2.9336933,-3.0528794 1.0052894,-0.523409 1.7822114,-0.7082124 2.9673006,-0.7058203 0.9010807,0.00182 1.0866107,0.029312 1.7999667,0.2667271 2.026504,0.6744516 3.775237,2.1485855 4.639024,3.9105695 0.472829,0.9644955 0.592261,1.4763352 0.586047,2.5115815 -0.0055,0.9147064 -0.115999,1.4993324 -0.423602,2.2409744 -0.427955,1.031815 -0.880356,1.651399 -2.935218,4.019919 -0.807575,0.930847 -1.620187,1.915577 -1.805801,2.18829 -0.366257,0.538122 -1.132602,2.181351 -1.4352215,3.07746 L 9.6337117,21.603712 9.4945004,21.162083 Z"
     style="opacity:1;fill:#f24310;fill-opacity:1;fill-rule:nonzero;stroke:none;stroke-width:2.5;stroke-linecap:round;stroke-linejoin:round;stroke-miterlimit:4;stroke-dasharray:none;stroke-dashoffset:0;stroke-opacity:1" />
</svg>
