<?xml version="1.0" encoding="iso-8859-1"?>
<!-- Generator: Adobe Illustrator 17.1.0, SVG Export Plug-In . SVG Version: 6.00 Build 0)  -->
<!DOCTYPE svg PUBLIC "-//W3C//DTD SVG 1.1//EN" "http://www.w3.org/Graphics/SVG/1.1/DTD/svg11.dtd">
<svg xmlns="http://www.w3.org/2000/svg" xmlns:xlink="http://www.w3.org/1999/xlink" version="1.1" id="Capa_1" x="0px" y="0px" viewBox="0 0 512 512" style="enable-background:new 0 0 512 512;" xml:space="preserve" width="512px" height="512px">
<g>
	<path d="M424,240c0-28.552-18.415-52.165-42.113-55.564c1.371-5.2,2.113-10.719,2.113-16.436c0-21.832-10.771-40.773-26.433-50.005   c2.488-9.307,3.754-18.922,3.754-28.651c0-5.811-0.541-11.847-1.652-18.452c-0.566-3.361-3.2-5.995-6.561-6.561   c-6.605-1.112-12.641-1.652-18.452-1.652c-22.107,0-43.055,6.414-60.748,18.046c2.082-9.725,6.004-21.484,12.431-32.075   C299.486,26.985,318.886,16,344,16c4.418,0,8-3.582,8-8s-3.582-8-8-8c-30.652,0-55.321,13.953-71.339,40.35   c-7.719,12.721-12.114,26.069-14.429,37.047c-10.707-16.059-24.695-29.768-41.143-40.166C195.116,23.342,169.7,16,143.588,16   c-7.225,0-14.738,0.673-22.968,2.059c-3.362,0.566-5.996,3.2-6.562,6.562C112.673,32.85,112,40.363,112,47.588   c0,30.469,9.698,59.225,28.068,83.339C132.567,140.811,128,153.792,128,168c0,5.718,0.742,11.236,2.113,16.436   C106.415,187.835,88,211.448,88,240c0,28.557,18.421,52.173,42.125,55.565C128.738,300.867,128,306.407,128,312   c0,28.558,18.423,52.176,42.129,55.566c-1.39,5.307-2.129,10.853-2.129,16.452c0,28.555,18.418,52.17,42.12,55.565   c-1.384,5.296-2.12,10.83-2.12,16.417c0,30.879,21.533,56,48,56s48-25.121,48-56c0-5.587-0.736-11.121-2.12-16.417   c23.702-3.395,42.12-27.01,42.12-55.565c0-5.599-0.739-11.145-2.129-16.452C365.577,364.176,384,340.558,384,312   c0-5.593-0.738-11.133-2.125-16.435C405.579,292.173,424,268.557,424,240z M368,168c0,22.056-14.355,40-32,40s-32-17.944-32-40   s14.355-40,32-40S368,145.944,368,168z M328,240.018c0,22.056-14.355,40-32,40s-32-17.944-32-40c0-6.127,1.14-12.144,3.292-17.598   c11.917-3.366,22.109-11.926,28.708-23.511c6.599,11.585,16.791,20.145,28.708,23.511C326.86,227.875,328,233.891,328,240.018z    M256,352c-17.645,0-32-17.944-32-40c0-6.112,1.135-12.114,3.277-17.558c11.923-3.363,22.121-11.925,28.723-23.515   c6.602,11.59,16.8,20.152,28.723,23.515C286.865,299.887,288,305.888,288,312C288,334.056,273.645,352,256,352z M176,128   c17.645,0,32,17.944,32,40s-14.355,40-32,40s-32-17.944-32-40S158.355,128,176,128z M187.292,222.42   c11.917-3.366,22.109-11.926,28.708-23.511c6.599,11.585,16.791,20.145,28.708,23.511c2.152,5.455,3.292,11.471,3.292,17.598   c0,22.056-14.355,40-32,40s-32-17.944-32-40C184,233.891,185.14,227.874,187.292,222.42z M256,128c17.645,0,32,17.944,32,40   s-14.355,40-32,40s-32-17.944-32-40S238.355,128,256,128z M344.712,79.288c0.408,3.517,0.609,6.841,0.609,10.056   c0,7.864-0.976,15.634-2.873,23.176c-2.111-0.332-4.26-0.52-6.448-0.52c-5.926,0-11.602,1.268-16.847,3.569   c1.697-3.392,0.789-7.613-2.353-9.969c-3.534-2.652-8.549-1.935-11.2,1.6l-15.806,21.075c-7.31-8.465-16.937-14.197-27.658-15.801   c17.855-21.376,44.066-33.795,72.52-33.795C337.871,78.679,341.196,78.879,344.712,79.288z M128.986,32.986   c5.14-0.662,9.957-0.986,14.602-0.986c23.082,0,45.541,6.485,64.951,18.755c18.79,11.878,33.964,28.628,43.913,48.453   c-4.334,4.832-8.285,10.091-11.801,15.744c-4.159,1.642-8.067,3.921-11.629,6.756l-47.366-47.366   c-3.124-3.124-8.189-3.124-11.313,0c-3.125,3.124-3.125,8.189,0,11.313l47.871,47.871c-0.775,1.154-1.517,2.34-2.214,3.564   C207.394,121.983,192.68,112,176,112c-8.865,0-17.171,2.83-24.306,7.739C136.188,98.743,128,73.892,128,47.588   C128,42.943,128.324,38.125,128.986,32.986z M104,240c0-22.056,14.355-40,32-40c0.211,0,0.417-0.016,0.624-0.031   c6.61,11.048,16.54,19.193,28.092,22.454C166.863,227.872,168,233.881,168,240c0,22.056-14.355,40-32,40S104,262.056,104,240z    M144,312c0-6.12,1.137-12.129,3.285-17.578c11.917-3.364,22.11-11.921,28.71-23.504c6.602,11.595,16.802,20.16,28.728,23.524   C206.865,299.887,208,305.888,208,312c0,22.056-14.355,40-32,40S144,334.056,144,312z M184,384.018   c0-6.127,1.14-12.144,3.292-17.598c11.917-3.366,22.109-11.926,28.708-23.511c6.599,11.585,16.791,20.145,28.708,23.511   c2.152,5.455,3.292,11.471,3.292,17.598c0,22.056-14.355,40-32,40S184,406.074,184,384.018z M256,496c-17.645,0-32-17.944-32-40   c0-6.112,1.135-12.114,3.277-17.558c11.923-3.363,22.121-11.925,28.723-23.515c6.602,11.59,16.8,20.152,28.723,23.515   C286.865,443.887,288,449.888,288,456C288,478.056,273.645,496,256,496z M296,424.018c-17.645,0-32-17.944-32-40   c0-6.127,1.14-12.144,3.292-17.598c11.917-3.366,22.109-11.926,28.708-23.511c6.599,11.585,16.791,20.145,28.708,23.511   c2.152,5.455,3.292,11.471,3.292,17.598C328,406.074,313.645,424.018,296,424.018z M336,352c-17.645,0-32-17.944-32-40   c0-6.112,1.135-12.114,3.277-17.558c11.926-3.364,22.126-11.93,28.728-23.524c6.601,11.583,16.794,20.14,28.71,23.504   C366.862,299.872,368,305.88,368,312C368,334.056,353.645,352,336,352z M376,280c-17.645,0-32-17.944-32-40   c0-6.12,1.137-12.129,3.285-17.578c11.552-3.261,21.482-11.405,28.092-22.454c0.206,0.016,0.413,0.031,0.624,0.031   c17.645,0,32,17.944,32,40S393.645,280,376,280z" fill="#a83987"/>
	<path d="M256,152c3.262,0,8,6.233,8,16c0,4.418,3.582,8,8,8s8-3.582,8-8c0-17.944-10.542-32-24-32c-4.418,0-8,3.582-8,8   S251.582,152,256,152z" fill="#a83987"/>
	<path d="M336,136c-4.418,0-8,3.582-8,8s3.582,8,8,8c3.262,0,8,6.233,8,16c0,4.418,3.582,8,8,8s8-3.582,8-8   C360,150.056,349.458,136,336,136z" fill="#a83987"/>
	<path d="M176,152c3.262,0,8,6.233,8,16c0,4.418,3.582,8,8,8s8-3.582,8-8c0-17.944-10.542-32-24-32c-4.418,0-8,3.582-8,8   S171.582,152,176,152z" fill="#a83987"/>
	<path d="M397.659,226.34c-1.49-1.49-3.55-2.34-5.66-2.34s-4.17,0.85-5.66,2.34c-1.49,1.49-2.34,3.55-2.34,5.66   c0,2.11,0.85,4.17,2.34,5.66c1.49,1.49,3.55,2.34,5.66,2.34s4.17-0.85,5.66-2.34c1.49-1.49,2.34-3.55,2.34-5.66   C400,229.89,399.149,227.83,397.659,226.34z" fill="#a83987"/>
	<path d="M306.339,237.66c1.49,1.49,3.55,2.34,5.66,2.34s4.17-0.85,5.66-2.34c1.49-1.49,2.34-3.55,2.34-5.66   c0-2.11-0.85-4.17-2.34-5.66c-1.49-1.49-3.55-2.34-5.66-2.34s-4.17,0.85-5.66,2.34c-1.49,1.49-2.34,3.55-2.34,5.66   C304,234.11,304.85,236.17,306.339,237.66z" fill="#a83987"/>
	<path d="M232,240c2.11,0,4.17-0.85,5.66-2.34c1.49-1.49,2.34-3.55,2.34-5.66c0-2.11-0.85-4.17-2.34-5.66   c-1.49-1.49-3.55-2.34-5.66-2.34s-4.17,0.85-5.66,2.34c-1.49,1.49-2.34,3.55-2.34,5.66c0,2.11,0.85,4.17,2.34,5.66   C227.83,239.15,229.89,240,232,240z" fill="#a83987"/>
	<path d="M232,384c2.11,0,4.17-0.85,5.66-2.34c1.49-1.49,2.34-3.56,2.34-5.66c0-2.11-0.85-4.17-2.34-5.66   c-1.49-1.49-3.55-2.34-5.66-2.34s-4.17,0.85-5.66,2.34c-1.49,1.49-2.34,3.55-2.34,5.66c0,2.1,0.85,4.17,2.34,5.66   C227.83,383.15,229.89,384,232,384z" fill="#a83987"/>
	<path d="M317.659,370.34c-1.49-1.49-3.55-2.34-5.66-2.34s-4.17,0.85-5.66,2.34c-1.49,1.49-2.34,3.55-2.34,5.66   c0,2.1,0.85,4.17,2.34,5.66c1.49,1.49,3.55,2.34,5.66,2.34s4.17-0.85,5.66-2.34c1.49-1.49,2.34-3.56,2.34-5.66   C320,373.89,319.149,371.83,317.659,370.34z" fill="#a83987"/>
	<path d="M277.659,442.34c-1.49-1.49-3.55-2.34-5.66-2.34c-2.1,0-4.17,0.85-5.66,2.34c-1.49,1.49-2.34,3.55-2.34,5.66   c0,2.1,0.85,4.17,2.34,5.66c1.49,1.49,3.55,2.34,5.66,2.34s4.17-0.85,5.66-2.34c1.49-1.49,2.34-3.55,2.34-5.66   C280,445.89,279.149,443.83,277.659,442.34z" fill="#a83987"/>
	<path d="M357.659,298.34c-1.49-1.49-3.55-2.34-5.66-2.34s-4.17,0.85-5.66,2.34c-1.49,1.49-2.34,3.55-2.34,5.66   c0,2.11,0.85,4.17,2.34,5.66c1.49,1.49,3.56,2.34,5.66,2.34c2.11,0,4.17-0.85,5.66-2.34c1.49-1.49,2.34-3.56,2.34-5.66   C360,301.89,359.149,299.83,357.659,298.34z" fill="#a83987"/>
	<path d="M280,304c0-2.1-0.85-4.17-2.34-5.66c-1.49-1.49-3.55-2.34-5.66-2.34s-4.17,0.85-5.66,2.34c-1.49,1.49-2.34,3.55-2.34,5.66   c0,2.11,0.85,4.17,2.34,5.66c1.49,1.49,3.56,2.34,5.66,2.34c2.11,0,4.17-0.85,5.66-2.34C279.149,308.17,280,306.1,280,304z" fill="#a83987"/>
	<path d="M192,312c2.11,0,4.17-0.85,5.66-2.34c1.49-1.49,2.34-3.56,2.34-5.66c0-2.1-0.85-4.17-2.34-5.66   c-1.49-1.49-3.55-2.34-5.66-2.34s-4.17,0.85-5.66,2.34c-1.49,1.49-2.34,3.55-2.34,5.66c0,2.1,0.85,4.17,2.34,5.66   C187.83,311.15,189.899,312,192,312z" fill="#a83987"/>
	<path d="M152,240c2.11,0,4.17-0.85,5.66-2.34c1.49-1.49,2.34-3.55,2.34-5.66c0-2.11-0.85-4.17-2.34-5.66   c-1.49-1.49-3.55-2.34-5.66-2.34s-4.17,0.85-5.66,2.34c-1.49,1.49-2.34,3.55-2.34,5.66c0,2.11,0.85,4.17,2.34,5.66   C147.83,239.15,149.89,240,152,240z" fill="#a83987"/>
</g>
<g>
</g>
<g>
</g>
<g>
</g>
<g>
</g>
<g>
</g>
<g>
</g>
<g>
</g>
<g>
</g>
<g>
</g>
<g>
</g>
<g>
</g>
<g>
</g>
<g>
</g>
<g>
</g>
<g>
</g>
</svg>
