<?xml version="1.0" encoding="utf-8"?>
<!-- Generator: Adobe Illustrator 16.0.0, SVG Export Plug-In . SVG Version: 6.00 Build 0)  -->
<!DOCTYPE svg PUBLIC "-//W3C//DTD SVG 1.1//EN" "http://www.w3.org/Graphics/SVG/1.1/DTD/svg11.dtd">
<svg xmlns="http://www.w3.org/2000/svg" xmlns:xlink="http://www.w3.org/1999/xlink" version="1.1" id="Layer_1" x="0px" y="0px" width="512px" height="512px" viewBox="0 0 512 512" enable-background="new 0 0 512 512" xml:space="preserve">
<path d="M486.293,14.028c-10.68-8.039-24.534-10.599-37.389-6.91c-46.863,13.467-80.467,46.757-101.031,73.541  c-5.259-19.575-16.872-37.547-34.897-49.926c-40.19-27.627-95.14-17.429-122.75,22.779c-2.833,4.121-5.039,8.468-7.076,12.858  C140.966,37.132,84.477,46.354,56.874,86.551c-23.476,34.179-19.369,78.924,7.046,108.556c-8.432,5.896-16.115,13.129-22.283,22.104  c-25.421,37.022-18.44,86.325,14.169,115.495c-13.296,6.458-25.307,15.982-34.274,29.036  c-27.611,40.193-17.43,95.157,22.777,122.767c40.177,27.627,95.156,17.431,122.751-22.777c6.442-9.373,10.63-19.583,13.057-30.031  c1.632,1.3,2.999,2.816,4.744,4.015c40.208,27.595,95.155,17.414,122.769-22.777c9.304-13.536,13.967-28.761,14.989-44.04  c34.517,8.305,72.068-4.606,93.375-35.621c24.039-34.985,19.386-81.094-8.69-110.68c14.299-37.154,1.742-83.358-35.375-106.251  c34.563-27.661,66.139-32.504,89.654-29.971c10.632,1.144,21.248-2.255,29.205-9.393c7.958-7.153,12.501-17.333,12.501-28.013  v-0.902C503.288,34.681,496.988,22.083,486.293,14.028z M64.703,233.063c3.866-5.622,11.566-7.056,17.205-3.19  c5.621,3.866,7.056,11.566,3.189,17.205c-11.1,16.157-6.976,38.34,9.182,49.438c5.639,3.866,7.056,11.566,3.189,17.205  c-2.4,3.496-6.266,5.364-10.213,5.364c-2.416,0-4.849-0.708-6.991-2.175C52.863,298.079,45.888,260.465,64.703,233.063z   M89.963,379.543c-10.391,1.933-19.412,7.78-25.389,16.496c-5.992,8.715-8.231,19.234-6.299,29.625  c1.257,6.717-3.189,13.177-9.906,14.417c-0.758,0.145-1.515,0.209-2.271,0.209c-5.848,0-11.035-4.156-12.146-10.117  c-3.142-16.882,0.499-33.99,10.229-48.15c9.729-14.16,24.389-23.68,41.271-26.805c6.718-1.289,13.178,3.189,14.418,9.907  C101.109,371.843,96.68,378.302,89.963,379.543z M126.739,101.581c-21.457,3.979-35.665,24.679-31.687,46.121  c1.256,6.717-3.189,13.177-9.907,14.417c-0.757,0.145-1.515,0.209-2.271,0.209c-5.848,0-11.034-4.156-12.146-10.117  c-6.477-34.86,16.624-68.479,51.5-74.955c6.589-1.257,13.161,3.173,14.418,9.907C137.902,93.881,133.457,100.341,126.739,101.581z   M226.213,313.866c-21.458,3.979-35.666,24.679-31.687,46.136c1.256,6.717-3.19,13.177-9.907,14.417  c-0.758,0.145-1.515,0.209-2.271,0.209c-5.848,0-11.035-4.156-12.146-10.116c-3.142-16.882,0.5-33.99,10.213-48.15  c9.73-14.16,24.39-23.681,41.288-26.822c6.604-1.289,13.161,3.173,14.417,9.907C237.376,306.166,232.93,312.626,226.213,313.866z   M235.749,179.871c-10.391,1.933-19.411,7.781-25.388,16.496c-5.992,8.715-8.232,19.234-6.299,29.624  c1.257,6.718-3.189,13.177-9.907,14.418c-0.757,0.145-1.515,0.209-2.271,0.209c-5.847,0-11.034-4.156-12.146-10.116  c-3.142-16.882,0.499-33.99,10.213-48.15c9.729-14.16,24.405-23.68,41.287-26.805c6.733-1.289,13.193,3.189,14.418,9.907  C246.896,172.171,242.467,178.631,235.749,179.871z" fill="#431e59"/>
</svg>
