<?xml version="1.0" encoding="utf-8"?>
<!-- Generator: Adobe Illustrator 15.1.0, SVG Export Plug-In . SVG Version: 6.00 Build 0)  -->
<!DOCTYPE svg PUBLIC "-//W3C//DTD SVG 1.1//EN" "http://www.w3.org/Graphics/SVG/1.1/DTD/svg11.dtd">
<svg version="1.1" id="Capa_1" xmlns="http://www.w3.org/2000/svg" xmlns:xlink="http://www.w3.org/1999/xlink" x="0px" y="0px"
	 width="720px" height="720px" viewBox="0 0 720 720" enable-background="new 0 0 720 720" xml:space="preserve">
<g>
	<g>
		<path fill="#EF8829" d="M414.326,265.747c1.512-0.646,3.114-1.237,4.791-1.769C417.438,264.512,415.841,265.101,414.326,265.747z"
			/>
		<path fill="#EF8829" d="M401.501,273.462c0.924-0.749,1.942-1.51,3.023-2.271C403.439,271.952,402.427,272.711,401.501,273.462z"
			/>
		<path fill="#EF8829" d="M420.163,263.669c1.793-0.528,3.647-1.008,5.624-1.367C423.809,262.663,421.956,263.141,420.163,263.669z"
			/>
		<path fill="#EF8829" d="M398.628,275.964c0.703-0.657,1.49-1.349,2.335-2.054C400.116,274.616,399.331,275.305,398.628,275.964z"
			/>
		<path fill="#EF8829" d="M425.785,262.304c2.174,3.152,3.737,5.574,4.94,7.626C429.371,267.4,427.766,264.842,425.785,262.304z"/>
		<path fill="#EF8829" d="M487.455,291.109c1.33,0.95,2.655,1.913,3.964,2.893C490.11,293.021,488.787,292.059,487.455,291.109z"/>
		<path fill="#EF8829" d="M498.306,299.395c1.214,0.986,2.448,1.946,3.64,2.958C500.754,301.343,499.521,300.38,498.306,299.395z"/>
		<path fill="#EF8829" d="M409.386,268.153c1.263-0.699,2.622-1.367,4.038-2.002C412.006,266.789,410.65,267.454,409.386,268.153z"
			/>
		<path fill="#EF8829" d="M476.395,283.67c1.205,0.755,2.38,1.552,3.569,2.329C478.772,285.222,477.6,284.425,476.395,283.67z"/>
		<path fill="#EF8829" d="M520.491,320.031c1.343,1.437,2.644,2.913,3.948,4.385C523.133,322.942,521.836,321.468,520.491,320.031z"
			/>
		<path fill="#EF8829" d="M529.15,329.893c1.308,1.574,2.602,3.155,3.865,4.765C531.752,333.048,530.458,331.468,529.15,329.893z"/>
		<path fill="#EF8829" d="M405.312,270.655c1.157-0.781,2.377-1.56,3.706-2.307C407.687,269.096,406.469,269.873,405.312,270.655z"
			/>
		<path fill="#EF8829" d="M514.329,313.748c-1.002-0.99-1.964-2.018-2.986-2.988C512.365,311.73,513.327,312.758,514.329,313.748z"
			/>
		<path fill="#EF8829" d="M366,273.245c0.009-0.825,0.084-1.651,0.228-2.472C366.084,271.596,366.009,272.42,366,273.245z"/>
		<path fill="#EF8829" d="M398.348,276.222c-0.771,0.731-1.431,1.404-2.022,2.036C396.913,277.63,397.582,276.949,398.348,276.222z"
			/>
		<path fill="#EF8829" d="M367.235,267.454c0.354-0.821,0.757-1.627,1.27-2.396C367.992,265.829,367.59,266.635,367.235,267.454z"/>
		<path fill="#EF8829" d="M366.383,270.118c0.147-0.656,0.337-1.303,0.574-1.942C366.72,268.814,366.528,269.46,366.383,270.118z"/>
		<path fill="#EF8829" d="M141.338,493.399c-0.273-2.576-0.454-5.178-0.635-7.779C140.886,488.222,141.065,490.823,141.338,493.399z
			"/>
		<path fill="#EF8829" d="M181.395,598.182c-1.528-2.124-3.04-4.258-4.492-6.436C178.354,593.926,179.869,596.058,181.395,598.182z"
			/>
		<path fill="#EF8829" d="M212.938,633.462c-2.622-2.362-5.186-4.785-7.69-7.269C207.753,628.678,210.317,631.102,212.938,633.462z"
			/>
		<path fill="#EF8829" d="M188.833,607.969c-1.921-2.379-3.807-4.785-5.628-7.243C185.026,603.186,186.913,605.59,188.833,607.969z"
			/>
		<path fill="#EF8829" d="M168.978,578.859c-1.136-1.986-2.257-3.982-3.331-6.009C166.72,574.877,167.842,576.871,168.978,578.859z"
			/>
		<path fill="#EF8829" d="M174.87,588.579c-1.301-2.024-2.59-4.059-3.825-6.128C172.28,584.521,173.569,586.553,174.87,588.579z"/>
		<path fill="#EF8829" d="M366.919,278.524c-0.209-0.58-0.391-1.167-0.526-1.767C366.53,277.357,366.71,277.945,366.919,278.524z"/>
		<path fill="#EF8829" d="M534.079,336.074c-12.894-11.523-46.746-38.266-67.066-43.861c-0.428-5.951-0.366-5.975-0.908-8.955
			c1.584,10.837,0.626,18.507,0.526,19.187c-1.059,7.482-7.473,12.885-14.816,12.885c-0.697,0-1.404-0.05-2.117-0.151
			c-8.15-1.153-13.84-8.668-12.75-16.814c0.08-0.677,0.869-8.279-1.975-18.077c0.289,1.142,0.582,2.349,0.942,3.785
			c-2.942-1.474-17.979-5.993-41.315-3.871c0.383-0.462,0.883-1.032,1.446-1.643c-1.635,1.777-2.542,3.03-2.673,3.217
			c-2.877,4.321-7.593,6.642-12.407,6.642c-2.865,0-5.76-0.821-8.331-2.53c-2.405-1.602-4.152-3.805-5.264-6.262
			c0.205,0.45,0.404,0.905,0.655,1.335c-47.154,4.191-90.08,23.314-123.986,52.617c-0.693,0.486-1.353,1.018-1.956,1.617
			c2.795-2.777,6.65-4.375,10.586-4.375c3.954,0,7.811,1.598,10.606,4.375c2.779,2.795,4.395,6.652,4.395,10.588
			c0,3.955-1.618,7.812-4.395,10.606c-2.797,2.777-6.652,4.375-10.606,4.375c-3.937,0-7.792-1.598-10.586-4.375
			c-2.797-2.797-4.395-6.652-4.395-10.606c0-3.934,1.598-7.791,4.395-10.588c-0.177,0.178-0.335,0.371-0.502,0.556
			c-45.27,40.307-73.836,98.993-73.836,164.23c0,50.248,16.954,96.604,45.423,133.678c38.963,35.021,90.444,56.373,146.831,56.373
			c121.257,0,219.905-98.65,219.905-219.907C579.903,419.686,562.751,373.218,534.079,336.074z M184.028,482.028
			c-2.777-2.797-4.375-6.652-4.375-10.589c0-3.954,1.598-7.809,4.375-10.606c2.797-2.776,6.652-4.395,10.586-4.395
			c3.956,0,7.811,1.62,10.608,4.395c2.795,2.798,4.395,6.652,4.395,10.606c0,3.937-1.6,7.792-4.395,10.589
			c-2.797,2.776-6.652,4.393-10.608,4.393C190.682,486.421,186.827,484.805,184.028,482.028z M222.365,555.083
			c-2.779,2.797-6.652,4.395-10.588,4.395c-3.935,0-7.809-1.598-10.586-4.395c-2.797-2.775-4.395-6.652-4.395-10.589
			c0-3.954,1.6-7.812,4.395-10.586c2.777-2.797,6.652-4.395,10.586-4.395c3.937,0,7.812,1.598,10.588,4.395
			c2.795,2.774,4.393,6.632,4.393,10.586C226.758,548.429,225.16,552.306,222.365,555.083z M222.365,408.633
			c-2.779,2.775-6.632,4.375-10.588,4.375c-3.954,0-7.809-1.598-10.586-4.375c-2.797-2.797-4.395-6.652-4.395-10.608
			c0-3.935,1.6-7.79,4.395-10.587c2.777-2.795,6.652-4.395,10.586-4.395c3.937,0,7.792,1.6,10.588,4.395
			c2.795,2.798,4.393,6.652,4.393,10.587C226.758,401.98,225.16,405.836,222.365,408.633z M263.276,605.064
			c-2.797,2.774-6.652,4.374-10.606,4.374c-3.937,0-7.792-1.598-10.586-4.374c-2.797-2.797-4.395-6.672-4.395-10.608
			c0-3.935,1.598-7.81,4.395-10.587c2.795-2.797,6.65-4.395,10.586-4.395c3.954,0,7.811,1.6,10.606,4.395
			c2.779,2.777,4.375,6.652,4.375,10.587C267.653,598.393,266.056,602.268,263.276,605.064z M276.462,519.484
			c-2.777,2.795-6.632,4.393-10.588,4.393c-3.935,0-7.809-1.598-10.586-4.393c-2.797-2.776-4.395-6.651-4.395-10.588
			c0-3.954,1.6-7.81,4.395-10.606c2.779-2.775,6.652-4.375,10.586-4.375c3.937,0,7.812,1.6,10.588,4.375
			c2.797,2.797,4.393,6.652,4.393,10.606C280.855,512.833,279.258,516.688,276.462,519.484z M276.462,441.954
			c-2.777,2.799-6.632,4.395-10.588,4.395c-3.935,0-7.809-1.598-10.586-4.395c-2.797-2.775-4.395-6.652-4.395-10.587
			c0-3.954,1.6-7.812,4.395-10.606c2.779-2.778,6.652-4.377,10.586-4.377c3.937,0,7.812,1.599,10.588,4.377
			c2.797,2.795,4.393,6.652,4.393,10.606C280.855,435.302,279.258,439.179,276.462,441.954z"/>
		<path fill="#EF8829" d="M366.212,275.779c-0.092-0.57-0.147-1.146-0.172-1.725C366.066,274.634,366.12,275.208,366.212,275.779z"
			/>
		<path fill="#EF8829" d="M144.944,516.005c-0.462-2.174-0.863-4.369-1.259-6.566C144.083,511.636,144.482,513.831,144.944,516.005z
			"/>
		<path fill="#EF8829" d="M147.604,527.031c-0.564-2.104-1.076-4.229-1.578-6.359C146.528,522.802,147.04,524.926,147.604,527.031z"
			/>
		<path fill="#EF8829" d="M142.854,504.795c-0.366-2.3-0.653-4.622-0.948-6.943C142.199,500.173,142.488,502.495,142.854,504.795z"
			/>
		<path fill="#EF8829" d="M189.939,609.377c4.733,5.771,9.751,11.298,15.039,16.559C199.69,620.675,194.674,615.146,189.939,609.377
			z"/>
		<path fill="#EF8829" d="M163.638,568.94c-1-1.979-1.98-3.971-2.922-5.982C161.658,564.972,162.638,566.96,163.638,568.94z"/>
		<path fill="#EF8829" d="M140.414,481.845c-0.205-3.881-0.319-7.785-0.319-11.716C140.095,474.06,140.21,477.964,140.414,481.845z"
			/>
		<path fill="#EF8829" d="M158.833,558.802c-0.88-1.99-1.735-3.996-2.558-6.016C157.098,554.806,157.953,556.81,158.833,558.802z"/>
		<path fill="#EF8829" d="M154.556,548.435c-0.771-2.016-1.508-4.05-2.221-6.096C153.048,544.385,153.785,546.417,154.556,548.435z"
			/>
		<path fill="#EF8829" d="M150.811,537.843c-0.667-2.054-1.291-4.128-1.899-6.21C149.52,533.713,150.144,535.786,150.811,537.843z"
			/>
	</g>
	<path fill="#3F2D20" d="M265.874,416.384c-3.934,0-7.809,1.599-10.586,4.377c-2.795,2.795-4.395,6.652-4.395,10.606
		c0,3.935,1.6,7.812,4.395,10.589c2.779,2.797,6.652,4.395,10.586,4.395c3.957,0,7.812-1.598,10.588-4.395
		c2.795-2.775,4.393-6.652,4.393-10.589c0-3.954-1.598-7.812-4.393-10.606C273.686,417.982,269.811,416.384,265.874,416.384z"/>
	<path fill="#3F2D20" d="M265.874,493.913c-3.934,0-7.809,1.6-10.586,4.375c-2.795,2.797-4.395,6.651-4.395,10.606
		c0,3.937,1.6,7.812,4.395,10.59c2.779,2.795,6.652,4.393,10.586,4.393c3.957,0,7.812-1.598,10.588-4.393
		c2.795-2.797,4.393-6.651,4.393-10.59c0-3.954-1.598-7.81-4.393-10.606C273.686,495.513,269.811,493.913,265.874,493.913z"/>
	<path fill="#3F2D20" d="M252.67,579.473c-3.936,0-7.791,1.6-10.586,4.395c-2.797,2.777-4.395,6.652-4.395,10.587
		c0,3.937,1.598,7.811,4.395,10.608c2.795,2.774,6.649,4.374,10.586,4.374c3.955,0,7.812-1.598,10.606-4.374
		c2.779-2.797,4.377-6.672,4.377-10.608c0-3.935-1.598-7.81-4.377-10.587C260.481,581.074,256.625,579.473,252.67,579.473z"/>
	<path fill="#3F2D20" d="M252.67,360.77c3.955,0,7.812-1.598,10.606-4.375c2.779-2.797,4.395-6.652,4.395-10.606
		c0-3.935-1.618-7.792-4.395-10.586c-2.795-2.779-6.652-4.377-10.606-4.377c-3.937,0-7.792,1.598-10.586,4.377
		c-2.797,2.795-4.395,6.652-4.395,10.586c0,3.954,1.598,7.811,4.395,10.606C244.879,359.171,248.734,360.77,252.67,360.77z"/>
	<path fill="#3F2D20" d="M211.777,383.041c-3.935,0-7.809,1.6-10.588,4.395c-2.795,2.797-4.395,6.652-4.395,10.587
		c0,3.956,1.6,7.812,4.395,10.608c2.779,2.775,6.634,4.373,10.588,4.373c3.957,0,7.812-1.598,10.588-4.373
		c2.795-2.797,4.393-6.652,4.393-10.608c0-3.935-1.598-7.79-4.393-10.587C219.568,384.641,215.713,383.041,211.777,383.041z"/>
	<path fill="#3F2D20" d="M209.62,471.439c0-3.954-1.6-7.809-4.395-10.606c-2.797-2.774-6.652-4.395-10.608-4.395
		c-3.935,0-7.79,1.62-10.586,4.395c-2.777,2.798-4.373,6.652-4.373,10.606c0,3.937,1.598,7.792,4.373,10.589
		c2.797,2.776,6.652,4.393,10.586,4.393c3.956,0,7.811-1.618,10.608-4.393C208.022,479.231,209.62,475.376,209.62,471.439z"/>
	<path fill="#3F2D20" d="M211.777,529.514c-3.935,0-7.809,1.598-10.588,4.395c-2.795,2.774-4.395,6.632-4.395,10.588
		c0,3.935,1.6,7.812,4.395,10.587c2.779,2.797,6.652,4.395,10.588,4.395s7.812-1.598,10.588-4.395
		c2.795-2.775,4.393-6.652,4.393-10.587c0-3.954-1.598-7.811-4.393-10.588C219.588,531.109,215.713,529.514,211.777,529.514z"/>
	<path fill="#3F2D20" d="M455.467,239.229c20.561-27.173,67.655-83.782,118.201-106.481c7.546-3.389,12.195-10.983,9.657-18.858
		c-2.54-7.877-10.986-12.2-18.857-9.658c-19.075,6.154-37.289,16.973-53.987,29.884c-5.829-23.258-18.351-57.027-44.796-83.476
		c-23.828-23.828-51.171-36.536-69.915-43.003c-27.05-9.331-44.715-10.116-52.51-2.331c0,0-1.975,1.693-3.339,5.092
		c-3.753,9.341-2.024,25.165,5.649,47.414c6.465,18.744,19.173,46.091,43.001,69.917c25.619,25.619,58.111,38.168,81.261,44.23
		c-20.734,22.573-36.391,44.659-44.581,56.962c-20.808-5.636-42.68-8.662-65.253-8.662c-137.778,0-249.867,112.089-249.867,249.869
		S222.222,720,359.998,720c137.782,0,249.869-112.091,249.869-249.871C609.869,366.145,546.017,276.805,455.467,239.229z
		 M444.496,71.828c22.531,22.531,32.902,52.727,37.518,72.23c-19.517-4.612-49.716-14.983-72.251-37.521
		c-25.799-25.797-36.961-58.056-40.531-75.244C386.414,34.859,418.689,46.021,444.496,71.828z M140.095,470.129
		c0-121.255,98.65-219.905,219.903-219.905c7.218,0,14.355,0.361,21.401,1.044c-8.251,6.967-12.517,13.224-12.895,13.79
		c-4.584,6.889-2.76,16.246,4.128,20.834c2.571,1.709,5.466,2.53,8.331,2.53c4.814,0,9.532-2.321,12.407-6.642
		c0.483-0.697,11.142-15.621,32.414-19.476c13.196,16.912,11.284,34.999,11.158,36.062c-1.088,8.146,4.6,15.663,12.752,16.814
		c0.713,0.102,1.42,0.151,2.119,0.151c7.344,0,13.758-5.405,14.814-12.885c0.117-0.809,1.49-11.393-1.67-25.514
		c68.421,37.319,114.944,109.928,114.944,193.198c0,121.257-98.648,219.907-219.905,219.907
		C238.745,690.034,140.095,591.386,140.095,470.129z"/>
	<path fill="#84BD93" d="M482.014,144.058c-4.615-19.505-14.986-49.699-37.518-72.23c-25.807-25.809-58.082-36.969-75.265-40.535
		c3.57,17.188,14.732,49.447,40.531,75.244C432.298,129.076,462.497,139.447,482.014,144.058z"/>
</g>
</svg>
