<?xml version="1.0" encoding="utf-8"?>
<!-- Generator: Adobe Illustrator 15.1.0, SVG Export Plug-In . SVG Version: 6.00 Build 0)  -->
<!DOCTYPE svg PUBLIC "-//W3C//DTD SVG 1.1//EN" "http://www.w3.org/Graphics/SVG/1.1/DTD/svg11.dtd">
<svg version="1.1" id="Capa_1" xmlns="http://www.w3.org/2000/svg" xmlns:xlink="http://www.w3.org/1999/xlink" x="0px" y="0px"
	 width="720px" height="720px" viewBox="0 0 720 720" enable-background="new 0 0 720 720" xml:space="preserve">
<g>
	<g>
		<g>
			<path fill="#84BD93" d="M339.701,97.529c-0.078-0.069-0.168-0.134-0.248-0.202C339.532,97.396,339.623,97.462,339.701,97.529z"/>
			<path fill="#84BD93" d="M336.95,95.464c0.158,0.103,0.301,0.208,0.454,0.313C337.251,95.674,337.108,95.567,336.95,95.464z"/>
			<path fill="#84BD93" d="M333.618,93.619c0.211,0.101,0.427,0.202,0.629,0.305C334.043,93.821,333.829,93.722,333.618,93.619z"/>
			<path fill="#84BD93" d="M343.019,101.325c0.097,0.148,0.179,0.297,0.269,0.446C343.197,101.623,343.115,101.476,343.019,101.325z
				"/>
			<path fill="#84BD93" d="M344.033,103.14c0.067,0.14,0.147,0.283,0.208,0.422C344.181,103.422,344.103,103.281,344.033,103.14z"/>
			<path fill="#84BD93" d="M330.036,92.121c0.057,0.021,0.124,0.04,0.181,0.059C330.16,92.159,330.093,92.142,330.036,92.121z"/>
			<path fill="#84BD93" d="M341.402,99.235c0.129,0.147,0.261,0.294,0.383,0.441C341.663,99.529,341.533,99.382,341.402,99.235z"/>
			<path fill="#84BD93" d="M226.52,101.098c-1.086-0.582-2.09-1.154-3.05-1.719C224.428,99.945,225.434,100.516,226.52,101.098z"/>
			<path fill="#84BD93" d="M325.316,90.712c0.271,0.067,0.526,0.14,0.79,0.21C325.843,90.854,325.587,90.781,325.316,90.712z"/>
			<path fill="#84BD93" d="M238.344,106.756c-1.752-0.76-3.433-1.515-5.04-2.265C234.911,105.243,236.59,105.999,238.344,106.756z"
				/>
			<path fill="#84BD93" d="M344.694,104.739c-4.17-1.512-9.447-2.684-16.13-3.285c-7.563-0.681-16.908-1.439-27.108-1.439
				c-27.639,0-49.956,3.361-62.519,7.004c19.744,8.477,47.769,17.082,70.379,19.904c4.348,0.544,8.396,0.819,12.034,0.819
				c22.118,0,23.294-9.407,24.07-15.629C345.449,111.855,346.081,108.678,344.694,104.739z"/>
			<path fill="#84BD93" d="M231.712,103.728c-1.253-0.603-2.456-1.2-3.601-1.792C229.256,102.527,230.457,103.125,231.712,103.728z"
				/>
			<path fill="#84BD93" d="M222.218,98.644c-1.276-0.786-2.452-1.555-3.442-2.29C219.768,97.088,220.944,97.857,222.218,98.644z"/>
			<path fill="#84BD93" d="M319.679,89.594c0.33,0.051,0.668,0.101,0.991,0.157C320.347,89.695,320.009,89.646,319.679,89.594z"/>
		</g>
		<g>
			<path fill="#FDD44B" d="M379.837,212.188c0.582,0.094,1.158,0.193,1.73,0.296C380.995,212.381,380.419,212.282,379.837,212.188z"
				/>
			<path fill="#FDD44B" d="M369.771,211.051c0.496,0.034,1.004,0.059,1.494,0.099C370.773,211.11,370.268,211.085,369.771,211.051z"
				/>
			<path fill="#FDD44B" d="M176.507,551.521c-0.075-1.036-0.176-2.052-0.231-3.102C176.332,549.47,176.433,550.485,176.507,551.521z
				"/>
			<path fill="#FDD44B" d="M177.488,561.336c-0.153-1.17-0.317-2.33-0.445-3.517C177.173,559.006,177.335,560.166,177.488,561.336z"
				/>
			<path fill="#FDD44B" d="M389.403,214.219c0.48,0.129,0.94,0.284,1.414,0.421C390.344,214.501,389.884,214.348,389.403,214.219z"
				/>
			<path fill="#FDD44B" d="M420.07,232.086c-0.444-0.471-0.872-0.965-1.328-1.419C419.198,231.121,419.626,231.615,420.07,232.086z"
				/>
			<path fill="#FDD44B" d="M428.738,243.63c0.424,0.708,0.852,1.41,1.256,2.141C429.59,245.039,429.162,244.336,428.738,243.63z"/>
			<path fill="#FDD44B" d="M397.666,216.976c0.293,0.117,0.602,0.216,0.892,0.336C398.268,217.194,397.959,217.093,397.666,216.976z
				"/>
			<path fill="#FDD44B" d="M178.935,570.416c-0.223-1.172-0.441-2.348-0.639-3.538C178.494,568.07,178.711,569.244,178.935,570.416z
				"/>
			<path fill="#FDD44B" d="M404.989,220.442c0.542,0.297,1.093,0.584,1.624,0.895C406.082,221.026,405.531,220.737,404.989,220.442z
				"/>
			<path fill="#FDD44B" d="M423.844,236.478c0.422,0.54,0.858,1.063,1.267,1.623C424.702,237.542,424.268,237.018,423.844,236.478z"
				/>
			<path fill="#FDD44B" d="M412.162,225.022c0.56,0.416,1.105,0.845,1.647,1.28C413.266,225.869,412.72,225.436,412.162,225.022z"/>
			<path fill="#FDD44B" d="M212.486,637.117c-0.693-0.734-1.363-1.494-2.04-2.246C211.123,635.621,211.793,636.383,212.486,637.117z
				"/>
			<path fill="#FDD44B" d="M180.832,579.02c-0.284-1.121-0.548-2.26-0.807-3.399C180.284,576.76,180.547,577.898,180.832,579.02z"/>
			<path fill="#FDD44B" d="M215.98,640.653c0.613,0.604,1.208,1.228,1.832,1.817C217.188,641.881,216.593,641.257,215.98,640.653z"
				/>
			<path fill="#FDD44B" d="M493.354,426.59c-23.86-28.435-48.532-57.835-48.532-102.924c0-33.725-4.652-59.142-14.526-77.295
				c-12.516-7.797-28.416-11.517-48.061-11.517c-59.453,0-84.821,33.788-84.821,112.976c0,45.088-24.671,74.491-48.532,102.924
				c-26.042,31.035-50.641,60.348-50.641,112.078c0,34.822,9.479,62.694,25.072,84.593c36.585,31.19,88.894,43.869,136.689,43.869
				c84.877,0,183.993-39.973,183.993-152.627C543.995,486.938,519.396,457.624,493.354,426.59z"/>
			<path fill="#FDD44B" d="M202.662,625.381c-0.634-0.853-1.262-1.71-1.876-2.58C201.4,623.671,202.028,624.528,202.662,625.381z"/>
			<path fill="#FDD44B" d="M207.429,631.423c-0.678-0.808-1.34-1.63-2-2.456C206.089,629.793,206.751,630.615,207.429,631.423z"/>
			<path fill="#FDD44B" d="M198.179,618.938c-0.563-0.862-1.134-1.72-1.678-2.602C197.045,617.219,197.616,618.076,198.179,618.938z
				"/>
			<path fill="#FDD44B" d="M183.156,587.21c-0.326-1.021-0.618-2.07-0.923-3.109C182.538,585.14,182.832,586.187,183.156,587.21z"/>
			<path fill="#FDD44B" d="M185.898,595.026c-0.317-0.818-0.598-1.672-0.901-2.504C185.301,593.354,185.58,594.208,185.898,595.026z
				"/>
			<path fill="#FDD44B" d="M193.923,611.929c-0.446-0.79-0.912-1.563-1.343-2.368C193.011,610.364,193.477,611.137,193.923,611.929z
				"/>
			<path fill="#FDD44B" d="M189.318,603.044c-0.092-0.197-0.197-0.384-0.289-0.58C189.122,602.66,189.227,602.847,189.318,603.044z"
				/>
		</g>
	</g>
	<path fill="#3F2D20" d="M515.343,408.14c-22.438-26.74-41.816-49.833-41.816-84.474c0-46.114-8.554-79.962-26.148-103.483
		c-16.562-22.137-41.086-34.746-73.026-37.582V87.025c0.13-5.131,0.533-60.199-40.015-84.924c-6.763-4.13-15.597-1.988-19.725,4.782
		c-4.126,6.767-1.986,15.599,4.782,19.725c15.12,9.221,21.544,26.501,24.271,40.108c-7.04-2.819-15.618-5.012-26.041-6.315
		c-8.697-1.086-19.3-1.658-30.668-1.658c-21.326,0-43.003,1.975-59.469,5.421c-16.389,3.432-38.44,10.08-40.694,28.145
		c-2.019,16.167,13,30.078,47.261,43.776c22.898,9.158,51.043,16.74,71.701,19.322c5.525,0.689,10.771,1.038,15.591,1.038
		c9.79,0,17.774-1.444,24.3-3.839v29.998c-31.94,2.838-56.465,15.44-73.026,37.578c-17.595,23.521-26.148,57.37-26.148,103.483
		c0,34.641-19.378,57.732-41.816,84.474c-26.885,32.038-57.358,68.353-57.358,130.527c0,56.151,21.99,103.063,63.596,135.658
		C248.489,703.779,301.44,720,359.997,720s111.51-16.221,149.104-45.675c41.605-32.595,63.594-79.507,63.594-135.658
		C572.7,476.49,542.228,440.178,515.343,408.14z M226.646,426.59c23.86-28.435,48.534-57.835,48.534-102.924
		c0-79.188,25.368-112.976,84.821-112.976c59.453,0,84.821,33.788,84.821,112.976c0,45.089,24.672,74.49,48.532,102.924
		c26.041,31.036,50.641,60.349,50.641,112.076c0,112.655-99.117,152.63-183.994,152.63s-183.994-39.975-183.994-152.63
		C176.005,486.938,200.604,457.624,226.646,426.59z M314.064,88.888c35.582,3.202,31.435,22.574,31.353,23.225
		c-0.776,6.223-1.954,15.629-24.07,15.629c-3.637,0-7.687-0.275-12.034-0.819c-32.61-4.072-76.527-20.171-90.539-30.57
		c10.601-4.282,35.753-8.904,68.18-8.904C297.156,87.449,306.502,88.207,314.064,88.888z"/>
</g>
</svg>
