<?xml version="1.0" encoding="iso-8859-1"?>
<!-- Generator: Adobe Illustrator 18.0.0, SVG Export Plug-In . SVG Version: 6.00 Build 0)  -->
<!DOCTYPE svg PUBLIC "-//W3C//DTD SVG 1.1//EN" "http://www.w3.org/Graphics/SVG/1.1/DTD/svg11.dtd">
<svg xmlns="http://www.w3.org/2000/svg" xmlns:xlink="http://www.w3.org/1999/xlink" version="1.1" id="Capa_1" x="0px" y="0px" viewBox="0 0 297 297" style="enable-background:new 0 0 297 297;" xml:space="preserve" width="512px" height="512px">
<path d="M273.561,51.561c-2.386-1.313-5.202-1.602-7.807-0.805c-2.605,0.797-4.774,2.615-6.016,5.039l-2.172,4.24  c-6.989-17.912-20.143-36.57-39.615-39.592c-13.727-2.131-28.786,4.236-42.408,17.928c-2.183,2.195-4.252,4.518-6.189,6.9  l-0.678-3.74c-0.482-2.656-2.009-5.008-4.241-6.527c-2.231-1.521-4.981-2.08-7.625-1.559c-24.641,4.869-40.022,38.043-45.2,71.066  c-6.047-0.732-12.266-1.109-18.566-1.109c-28.063,0-63.863,8.324-72.402,31.781c-0.932,2.561-0.789,5.387,0.4,7.84  c1.188,2.451,3.318,4.316,5.903,5.172l2.704,0.895C14.863,158.407,0,172.791,0,190.783c0,17.811,13.735,31.914,28.507,40.869  l-1.56,0.514c-2.586,0.855-4.717,2.721-5.904,5.172c-1.189,2.453-1.332,5.279-0.4,7.84c8.539,23.457,44.34,31.781,72.403,31.781  c16.847,0,33.114-2.68,47.046-7.748c20.639-7.512,37.597-19.894,47.747-34.863c0.932-1.375,1.78-2.764,2.589-4.158  c5.33,1.875,10.984,2.846,16.91,2.846c26.887,0,54.389-19.627,71.775-51.223C302.793,138.774,304.929,68.819,273.561,51.561z   M243.385,87.729l-45.118,88.098c-0.389-9.994-4.273-20.184-10.803-29.811L175.001,76.42c0.598-3.834,5.898-14.863,14.826-23.838  c8.829-8.871,17.965-13.33,25.036-12.227C231.807,42.983,243.927,75.799,243.385,87.729z M151.35,58.912l11.503,63.441  c-6.872-4.412-14.517-8.201-22.762-11.201c-2.808-1.021-5.714-1.941-8.695-2.766C134.657,86.742,142.403,68.026,151.35,58.912z   M93.044,123.553c14.315,0,28.576,2.32,40.155,6.533c16.689,6.074,30.169,15.748,37.961,27.236  c4.419,6.52,6.768,13.242,6.948,19.631L47.41,133.74C56.39,128.032,72.253,123.553,93.044,123.553z M57.31,222.129  c-12.521-2.621-37.161-16.107-37.161-31.346c0-14,24.298-28.508,36.579-32.74l97.207,32.139L57.31,222.129z M133.199,250.276  c-11.579,4.215-25.84,6.535-40.154,6.535c-20.792,0-36.655-4.479-45.637-10.189l130.7-43.211c-0.18,6.387-2.529,13.109-6.948,19.629  C163.368,234.53,149.889,244.203,133.199,250.276z M261.46,172.098c-13.844,25.16-34.584,40.789-54.123,40.789  c-1.78,0-3.517-0.139-5.202-0.414l68.991-134.709C280.557,97.084,278.712,140.742,261.46,172.098z" fill="#544334"/>
<g>
</g>
<g>
</g>
<g>
</g>
<g>
</g>
<g>
</g>
<g>
</g>
<g>
</g>
<g>
</g>
<g>
</g>
<g>
</g>
<g>
</g>
<g>
</g>
<g>
</g>
<g>
</g>
<g>
</g>
</svg>
