<?xml version="1.0" encoding="iso-8859-1"?>
<!-- Generator: Adobe Illustrator 18.0.0, SVG Export Plug-In . SVG Version: 6.00 Build 0)  -->
<!DOCTYPE svg PUBLIC "-//W3C//DTD SVG 1.1//EN" "http://www.w3.org/Graphics/SVG/1.1/DTD/svg11.dtd">
<svg xmlns="http://www.w3.org/2000/svg" xmlns:xlink="http://www.w3.org/1999/xlink" version="1.1" id="Capa_1" x="0px" y="0px" viewBox="0 0 297 297" style="enable-background:new 0 0 297 297;" xml:space="preserve" width="512px" height="512px">
<g>
	<path d="M239.45,137.65c-20.178-13.946-46.757-22.421-75.895-24.442c0.508,1.311,1.359,1.867,2.225,2.3   c1.721,0.86,3.727,0.998,3.744,0.998c5.473,0,9.91,4.437,9.91,9.91c0,5.473-4.438,9.91-9.91,9.91   c-6.153,0-14.051-2.383-19.572-8.18c-5.523,5.797-13.42,8.18-19.573,8.18c-5.473,0-9.91-4.438-9.91-9.91   c0-5.474,4.438-9.91,9.91-9.91c0.018,0,2.023-0.138,3.744-0.998c0.865-0.433,1.717-0.989,2.226-2.3   c-29.14,2.021-55.719,10.495-75.896,24.442c-24.407,16.87-37.849,40.733-37.849,67.196c0,61.148,42.847,92.153,127.349,92.153   c84.5,0,127.346-31.005,127.346-92.153C277.297,178.384,263.857,154.519,239.45,137.65z M191.997,191.645   c-1.844-1.843-2.903-4.399-2.903-7.006c0-2.606,1.06-5.163,2.903-7.007c1.844-1.844,4.4-2.903,7.007-2.903   c2.616,0,5.163,1.06,7.006,2.903c1.854,1.844,2.904,4.4,2.904,7.007c0,2.607-1.051,5.163-2.904,7.006   c-1.843,1.844-4.399,2.904-7.006,2.904C196.398,194.55,193.851,193.489,191.997,191.645z M222.362,224.349   c-1.842,1.844-4.39,2.904-7.006,2.904c-2.605,0-5.153-1.061-7.007-2.904c-1.843-1.843-2.903-4.399-2.903-7.006   c0-2.606,1.061-5.163,2.903-7.007c1.844-1.844,4.401-2.903,7.007-2.903c2.616,0,5.164,1.06,7.006,2.903   c1.854,1.844,2.905,4.4,2.905,7.007C225.267,219.95,224.215,222.507,222.362,224.349z M238.714,191.645   c-1.843,1.844-4.399,2.904-7.006,2.904c-2.606,0-5.163-1.061-7.007-2.904c-1.844-1.843-2.903-4.399-2.903-7.006   c0-2.606,1.06-5.163,2.903-7.007c1.844-1.844,4.4-2.903,7.007-2.903c2.616,0,5.163,1.06,7.006,2.903   c1.854,1.844,2.904,4.4,2.904,7.007C241.618,187.246,240.568,189.802,238.714,191.645z" fill="#f58971"/>
	<path d="M75.619,95.212c5.928,2.174,12.119,3.275,18.403,3.275c25.774,0,45.794-18.669,45.994-18.858   c0.444-0.423,0.672-1.044,0.602-1.657c-0.189-1.67-5.03-41.039-39.199-53.562c-3.27-1.199-7.915-1.807-13.813-1.807   c-24.784,0-64.733,10.349-66.422,10.79c-0.629,0.163-1.139,0.626-1.362,1.236c-0.223,0.61-0.132,1.291,0.242,1.822   C38.242,62.228,62.469,90.392,75.619,95.212z" fill="#f58971"/>
	<path d="M156.375,76.184c0.627,5.533-1.412,11.123-5.453,14.956c-0.959,0.906-4.889,4.497-11.12,8.59   c0.096,3.317,0.165,6.76,0.203,10.335h19.819C158.993,27.742,142.677,7.173,139.337,3.83c0,0-8.948-8.013-16.103-0.858   c-7.154,7.153,3.782,18.029,3.782,18.029C152.129,41.608,156.184,74.495,156.375,76.184z" fill="#f58971"/>
</g>
<g>
</g>
<g>
</g>
<g>
</g>
<g>
</g>
<g>
</g>
<g>
</g>
<g>
</g>
<g>
</g>
<g>
</g>
<g>
</g>
<g>
</g>
<g>
</g>
<g>
</g>
<g>
</g>
<g>
</g>
</svg>
