<?xml version="1.0" encoding="utf-8"?>
<!-- Generator: Adobe Illustrator 15.1.0, SVG Export Plug-In . SVG Version: 6.00 Build 0)  -->
<!DOCTYPE svg PUBLIC "-//W3C//DTD SVG 1.1//EN" "http://www.w3.org/Graphics/SVG/1.1/DTD/svg11.dtd">
<svg version="1.1" id="Capa_1" xmlns="http://www.w3.org/2000/svg" xmlns:xlink="http://www.w3.org/1999/xlink" x="0px" y="0px"
	 width="720px" height="720px" viewBox="0 0 720 720" enable-background="new 0 0 720 720" xml:space="preserve">
<g>
	<path fill="#EF8829" d="M507.521,593.962l-25.628,14.79l15.688,9.054C501.348,610.404,504.658,602.451,507.521,593.962z"/>
	<polygon fill="#EF8829" points="360.491,429.523 427.844,390.65 360.491,351.78 293.134,390.65 	"/>
	<path fill="#EF8829" d="M517.439,551.37l-62.506-36.075l-67.487,38.95l67.357,38.875l61.663-35.588
		C516.809,555.496,517.137,553.451,517.439,551.37z"/>
	<path fill="#EF8829" d="M382.74,691.809l-22.38-12.916l-22.488,12.979c7.115,0.673,14.471,1.049,22.13,1.049
		C367.878,692.921,375.435,692.521,382.74,691.809z"/>
	<path fill="#EF8829" d="M435.038,308.753l-47.461,27.392l67.354,38.871l26.148-15.09
		C468.017,339.509,452.36,322.029,435.038,308.753z"/>
	<path fill="#EF8829" d="M454.804,624.386l-67.354,38.873l35.108,20.265c24.894-8.507,45.066-22.821,60.553-42.801L454.804,624.386z
		"/>
	<path fill="#EF8829" d="M481.528,390.368l21.307,12.296c-2.645-6.708-5.547-13.244-8.682-19.584L481.528,390.368z"/>
	<path fill="#EF8829" d="M521.055,497.96c0-6.827-0.287-13.616-0.825-20.35l-38.206,22.052l38.374,22.146
		C520.831,514.115,521.055,506.169,521.055,497.96z"/>
	<path fill="#EF8829" d="M387.088,444.875l67.844,39.153l61.313-35.386c-0.519-2.658-1.065-5.305-1.659-7.934L454.441,406
		L387.088,444.875z"/>
	<polygon fill="#EF8829" points="427.714,608.752 360.356,569.879 293.002,608.752 360.36,647.625 	"/>
	<polygon fill="#EF8829" points="292.513,499.456 360.356,538.611 427.844,499.663 360,460.507 	"/>
	<g>
		<g>
			<path fill="#84BD93" d="M421.341,129.907c0.09-3.484,0.088-6.861,0.015-10.102C421.429,123.045,421.431,126.425,421.341,129.907z
				"/>
			<path fill="#84BD93" d="M420.875,110.035c0.107,1.375,0.197,2.807,0.273,4.269C421.072,112.841,420.984,111.41,420.875,110.035z"
				/>
			<path fill="#84BD93" d="M421.188,115.104c0.062,1.283,0.112,2.598,0.148,3.939C421.3,117.7,421.249,116.388,421.188,115.104z"/>
			<path fill="#84BD93" d="M418.722,95.292c0.214,0.85,0.414,1.786,0.606,2.769C419.138,97.079,418.936,96.142,418.722,95.292z"/>
			<path fill="#84BD93" d="M419.093,113.846c-5.484,7.007-13.231,21.237-19.735,39.154c1.274,7.651,2.397,15.519,3.304,23.384
				c4.984-7.127,10.542-14.313,16.409-20.646c1.349-8.67,2.055-17.503,2.269-25.8C420.882,123.422,420.099,117.85,419.093,113.846z"
				/>
			<path fill="#84BD93" d="M419.497,98.977c0.136,0.736,0.264,1.501,0.386,2.301C419.761,100.477,419.633,99.713,419.497,98.977z"/>
			<path fill="#84BD93" d="M420.041,102.345c0.128,0.906,0.249,1.849,0.36,2.823C420.288,104.194,420.169,103.253,420.041,102.345z"
				/>
			<path fill="#84BD93" d="M420.491,105.928c0.143,1.306,0.271,2.661,0.382,4.073C420.762,108.589,420.634,107.233,420.491,105.928z
				"/>
		</g>
		<g>
			<path fill="#84BD93" d="M450.38,166.57c0.029,0.283,0.051,0.583,0.074,0.88C450.431,167.154,450.407,166.855,450.38,166.57z"/>
			<path fill="#84BD93" d="M402.2,229.344c0.174-0.207,0.367-0.392,0.529-0.61C402.567,228.95,402.374,229.137,402.2,229.344z"/>
			<path fill="#84BD93" d="M450.584,169.751c0.013,0.333,0.028,0.654,0.036,1C450.612,170.407,450.597,170.086,450.584,169.751z"/>
			<path fill="#84BD93" d="M450.584,175.396c0.013-0.403,0.034-0.826,0.041-1.217C450.616,174.569,450.597,174.992,450.584,175.396z
				"/>
			<path fill="#84BD93" d="M401.107,230.529c-0.229,0.212-0.479,0.397-0.721,0.594C400.628,230.927,400.877,230.743,401.107,230.529
				z"/>
			<path fill="#84BD93" d="M450.473,178.06c-0.033,0.6-0.07,1.21-0.112,1.829C450.402,179.27,450.439,178.66,450.473,178.06z"/>
			<path fill="#84BD93" d="M450.002,184.323c0.067-0.682,0.115-1.33,0.171-1.995C450.117,182.993,450.069,183.641,450.002,184.323z"
				/>
			<path fill="#84BD93" d="M398.369,232.48c0.286-0.156,0.57-0.312,0.844-0.488C398.939,232.169,398.655,232.324,398.369,232.48z"/>
		</g>
		<path fill="#84BD93" d="M395.814,233.314c-0.002,0.038-0.017,0.076-0.019,0.114c0.294-0.11,0.567-0.196,0.886-0.332
			C396.53,233.161,395.969,233.255,395.814,233.314z"/>
		<g>
			<path fill="#84BD93" d="M369.61,139.879c0.828,3.725,1.667,7.669,2.495,11.772c0.051-0.208,0.106-0.434,0.156-0.641
				C371.425,147.12,370.524,143.422,369.61,139.879z"/>
			<path fill="#84BD93" d="M447.309,190.49c-0.201,0.218-0.401,0.434-0.613,0.637c-10.944,11.45-27.018,31.772-38.308,54.712
				c-1.112,2.261-14.43,5.493-14.43-7.138v-0.587c0-1.532,1.361-3.102,1.462-4.688c-2.06,0.772-3.005,0.988-5.502,0.409
				c-6.132-1.428-8.564-6.892-8.564-13.188v-0.587c0-20.734-4.433-46.748-8.802-68.411c-5.562,23.039-16.402,57.945-11.002,86.464
				v0.582c0,6.294-5.255,11.76-11.387,13.188c-6.128,1.422-12.896-1.559-15.678-7.205c-1.762-3.579-3.849-7.084-5.757-10.51
				c0.063-0.001,0.011-0.021,0.071-0.023c-5.167,0.049-10.209-2.776-12.546-7.518c-11.287-22.918-26.269-43.229-37.209-54.684
				c-0.254-0.241,0.2-0.495-0.034-0.756c-3.145-3.228-7.477-5.694-7.477-7.232c0,0.007,0,0.016,0,0.023
				c0,1.539,4.277,3.995,7.408,7.208c0.234,0.261,0.09,0.515,0.344,0.756c2.805,2.937,5.676,6.463,8.869,10.458
				c-2.389,14.066,2.972,53.507,15.513,84.304c-1.741,0.761-3.53,3.055-5.259,3.055c0.002,0-0.02,0-0.02,0
				c19.683-10.802,40.432-15.11,61.624-15.11c21.174,0,41.917,4.605,61.584,14.073c4.704-2.04,9.918-13.484,12.107-18.678
				c8.386-19.899,13.74-43.561,15.877-61.733C448.85,189.017,448.09,189.687,447.309,190.49z"/>
		</g>
		<g>
			<path fill="#84BD93" d="M361.319,38.558c0.141,0.447,0.277,0.937,0.416,1.397C361.595,39.492,361.458,39.004,361.319,38.558z"/>
			<path fill="#84BD93" d="M362.614,42.972c0.165,0.598,0.325,1.228,0.489,1.847C362.939,44.2,362.779,43.572,362.614,42.972z"/>
			<path fill="#84BD93" d="M363.867,47.81c0.169,0.697,0.337,1.412,0.502,2.128C364.202,49.219,364.036,48.508,363.867,47.81z"/>
			<path fill="#84BD93" d="M355.076,77.445c-1.374,0.34-2.711,0.812-4.004,1.46C352.365,78.255,353.706,77.792,355.076,77.445z"/>
			<path fill="#84BD93" d="M364.735,51.578c-2.17,6.827-4.278,15.703-5.828,25.288c-0.574,0.031-1.118,0.18-1.68,0.254
				c0.918-0.126,1.82-0.315,2.772-0.315c3.167,0,6.136,0.698,8.932,2.103C368.145,69.399,366.591,59.92,364.735,51.578z"/>
		</g>
		<g>
			<path fill="#84BD93" d="M308.81,107.107c0.178,0.324,0.358,0.666,0.536,0.997C309.168,107.773,308.989,107.431,308.81,107.107z"
				/>
			<path fill="#84BD93" d="M305.999,102.25c0.177,0.29,0.353,0.585,0.533,0.884C306.352,102.835,306.176,102.542,305.999,102.25z"/>
			<path fill="#84BD93" d="M311.574,112.378c0.146,0.288,0.29,0.573,0.435,0.866C311.864,112.951,311.721,112.668,311.574,112.378z"
				/>
			<path fill="#84BD93" d="M308.176,164.19c-0.356-0.443-0.713-0.873-1.073-1.313C307.461,163.315,307.821,163.75,308.176,164.19z"
				/>
			<path fill="#84BD93" d="M303.442,98.28c0.121,0.176,0.238,0.342,0.36,0.522C303.678,98.621,303.562,98.457,303.442,98.28z"/>
			<path fill="#84BD93" d="M313.499,116.379c-2.179,12.836-2.655,34.566,0.54,55.418c1.122,1.526,2.23,3.057,3.302,4.587
				c1.421-12.388,3.347-24.846,5.643-36.313C320.058,131.286,316.774,123.312,313.499,116.379z"/>
		</g>
		<path fill="#FFFFFF" d="M315.341,173.604c0.668,0.927,1.353,1.853,2,2.779c0.019-0.151,0.04-0.304,0.056-0.457
			C316.718,175.142,316.032,174.37,315.341,173.604z"/>
		<path fill="#EF8829" d="M217,497.96c0,4.843,0.088,9.579,0.243,14.238l21.586-12.458l-39.029-22.524l17.431,10.061
			C217.079,490.825,217,494.386,217,497.96z"/>
		<path fill="#EF8829" d="M309.297,322.234c-23.825,14.471-36.048,31.823-48.369,49.828l-21.746-12.55l26.864,15.504l67.354-38.873
			L309.297,322.234z"/>
		<path fill="#EF8829" d="M395.089,300.542c-5.63-0.925-11.313-1.438-17.033-1.438c-13.884,0-27.553,2.85-40.718,8.046
			l23.151,13.362l48.366-27.915L395.089,300.542z"/>
		<path fill="#EF8829" d="M266.046,406.285l-60.767,35.07l22.403-12.931c-2.645,5.591-6.508,15.688-7.867,29.076l46.101,26.604
			l67.487-38.948L266.046,406.285z"/>
		<path fill="#EF8829" d="M234.985,610.969l3.842-2.219l-26.526-15.31l20.63,11.907
			C233.583,607.218,234.269,609.093,234.985,610.969z"/>
		<path fill="#EF8829" d="M265.427,515.092l-45.79,26.425c0.499,6.105,1.532,15.625,3.635,26.991l42.641,24.61l67.358-38.873
			L265.427,515.092z"/>
		<path fill="#EF8829" d="M265.913,624.385l-28.8,16.622l9.405-5.428c11.567,20.246,28.012,38.291,51.391,48.089l35.362-20.409
			L265.913,624.385z"/>
	</g>
	<path fill="#3F2D20" d="M494.388,331.562c-14.586-19.955-30.951-36.322-48.528-48.803c5.643-6.751,9.726-15.076,12.799-22.37
		c7.342-17.423,37.362-108.987,2.778-123.565c-4.305-1.817-8.763-2.06-13.269-1.086c0.448-9.489,0.371-18.986-0.299-27.514
		c-0.769-9.765-3.103-39.483-22.655-43.629c-10.955-2.323-20.78,4.913-29.051,15.711c-0.923-13.701-3.343-28.94-6.769-42.029
		C385.091,21.845,377.358,0,360.004,0c-17.355,0-25.088,21.845-29.393,38.277c-3.432,13.09-5.85,28.327-6.772,42.023
		c-8.27-10.792-18.092-18.02-29.051-15.705c-19.551,4.146-21.883,33.87-22.651,43.635c-0.67,8.528-0.747,18.023-0.301,27.511
		c-4.51-0.974-8.962-0.731-13.269,1.083c-34.583,14.576-4.562,106.143,2.782,123.566c3.061,7.27,7.136,15.607,12.79,22.373
		c-17.577,12.482-33.938,28.847-48.524,48.8c-34.156,46.72-53.747,107.37-53.747,166.397c0,65.833,13.603,118.099,40.43,155.346
		c31.875,44.256,81.57,66.697,147.705,66.697c66.135,0,115.83-22.439,147.705-66.697c26.826-37.249,40.43-89.515,40.43-155.346
		C548.133,438.934,528.544,378.284,494.388,331.562z M516.245,448.643l-61.313,35.386l-67.844-39.153l67.354-38.873l60.145,34.709
		C515.18,443.339,515.727,445.984,516.245,448.643z M292.513,499.456L360,460.506l67.844,39.155l-67.487,38.948L292.513,499.456z
		 M427.714,608.752l-67.354,38.873l-67.358-38.873l67.354-38.873L427.714,608.752z M360.491,351.778l67.354,38.873l-67.354,38.873
		l-67.357-38.873L360.491,351.778z M360.488,320.512l-48.8-28.165c15.465-7.284,31.741-11.297,48.313-11.297
		c16.767,0,33.229,4.103,48.852,11.547L360.488,320.512z M494.153,383.08c3.135,6.34,6.037,12.876,8.682,19.584l-21.309-12.298
		L494.153,383.08z M481.08,359.926l-26.148,15.09l-67.354-38.871l47.461-27.392C452.36,322.029,468.017,339.509,481.08,359.926z
		 M418.722,95.292c2.95,11.735,4.042,36.718,0.349,60.446c-5.867,6.335-11.423,13.519-16.409,20.646
		c-1.425-12.386-3.348-24.843-5.643-36.309C403.867,119.517,412.676,103.021,418.722,95.292z M360.004,34.631
		c3.708,10.272,7.52,27.3,8.928,44.275c-2.796-1.404-5.765-2.103-8.932-2.103s-6.136,0.698-8.928,2.101
		C352.48,61.932,356.291,44.904,360.004,34.631z M301.278,95.292c6.048,7.727,14.858,24.22,21.705,44.778
		c-2.296,11.466-4.22,23.925-5.643,36.313c-4.988-7.124-10.546-14.307-16.41-20.641C297.237,132.009,298.328,107.026,301.278,95.292
		z M269.974,163.953c2.263,1.538,5.059,4.004,8.206,7.232c0.232,0.261,0.474,0.515,0.726,0.756
		c10.94,11.454,25.783,31.765,37.069,54.683c2.781,5.646,9.133,8.627,15.262,7.205c6.132-1.428,10.512-6.894,10.512-13.188v-0.582
		c0-44.625,17.125-104.976,19.804-110.852c2.683,5.884,19.804,69.083,19.804,110.852v0.587c0,6.296,2.83,11.76,8.962,13.188
		c6.125,1.418,11.683-1.559,14.464-7.207c11.29-22.938,25.769-43.26,36.715-54.71c0.212-0.204,0.225-0.419,0.425-0.639
		c3.181-3.275,5.917-5.775,8.202-7.327c2.61,14.021-3.156,54.564-16.372,85.921c-2.191,5.194-7.432,16.469-12.137,18.509
		c-19.668-9.47-40.43-14.412-61.604-14.412c-21.191,0-41.962,4.953-61.644,14.434c-3.303-1.511-7.689-8.158-12.062-18.533
		C273.091,218.516,267.369,177.974,269.974,163.953z M285.38,308.431l48.021,27.712l-67.354,38.873l-26.864-15.504
		C252.302,339.107,268.01,321.656,285.38,308.431z M225.846,383.084l13.11,7.564l-22.069,12.739
		C219.606,396.428,222.599,389.648,225.846,383.084z M205.279,441.355l22.403-12.931l38.363-22.14l67.357,38.874l-67.487,38.948
		l-46.101-26.605l-15.985-9.227C204.286,445.959,204.761,443.648,205.279,441.355z M198.948,497.96
		c0-6.961,0.292-13.881,0.853-20.744l39.03,22.524l-39.185,22.615C199.187,514.49,198.948,506.365,198.948,497.96z M203.456,557.07
		c-0.313-1.882-0.614-3.775-0.895-5.698l17.076-9.855l45.79-26.425l67.844,39.155l-67.358,38.873l-42.641-24.611L203.456,557.07z
		 M222.588,618.123c-3.914-7.646-7.346-15.872-10.289-24.681l20.63,11.907l5.896,3.402l-3.842,2.218L222.588,618.123z
		 M297.908,683.668c-24.985-8.447-45.242-22.708-60.795-42.659l9.405-5.429l19.395-11.194l67.358,38.875L297.908,683.668z
		 M360,692.921c-7.658,0-15.013-0.376-22.13-1.049l22.488-12.979l22.38,12.916C375.435,692.521,367.878,692.921,360,692.921z
		 M422.558,683.523l-35.108-20.265l67.354-38.873l28.307,16.337C467.624,660.702,447.453,675.017,422.558,683.523z M497.581,617.806
		l-15.688-9.054l25.626-14.79C504.658,602.451,501.348,610.404,497.581,617.806z M516.467,557.531l-61.663,35.589l-67.357-38.875
		l67.487-38.95l62.506,36.075C517.137,553.449,516.809,555.496,516.467,557.531z M482.021,499.663l38.206-22.053
		c0.54,6.733,0.825,13.522,0.825,20.35c0,8.207-0.224,16.156-0.659,23.849L482.021,499.663z"/>
</g>
</svg>
