<?xml version="1.0" encoding="iso-8859-1"?>
<!-- Generator: Adobe Illustrator 18.0.0, SVG Export Plug-In . SVG Version: 6.00 Build 0)  -->
<!DOCTYPE svg PUBLIC "-//W3C//DTD SVG 1.1//EN" "http://www.w3.org/Graphics/SVG/1.1/DTD/svg11.dtd">
<svg xmlns="http://www.w3.org/2000/svg" xmlns:xlink="http://www.w3.org/1999/xlink" version="1.1" id="Capa_1" x="0px" y="0px" viewBox="0 0 297 297" style="enable-background:new 0 0 297 297;" xml:space="preserve" width="512px" height="512px">
<g>
	<path d="M59.091,218.881c-12.838-9.674-23.235-22.638-29.687-37.913C22.369,188.772,4.356,210.65,0,234.284   C28.047,234.085,48.029,225.397,59.091,218.881z" fill="#642694"/>
	<path d="M233.216,196.316c14.512-14.511,22.523-34.559,21.98-55.002c-0.499-18.772-8.167-35.76-21.592-47.83   c-17.633-15.854-67.573-55.136-85.111-68.864c-17.571,13.72-67.642,53.005-85.304,68.868   c-20.808,18.688-27.104,51.376-15.311,79.49c11.5,27.422,39.213,45.368,69.002,44.693c2.128-0.05,4.244-0.191,6.345-0.42   c-2.582-2.086-5.066-4.32-7.446-6.7c-3.931-3.931-3.931-10.304,0-14.235c1.966-1.965,4.542-2.947,7.117-2.947   c2.577,0,5.152,0.982,7.118,2.947c13.783,13.784,32.108,21.375,51.601,21.375C201.106,217.691,219.433,210.1,233.216,196.316z" fill="#642694"/>
	<path d="M267.539,180.905c-4.732,10.969-11.514,21.072-20.088,29.646c-2.997,2.997-6.175,5.746-9.487,8.275   c11.157,6.529,31.24,15.255,59.036,15.457C292.632,210.585,274.532,188.653,267.539,180.905z" fill="#642694"/>
	<path d="M138.435,234.868c-6.872,1.768-13.927,2.764-21.088,2.929c-13.569,0.313-26.799-2.425-38.876-7.65   c-8.812,6.564-30.634,20.123-63.987,23.499c23.034,11.908,68.992,28.97,123.951,10.768V234.868z" fill="#642694"/>
	<path d="M158.565,264.413c54.959,18.202,100.917,1.141,123.951-10.768c-33.273-3.368-55.072-16.871-63.925-23.453   c-11.523,4.987-24.043,7.63-36.977,7.63c-7.882,0-15.604-0.995-23.05-2.883V264.413z" fill="#642694"/>
</g>
<g>
</g>
<g>
</g>
<g>
</g>
<g>
</g>
<g>
</g>
<g>
</g>
<g>
</g>
<g>
</g>
<g>
</g>
<g>
</g>
<g>
</g>
<g>
</g>
<g>
</g>
<g>
</g>
<g>
</g>
</svg>
