<?xml version="1.0" encoding="iso-8859-1"?>
<!-- Generator: Adobe Illustrator 19.0.0, SVG Export Plug-In . SVG Version: 6.00 Build 0)  -->
<svg xmlns="http://www.w3.org/2000/svg" xmlns:xlink="http://www.w3.org/1999/xlink" version="1.1" id="Capa_1" x="0px" y="0px" viewBox="0 0 466 466" style="enable-background:new 0 0 466 466;" xml:space="preserve" width="512px" height="512px">
<g>
	<path d="M388.978,142.788C363.003,110.156,327.076,86.275,287.209,75l4.941-40.918c0.335-2.771-0.799-5.516-2.991-7.242   c-2.191-1.728-5.125-2.188-7.741-1.215l-22.281,8.291L239.732,3.68C238.262,1.387,235.725,0,233,0s-5.262,1.387-6.732,3.68   l-19.404,30.236l-22.281-8.291c-2.615-0.973-5.55-0.513-7.741,1.215c-2.192,1.727-3.326,4.472-2.991,7.242L178.791,75   c-39.867,11.275-75.794,35.156-101.769,67.788c-28.304,35.56-43.264,78.428-43.264,123.971C33.759,376.621,123.138,466,233,466   s199.241-89.379,199.241-199.241C432.241,221.216,417.281,178.348,388.978,142.788z M233,450   c-101.039,0-183.241-82.202-183.241-183.241c0-84.774,57.448-157.981,139.704-178.025c3.937-0.959,6.534-4.71,6.049-8.731   L191.309,45.2l16.016,5.96c3.528,1.313,7.492-0.01,9.522-3.178L233,22.812l16.153,25.17c2.031,3.168,5.999,4.488,9.522,3.178   l16.016-5.96l-4.203,34.802c-0.485,4.021,2.112,7.772,6.049,8.731c82.256,20.044,139.704,93.251,139.704,178.025   C416.241,367.798,334.039,450,233,450z" fill="#c71e00"/>
	<path d="M233,141.759c-21.137,0-38.333,17.196-38.333,38.333c0,21.138,17.196,38.334,38.333,38.334s38.333-17.196,38.333-38.334   C271.333,158.955,254.137,141.759,233,141.759z M233,202.426c-12.314,0-22.333-10.019-22.333-22.334   c0-12.314,10.019-22.333,22.333-22.333s22.333,10.019,22.333,22.333C255.333,192.407,245.314,202.426,233,202.426z" fill="#c71e00"/>
	<path d="M177.111,190.229c-5.825-3.364-12.443-5.142-19.139-5.142c-13.667,0-26.398,7.346-33.226,19.172   c-10.568,18.306-4.274,41.796,14.03,52.363c5.825,3.364,12.443,5.142,19.14,5.142c13.667,0,26.398-7.347,33.225-19.172   C201.71,224.286,195.416,200.796,177.111,190.229z M177.285,234.592c-3.978,6.892-11.399,11.172-19.368,11.172   c-3.892,0-7.743-1.036-11.14-2.997c-10.665-6.157-14.331-19.843-8.175-30.508c3.979-6.891,11.401-11.172,19.37-11.172   c3.891,0,7.742,1.036,11.139,2.998C179.776,210.241,183.442,223.927,177.285,234.592z" fill="#c71e00"/>
	<path d="M124.747,329.259c6.827,11.825,19.56,19.171,33.226,19.171c6.695,0,13.313-1.777,19.139-5.141   c18.305-10.567,24.599-34.058,14.031-52.363c-6.827-11.826-19.56-19.172-33.227-19.172c-6.695,0-13.313,1.777-19.139,5.141   C120.473,287.463,114.179,310.954,124.747,329.259z M146.777,290.751c3.396-1.961,7.248-2.997,11.139-2.997   c7.969,0,15.392,4.28,19.369,11.172c6.157,10.665,2.491,24.351-8.174,30.507c-3.396,1.961-7.248,2.997-11.139,2.997   c-7.969,0-15.391-4.28-19.369-11.171C132.446,310.594,136.113,296.908,146.777,290.751z" fill="#c71e00"/>
	<path d="M233,391.759c21.137,0,38.333-17.196,38.333-38.333c0-21.138-17.196-38.334-38.333-38.334s-38.333,17.196-38.333,38.334   C194.667,374.562,211.863,391.759,233,391.759z M233,331.092c12.314,0,22.333,10.019,22.333,22.334   c0,12.314-10.019,22.333-22.333,22.333s-22.333-10.019-22.333-22.333C210.667,341.11,220.686,331.092,233,331.092z" fill="#c71e00"/>
	<path d="M288.889,343.29c5.825,3.362,12.443,5.14,19.139,5.14c13.666,0,26.398-7.346,33.227-19.171   c10.567-18.305,4.273-41.796-14.031-52.365c-5.825-3.362-12.443-5.14-19.139-5.14c-13.667,0-26.399,7.346-33.226,19.172   C264.29,309.231,270.584,332.722,288.889,343.29z M288.715,298.926c3.978-6.892,11.4-11.172,19.369-11.172   c3.891,0,7.742,1.036,11.139,2.996c10.664,6.158,14.331,19.844,8.175,30.509c-3.979,6.891-11.401,11.171-19.37,11.171   c-3.891,0-7.742-1.036-11.139-2.997C286.224,323.276,282.558,309.591,288.715,298.926z" fill="#c71e00"/>
	<path d="M308.083,261.764c6.696,0,13.314-1.777,19.14-5.141c18.305-10.568,24.599-34.059,14.03-52.364   c-6.827-11.826-19.559-19.172-33.226-19.172c-6.695,0-13.313,1.777-19.139,5.142c-18.305,10.567-24.599,34.058-14.031,52.363   C281.685,254.417,294.416,261.764,308.083,261.764z M296.889,204.084c3.396-1.961,7.248-2.997,11.139-2.997   c7.969,0,15.391,4.281,19.369,11.172c6.157,10.665,2.491,24.351-8.174,30.508c-3.396,1.961-7.248,2.997-11.14,2.997   c-7.969,0-15.391-4.28-19.368-11.172C282.558,223.927,286.224,210.241,296.889,204.084z" fill="#c71e00"/>
	<path d="M233,228.426c-21.137,0-38.333,17.196-38.333,38.333s17.196,38.333,38.333,38.333s38.333-17.196,38.333-38.333   S254.137,228.426,233,228.426z M233,289.092c-12.314,0-22.333-10.019-22.333-22.333s10.019-22.333,22.333-22.333   s22.333,10.019,22.333,22.333S245.314,289.092,233,289.092z" fill="#c71e00"/>
	<path d="M233,105.518c-88.909,0-161.241,72.332-161.241,161.241S144.091,428,233,428c12.247,0,24.459-1.381,36.294-4.104   c4.307-0.99,6.994-5.283,6.003-9.589c-0.99-4.306-5.285-7-9.589-6.003C255.047,410.757,244.042,412,233,412   c-80.086,0-145.241-65.155-145.241-145.241S152.914,121.518,233,121.518s145.241,65.155,145.241,145.241   c0,58.119-34.503,110.516-87.899,133.485c-4.059,1.746-5.934,6.451-4.188,10.51s6.45,5.935,10.51,4.188   c59.275-25.498,97.577-83.663,97.577-148.183C394.241,177.85,321.909,105.518,233,105.518z" fill="#c71e00"/>
</g>
<g>
</g>
<g>
</g>
<g>
</g>
<g>
</g>
<g>
</g>
<g>
</g>
<g>
</g>
<g>
</g>
<g>
</g>
<g>
</g>
<g>
</g>
<g>
</g>
<g>
</g>
<g>
</g>
<g>
</g>
</svg>
