<?xml version="1.0" encoding="utf-8"?>
<!-- Generator: Adobe Illustrator 15.1.0, SVG Export Plug-In . SVG Version: 6.00 Build 0)  -->
<!DOCTYPE svg PUBLIC "-//W3C//DTD SVG 1.1//EN" "http://www.w3.org/Graphics/SVG/1.1/DTD/svg11.dtd">
<svg version="1.1" id="Capa_1" xmlns="http://www.w3.org/2000/svg" xmlns:xlink="http://www.w3.org/1999/xlink" x="0px" y="0px"
	 width="720px" height="720px" viewBox="0 0 720 720" enable-background="new 0 0 720 720" xml:space="preserve">
<g>
	<path fill="#84BD93" d="M355.193,106.739v74.321c0,0,13.485-0.69,20.228,0v-67.176c0-6.255-2.227-35.788,18.271-49.124
		c8.441-5.493,15.442-7.127,28.928-4.918v-9.091c0-0.584-6.897-0.913-10.255-0.913C380.986,49.839,355.193,75.366,355.193,106.739z"
		/>
	<g>
		<path fill="#EF8829" d="M479.11,450.008c0-44.009-6.438-85.672-17.51-121.398C472.672,364.339,479.11,405.999,479.11,450.008
			L479.11,450.008z"/>
		<path fill="#EF8829" d="M435.305,268.536c7.378,12.146,14.04,25.99,19.81,41.197C449.345,294.526,442.683,280.684,435.305,268.536
			z"/>
		<path fill="#EF8829" d="M258.64,328.61c2.014-6.495,4.178-12.795,6.486-18.877C262.818,315.815,260.654,322.115,258.64,328.61z"/>
		<path fill="#EF8829" d="M455.114,309.733c2.308,6.082,4.475,12.382,6.488,18.877C459.589,322.115,457.422,315.815,455.114,309.733
			z"/>
		<path fill="#EF8829" d="M265.126,309.733c5.771-15.207,12.431-29.049,19.81-41.197
			C277.558,280.684,270.898,294.526,265.126,309.733z"/>
		<path fill="#EF8829" d="M258.64,328.61c-11.071,35.729-17.51,77.389-17.51,121.398l0,0
			C241.13,405.999,247.569,364.339,258.64,328.61z"/>
		<path fill="#EF8829" d="M478.537,472.384c0.369-7.381,0.573-14.838,0.573-22.374C479.11,457.546,478.908,465.005,478.537,472.384z
			"/>
		<path fill="#EF8829" d="M360.12,259.371c-60.625,0-112.403,95.558-118.404,213.353c5.974,117.844,57.759,213.469,118.404,213.469
			s112.428-95.623,118.404-213.465C472.525,354.933,420.747,259.371,360.12,259.371z"/>
		<path fill="#EF8829" d="M241.703,472.359c-0.369-7.372-0.573-14.822-0.573-22.35C241.13,457.537,241.334,464.987,241.703,472.359z
			"/>
	</g>
	<g>
		<path fill="#EF8829" d="M38.758,488.047c-0.89-5.478-1.611-11.035-2.234-16.636C37.145,477.012,37.871,482.567,38.758,488.047z"/>
		<path fill="#EF8829" d="M36.234,468.781c-0.557-5.385-0.991-10.822-1.299-16.304C35.243,457.962,35.679,463.394,36.234,468.781z"
			/>
		<path fill="#EF8829" d="M42.046,505.259c-1.229-5.612-2.326-11.303-3.266-17.077C39.72,493.956,40.819,499.645,42.046,505.259z"/>
		<path fill="#EF8829" d="M34.807,449.695c-0.272-5.675-0.449-11.384-0.449-17.14C34.355,438.312,34.535,444.021,34.807,449.695z"/>
		<path fill="#EF8829" d="M79.861,444.359c0-69.03,16.537-134.181,46.56-183.503c-13.996,10.217-27.013,24.388-38.469,42.258
			c-26.806,41.817-41.57,97.747-41.57,157.497c0,39.087,6.356,76.51,18.231,109.447c3.502,6.952,7.25,13.649,11.314,19.987
			c17.749,27.688,39.221,46.603,62.324,55.455c-4.037-5.463-7.936-11.246-11.671-17.364
			C96.452,578.784,79.861,513.518,79.861,444.359z"/>
		<path fill="#EF8829" d="M46.303,522.321c-1.506-5.369-2.883-10.826-4.11-16.375C43.417,511.497,44.8,516.952,46.303,522.321z"/>
		<path fill="#EF8829" d="M64.605,570.045c-7.271-14.442-13.301-30.132-18.023-46.734C51.3,539.922,57.332,555.603,64.605,570.045z"
			/>
	</g>
	<g>
		<path fill="#EF8829" d="M114.269,465.814c0.319,5.899,0.784,11.741,1.364,17.535C115.055,477.558,114.587,471.714,114.269,465.814
			z"/>
		<path fill="#EF8829" d="M115.972,486.563c0.629,5.79,1.373,11.525,2.261,17.189C117.345,498.091,116.602,492.354,115.972,486.563z
			"/>
		<path fill="#EF8829" d="M127.261,343.747c1.978-6.884,4.163-13.609,6.552-20.153C131.424,330.138,129.239,336.865,127.261,343.747
			z"/>
		<path fill="#EF8829" d="M124.45,354.189c-7.075,28.146-10.784,58.656-10.784,90.17l0,0
			C113.666,412.847,117.375,382.335,124.45,354.189z"/>
		<path fill="#EF8829" d="M118.635,506.162c1.942,11.869,4.446,23.421,7.487,34.585
			C123.079,529.586,120.577,518.031,118.635,506.162z"/>
		<path fill="#EF8829" d="M268.65,232.483c0.564-0.735,1.106-1.521,1.675-2.243C269.754,230.964,269.212,231.746,268.65,232.483z"/>
		<path fill="#EF8829" d="M138.198,576.332c-2.029-4.902-3.924-9.932-5.713-15.052C134.273,566.402,136.168,571.43,138.198,576.332z
			"/>
		<path fill="#EF8829" d="M113.666,444.361c0,6.294,0.189,12.532,0.481,18.735C113.855,456.896,113.666,450.657,113.666,444.361z"/>
		<path fill="#EF8829" d="M131.592,558.688c-1.737-5.124-3.364-10.343-4.857-15.663
			C128.228,548.346,129.855,553.563,131.592,558.688z"/>
		<path fill="#EF8829" d="M262.234,241.271c-0.157,0.229-0.326,0.432-0.481,0.661c-0.638-0.018-1.272-0.049-1.91-0.049
			c-34.23,0-67.042,22.864-92.384,64.375c-26.932,44.119-41.766,103.129-41.766,166.16c0,43.282,6.997,84.673,20.104,120.643
			c-2.417-4.842-4.677-9.852-6.835-14.96c4.85,11.482,10.332,22.354,16.475,32.418c25.343,41.519,58.154,64.381,92.386,64.381
			c7.938,0,15.816-1.272,23.579-3.729c-39.024-48.44-64.073-128.682-64.073-221.164
			C207.325,365.004,228.512,290.404,262.234,241.271z"/>
	</g>
	<g>
		<path fill="#EF8829" d="M601.77,503.753c0.888-5.662,1.631-11.399,2.261-17.189C603.4,492.354,602.657,498.091,601.77,503.753z"/>
		<path fill="#EF8829" d="M598.074,523.722c1.247-5.761,2.321-11.631,3.29-17.56C600.396,512.091,599.324,517.961,598.074,523.722z"
			/>
		<path fill="#EF8829" d="M598.074,523.729c-1.25,5.77-2.67,11.427-4.191,17.009C595.404,535.155,596.824,529.498,598.074,523.729z"
			/>
		<path fill="#EF8829" d="M606.334,444.359c0-31.515-3.709-62.024-10.784-90.17C602.625,382.335,606.334,412.847,606.334,444.359
			L606.334,444.359z"/>
		<path fill="#EF8829" d="M604.367,483.35c0.58-5.794,1.048-11.636,1.366-17.535C605.412,471.714,604.947,477.558,604.367,483.35z"
			/>
		<path fill="#EF8829" d="M605.853,463.1c0.295-6.203,0.483-12.442,0.483-18.735C606.334,450.657,606.146,456.896,605.853,463.1z"/>
		<path fill="#EF8829" d="M588.41,558.688c1.737-5.124,3.362-10.339,4.854-15.656C591.772,548.35,590.145,553.564,588.41,558.688z"
			/>
		<path fill="#EF8829" d="M586.189,323.594c2.389,6.544,4.573,13.269,6.552,20.153C590.763,336.865,588.576,330.138,586.189,323.594
			z"/>
		<path fill="#EF8829" d="M574.21,593.056c2.414-4.837,4.671-9.84,6.826-14.941C578.881,583.218,576.624,588.221,574.21,593.056z"/>
		<path fill="#EF8829" d="M581.807,576.322c2.029-4.899,3.922-9.925,5.711-15.042C585.729,566.397,583.834,571.426,581.807,576.322z
			"/>
		<path fill="#EF8829" d="M594.312,472.42c0-63.029-14.833-122.041-41.766-166.159c-25.343-41.514-58.154-64.376-92.387-64.376
			c-0.575,0-1.148,0.027-1.726,0.045c33.47,49.14,54.484,123.443,54.484,208.082c0,92.518-25.069,172.78-64.115,221.22
			c7.698,2.411,15.511,3.674,23.379,3.674c34.232,0,67.041-22.861,92.387-64.38c3.412-5.587,6.623-11.417,9.642-17.461
			C587.315,557.091,594.312,515.702,594.312,472.42z"/>
		<path fill="#EF8829" d="M472.182,213.825L472.182,213.825c-10.446,0-20.756,2.122-30.822,6.315
			c0.007,0.007,0.014,0.016,0.02,0.022C451.441,215.969,461.742,213.825,472.182,213.825z"/>
	</g>
	<g>
		<path fill="#EF8829" d="M314.738,191.765v-8.226c-13.485-2.402-20.437-3.706-31.351-3.706c-6.72,0-13.006,0.553-18.702,1.465
			c-0.164-0.024-0.369-0.031-0.533-0.056c14.638,2.16,29.016,7.215,42.694,15.162c2.551-1.634,7.891-3.14,7.891-4.538
			C314.738,191.833,314.738,191.801,314.738,191.765z"/>
		<path fill="#EF8829" d="M257.645,180.503c-0.553-0.049-1.104-0.128-1.656-0.171C256.543,180.373,257.092,180.454,257.645,180.503z
			"/>
	</g>
	<g>
		<path fill="#EF8829" d="M453.352,166.681c-0.449-0.016-0.865-0.056-1.319-0.067c-0.147-0.004-0.29,0.016-0.438,0.014
			C452.194,166.629,452.759,166.669,453.352,166.681z"/>
		<path fill="#EF8829" d="M439.631,179.833c-10.894,0-27.15,1.108-33.07,3.504l-0.647,7.399c0,0.38,0.763,2.493,0.74,2.868
			c1.939,1.088,5.276,1.515,7.181,2.729c13.788-7.99,28.327-13.056,43.087-15.168C451.531,180.353,445.922,179.833,439.631,179.833z
			"/>
	</g>
	<g>
		<path fill="#EF8829" d="M655.384,570.065c11.878-32.938,18.234-70.363,18.234-109.452c0-59.75-14.765-115.68-41.57-157.497
			c-11.453-17.868-24.471-32.036-38.464-42.255c30.022,49.319,46.557,114.468,46.557,183.499
			c0,69.158-16.593,134.422-46.719,183.777c-3.742,6.132-7.648,11.926-11.693,17.396c23.106-8.862,44.59-27.784,62.346-55.485
			c12.512-19.517,22.363-42.141,29.351-66.763C668.698,539.904,662.663,555.612,655.384,570.065z"/>
		<path fill="#EF8829" d="M685.192,449.695c0.272-5.678,0.452-11.384,0.452-17.14C685.643,438.312,685.465,444.021,685.192,449.695z
			"/>
		<path fill="#EF8829" d="M644.072,275.058c23.457,36.59,37.69,83.986,40.885,135.292c-3.191-51.306-17.428-98.704-40.883-135.291
			c-24.377-38.028-55.774-59.539-88.772-61.085l0,0C588.302,215.519,619.697,237.035,644.072,275.058z"/>
		<path fill="#EF8829" d="M685.063,452.478c-0.306,5.481-0.742,10.919-1.299,16.306
			C684.318,463.396,684.757,457.962,685.063,452.478z"/>
		<path fill="#EF8829" d="M673.689,522.349c1.509-5.383,2.893-10.852,4.122-16.416C676.58,511.495,675.2,516.966,673.689,522.349z"
			/>
		<path fill="#EF8829" d="M681.239,488.049c0.888-5.479,1.613-11.037,2.236-16.643C682.854,477.01,682.129,482.572,681.239,488.049z
			"/>
		<path fill="#EF8829" d="M677.946,505.292c1.229-5.628,2.333-11.332,3.272-17.121C680.277,493.958,679.179,499.664,677.946,505.292
			z"/>
	</g>
	<path fill="#3F2D20" d="M672.534,256.813c-31.152-48.591-73.127-75.746-118.441-76.746
		c-14.166-28.312-54.938-47.259-102.061-47.259c-15.425,0-30.517,2.079-44.285,5.979v-25.532c0-0.436-0.024-0.96-0.058-1.391
		c-0.592-7.655,1.411-17.128,3.967-18.774c1.107-0.721,7.214-1.144,20.216,6.03c5.237,2.888,11.608,2.8,16.758-0.247
		c5.149-3.037,8.312-8.574,8.312-14.553V25.671c0-6.221-3.416-11.935-8.892-14.883C434.936,3.729,420.091,0,405.127,0
		c-50.017,0-90.708,40.691-90.708,90.706v47.879c-13.555-3.756-28.361-5.776-43.469-5.776c-47.243,0-87.88,19.122-102.044,47.218
		c-0.135,0-0.265-0.009-0.398-0.009c-46.31,0-89.296,27.273-121.042,76.793C17.211,304.004,0.551,366.418,0.551,432.556
		c0,66.133,16.661,128.547,46.917,175.738c31.746,49.523,74.734,76.8,121.042,76.8c2.865,0,5.751-0.119,8.633-0.335
		c21.758,15.688,45.726,23.949,70.678,23.949c17.043,0,33.719-3.881,49.726-11.55C316.557,711.864,337.703,720,360.122,720
		c22.386,0,43.499-8.109,62.483-22.77c15.962,7.623,32.587,11.48,49.576,11.48c24.952,0,48.92-8.262,70.678-23.95
		c2.886,0.216,5.771,0.335,8.638,0.335c46.308,0,89.294-27.273,121.04-76.8c30.254-47.191,46.914-109.604,46.914-175.738
		C719.449,366.418,702.788,304.004,672.534,256.813z M247.818,674.901c-34.229,0-67.042-22.862-92.384-64.38
		c-26.932-44.119-41.766-103.13-41.766-166.162c0-63.029,14.833-122.04,41.766-166.159c25.343-41.514,58.155-64.375,92.384-64.375
		c10.5,0,20.864,2.162,30.982,6.405c-43.231,47.182-71.476,131.57-71.476,229.78c0,92.483,25.049,172.725,64.072,221.165
		C263.634,673.629,255.757,674.901,247.818,674.901z M164.698,213.973c-13.919,12.381-26.75,27.986-38.12,46.611
		c-30.126,49.353-46.719,114.619-46.719,183.775c0,69.158,16.593,134.425,46.719,183.777c3.735,6.118,7.635,11.903,11.671,17.364
		c-23.102-8.853-44.575-27.768-62.324-55.455c-26.806-41.817-41.57-97.747-41.57-157.492c0-59.751,14.764-115.68,41.57-157.498
		C100.302,237.035,131.698,215.519,164.698,213.973z M314.424,191.866c-2.614,1.4-5.203,2.906-7.754,4.538
		c-18.708-10.869-38.455-16.389-58.852-16.389c-13.462,0-26.638,2.416-39.336,7.095c-0.771-0.276,21.561-20.5,62.467-20.5
		c15.719,0,30.767,2.65,43.469,7.491v17.661C314.419,191.801,314.424,191.833,314.424,191.866z M241.13,450.008
		c0-128.028,54.489-236.186,118.99-236.186c64.499,0,118.99,108.158,118.99,236.186c0,128.023-54.491,236.185-118.99,236.185
		S241.13,578.031,241.13,450.008z M348.224,90.706c0-31.371,25.525-56.898,56.903-56.898c6.134,0,12.23,0.996,18.007,2.917v23.118
		c-11.469-2.209-21.486-0.578-29.926,4.918c-20.497,13.336-19.688,42.869-19.271,49.124v67.176
		c-4.546-0.692-9.156-1.042-13.819-1.042c-4.01,0-7.975,0.272-11.896,0.787V90.706H348.224z M511.52,187.113
		c-12.698-4.679-25.875-7.095-39.338-7.095c-20.352,0-40.051,5.493-58.721,16.313c-1.904-1.216-3.83-2.36-5.77-3.448
		c0.022-0.373,0.054-0.74,0.054-1.117v-17.349c12.865-5.039,28.204-8.165,44.285-7.803
		C492.611,167.517,512.977,186.584,511.52,187.113z M512.918,450.008c0-98.271-28.285-182.704-71.559-229.868
		c10.066-4.194,20.376-6.315,30.822-6.315c34.232,0,67.044,22.864,92.387,64.375c26.932,44.119,41.766,103.13,41.766,166.159
		S591.5,566.4,564.568,610.521c-25.346,41.518-58.154,64.38-92.387,64.38c-7.869,0-15.679-1.264-23.379-3.675
		C487.85,622.79,512.918,542.526,512.918,450.008z M593.422,628.137c30.126-49.353,46.719-114.619,46.719-183.777
		c0-69.156-16.593-134.422-46.719-183.775c-11.37-18.623-24.201-34.23-38.12-46.611c32.998,1.546,64.394,23.057,88.772,61.083
		c26.804,41.813,41.568,97.747,41.568,157.498c0,59.745-14.765,115.68-41.568,157.492c-17.756,27.701-39.237,46.625-62.346,55.484
		C585.773,640.063,589.68,634.269,593.422,628.137z"/>
</g>
</svg>
