<?xml version="1.0" encoding="iso-8859-1"?>
<!-- Generator: Adobe Illustrator 18.1.1, SVG Export Plug-In . SVG Version: 6.00 Build 0)  -->
<svg xmlns="http://www.w3.org/2000/svg" xmlns:xlink="http://www.w3.org/1999/xlink" version="1.1" id="Capa_1" x="0px" y="0px" viewBox="0 0 49.127 49.127" style="enable-background:new 0 0 49.127 49.127;" xml:space="preserve" width="512px" height="512px">
<g>
	<g id="b1_pear">
		<path d="M34.643,22.622c0.111-0.655,0.178-1.329,0.178-2.019c0-6.133-4.592-11.106-10.256-11.106    S14.309,14.47,14.309,20.603c0,0.69,0.066,1.364,0.178,2.019c-3.565,2.741-5.842,6.902-5.842,11.565    c0,8.251,7.129,14.94,15.92,14.94s15.917-6.689,15.917-14.94C40.482,29.524,38.207,25.363,34.643,22.622z" fill="#FFDA44"/>
		<path d="M24.565,11.433c-1.224-1.183-2.006-2.087-2.678-2.912c-0.654-0.82-1.152-1.51-1.562-2.161    c-0.412-0.656-0.713-1.292-1.131-2.126c-0.412-0.85-0.984-1.826-1.844-3.325c1.402-0.991,3.037-1.112,4.545-0.649    c1.507,0.472,2.834,1.565,3.629,2.894c0.819,1.324,1.151,2.84,1.025,4.279C26.399,8.867,25.875,10.296,24.565,11.433z" fill="#FFDA44"/>
		<path d="M26.228,8.691c0.063-1.093,0.521-1.845,1.045-2.464c0.543-0.601,1.211-1.028,1.943-1.271    c0.73-0.246,1.527-0.312,2.329-0.146c0.796,0.172,1.602,0.54,2.305,1.36c-0.65,0.889-1.201,1.357-1.735,1.794    c-0.538,0.392-1.056,0.678-1.612,0.857c-0.556,0.18-1.145,0.271-1.82,0.27C27.991,9.071,27.264,8.991,26.228,8.691z" fill="#FFDA44"/>
	</g>
</g>
<g>
</g>
<g>
</g>
<g>
</g>
<g>
</g>
<g>
</g>
<g>
</g>
<g>
</g>
<g>
</g>
<g>
</g>
<g>
</g>
<g>
</g>
<g>
</g>
<g>
</g>
<g>
</g>
<g>
</g>
</svg>
