<?xml version="1.0" encoding="utf-8"?>
<!-- Generator: Adobe Illustrator 16.0.0, SVG Export Plug-In . SVG Version: 6.00 Build 0)  -->
<!DOCTYPE svg PUBLIC "-//W3C//DTD SVG 1.1//EN" "http://www.w3.org/Graphics/SVG/1.1/DTD/svg11.dtd">
<svg xmlns="http://www.w3.org/2000/svg" xmlns:xlink="http://www.w3.org/1999/xlink" version="1.1" id="Layer_1" x="0px" y="0px" width="512px" height="512px" viewBox="0 0 512 512" enable-background="new 0 0 512 512" xml:space="preserve">
<g>
	<path d="M402.737,294.873C379.886,193.409,320.257,46.679,165.236,10.69c-6.288-1.454-12.924,0.996-16.748,6.257   c-0.836,1.151-1.494,2.391-1.992,3.679c-28.199-1.094-66.873,21.733-97.297,60.226c-24.429,30.914-35.82,82.937-40.956,118.076   c-1.185,8.059,2.007,16.133,8.391,21.181c6.384,5.056,14.994,6.313,22.563,3.311c32.992-13.114,80.978-36.223,105.437-67.144   c14.94-18.9,25.743-38.864,31.976-57.509c17.503,48.426,34.427,119.345,23.016,194.978c-5.193-0.807-10.514-1.229-15.933-1.229   c-56.866,0-102.972,46.097-102.972,102.964c0,56.865,46.105,102.956,102.972,102.956c56.834,0,102.957-46.091,102.957-102.956   c0-39.771-22.563-74.27-55.568-91.421c18.044-105.234-15.05-200.983-37.545-250.611   c109.513,44.413,156.438,161.267,176.404,246.179c-40.555,12.984-69.926,50.986-69.926,95.853   c0,55.579,45.063,100.625,100.635,100.625c55.585,0,100.633-45.046,100.633-100.625   C501.281,340.599,457.357,295.986,402.737,294.873z M186.078,342.199c-22.901,1.798-39.408,11.535-49.063,28.94   c-7.689,13.862-8.348,27.757-8.354,27.896c-0.238,7.853-6.679,14.021-14.48,14.021c-0.15,0-0.301-0.002-0.452-0.007   c-8.004-0.244-14.295-6.969-14.051-14.973c0.062-2.021,0.9-20.301,11.298-39.755c10.005-18.721,30.762-41.729,72.833-45.032   c7.973-0.628,14.964,5.337,15.59,13.321C200.025,334.592,194.062,341.572,186.078,342.199z M403.797,342.199   c-22.901,1.798-39.408,11.535-49.063,28.94c-7.689,13.862-8.348,27.757-8.354,27.896c-0.238,7.853-6.679,14.021-14.48,14.021   c-0.15,0-0.301-0.002-0.452-0.007c-8.004-0.244-14.295-6.969-14.051-14.973c0.062-2.021,0.9-20.301,11.298-39.755   c10.005-18.721,30.762-41.729,72.833-45.032c7.973-0.628,14.964,5.337,15.59,13.321   C417.744,334.592,411.78,341.572,403.797,342.199z" fill="#4b225e"/>
</g>
</svg>
