<?xml version="1.0" encoding="utf-8"?>
<!-- Generator: Adobe Illustrator 15.1.0, SVG Export Plug-In . SVG Version: 6.00 Build 0)  -->
<!DOCTYPE svg PUBLIC "-//W3C//DTD SVG 1.1//EN" "http://www.w3.org/Graphics/SVG/1.1/DTD/svg11.dtd">
<svg version="1.1" id="Capa_1" xmlns="http://www.w3.org/2000/svg" xmlns:xlink="http://www.w3.org/1999/xlink" x="0px" y="0px"
	 width="720px" height="720px" viewBox="0 0 720 720" enable-background="new 0 0 720 720" xml:space="preserve">
<g>
	<g>
		<path fill="#CE593F" d="M514.518,246.413c0.508,0.143,1.036,0.296,1.599,0.471C515.552,246.709,515.027,246.556,514.518,246.413z"
			/>
		<path fill="#CE593F" d="M512.782,245.948c0.433,0.108,0.883,0.224,1.376,0.361C513.665,246.174,513.215,246.059,512.782,245.948z"
			/>
		<path fill="#CE593F" d="M518.766,247.771c0.635,0.224,1.283,0.464,1.959,0.726C520.049,248.235,519.4,247.997,518.766,247.771z"/>
		<path fill="#CE593F" d="M516.533,247.019c0.571,0.18,1.158,0.373,1.778,0.589C517.691,247.394,517.104,247.201,516.533,247.019z"
			/>
		<path fill="#CE593F" d="M188.502,300.468c-0.342,0.369-0.651,0.756-0.956,1.159C187.847,301.227,188.162,300.836,188.502,300.468z
			"/>
		<path fill="#CE593F" d="M511.254,245.59c0.369,0.081,0.761,0.168,1.2,0.276C512.015,245.758,511.625,245.671,511.254,245.59z"/>
		<path fill="#CE593F" d="M186,304.135c0.242-0.494,0.491-0.983,0.784-1.445C186.491,303.155,186.244,303.642,186,304.135z"/>
		<path fill="#CE593F" d="M521.208,248.691c0.685,0.272,1.383,0.558,2.104,0.869C522.589,249.247,521.893,248.961,521.208,248.691z"
			/>
		<path fill="#CE593F" d="M510.146,245.362c0.271,0.052,0.561,0.108,0.9,0.18C510.706,245.47,510.418,245.414,510.146,245.362z"/>
		<path fill="#CE593F" d="M509.164,245.186c0.197,0.031,0.458,0.077,0.767,0.133C509.62,245.262,509.361,245.219,509.164,245.186z"
			/>
		<path fill="#CE593F" d="M538.973,258.629c0.794,0.588,1.593,1.205,2.391,1.847C540.563,259.836,539.769,259.22,538.973,258.629z"
			/>
		<path fill="#CE593F" d="M542.209,261.163c0.784,0.647,1.569,1.321,2.354,2.02C543.776,262.483,542.995,261.81,542.209,261.163z"/>
		<path fill="#CE593F" d="M545.45,263.98c0.771,0.705,1.54,1.443,2.308,2.202C546.988,265.421,546.221,264.686,545.45,263.98z"/>
		<path fill="#CE593F" d="M184.915,307.04c0.162-0.62,0.33-1.236,0.566-1.822C185.245,305.804,185.079,306.42,184.915,307.04z"/>
		<path fill="#CE593F" d="M526.648,251.105c0.755,0.371,1.522,0.759,2.304,1.176C528.171,251.864,527.405,251.474,526.648,251.105z"
			/>
		<path fill="#CE593F" d="M523.857,249.803c0.722,0.319,1.458,0.655,2.211,1.016C525.315,250.458,524.581,250.122,523.857,249.803z"
			/>
		<path fill="#CE593F" d="M532.641,254.379c0.788,0.477,1.586,0.975,2.391,1.501C534.225,255.353,533.431,254.855,532.641,254.379z"
			/>
		<path fill="#CE593F" d="M529.593,252.629c0.775,0.423,1.562,0.867,2.359,1.337C531.154,253.496,530.37,253.052,529.593,252.629z"
			/>
		<path fill="#CE593F" d="M535.781,256.379c0.795,0.531,1.597,1.089,2.401,1.671C537.376,257.466,536.578,256.91,535.781,256.379z"
			/>
		<path fill="#CE593F" d="M338.475,683.117c-1.475-0.635-2.922-1.316-4.346-2.042C335.553,681.801,337,682.484,338.475,683.117z"/>
		<path fill="#CE593F" d="M331.836,679.855c-1.414-0.781-2.812-1.59-4.179-2.457C329.024,678.268,330.422,679.074,331.836,679.855z"
			/>
		<path fill="#CE593F" d="M345.516,685.731c-1.56-0.485-3.079-1.043-4.584-1.625C342.437,684.688,343.956,685.244,345.516,685.731z"
			/>
		<path fill="#CE593F" d="M325.595,676.021c-1.379-0.933-2.749-1.88-4.08-2.896C322.848,674.144,324.218,675.089,325.595,676.021z"
			/>
		<path fill="#CE593F" d="M195.593,296.093c-0.421,0.122-0.844,0.232-1.248,0.388C194.749,296.323,195.174,296.215,195.593,296.093z
			"/>
		<path fill="#CE593F" d="M548.28,266.703c-2.898-0.846-4.993-1.235-5.887-1.378c-0.833-0.068-70.784-15.352-149.325-14.646
			c-76.342,0.684-147.912,14.514-148.671,14.603c-1.673,0.229-27.275,4.147-47.094,30.362c-0.056,0.009-0.105,0.033-0.162,0.044
			c0.91-0.166,2.882-0.282,3.84-0.282c8.613,0,16.637,6.981,16.637,15.594v23.215c0,8.613-7.974,15.592-16.587,15.592
			s-16.587-6.981-16.587-15.592v-15.326c-4.147,15.351-10.255,35.04-10.255,60.308c0,71.659,25.027,126.081,78.814,171.274
			c18.772,15.773,32.428,40.708,46.897,67.11c13.742,25.071,27.769,50.604,46.273,68.336c4.399,1.325,8.965,2.339,13.827,2.817
			c45.757-4.516,69.951-48.609,93.341-91.292c14.472-26.398,28.136-51.336,46.91-67.108c53.789-45.195,78.837-99.617,78.837-171.274
			C579.09,310.743,564.301,282.819,548.28,266.703z M267.379,451.85c0,8.613-5.901,15.594-14.514,15.594s-14.514-6.98-14.514-15.594
			v-23.215c0-8.613,5.901-15.592,14.514-15.592s14.514,6.98,14.514,15.592V451.85z M321.286,569.492
			c0,8.613-7.974,15.594-16.587,15.594c-8.613,0-16.587-6.98-16.587-15.594v-23.215c0-8.613,7.974-15.594,16.587-15.594
			c8.613,0,16.587,6.98,16.587,15.594V569.492z M321.286,334.209c0,8.613-7.974,15.592-16.587,15.592
			c-8.613,0-16.587-6.981-16.587-15.592v-23.215c0-8.613,7.974-15.594,16.587-15.594c8.613,0,16.587,6.981,16.587,15.594V334.209z
			 M375.193,451.85c0,8.613-7.974,15.594-16.587,15.594c-8.612,0-16.587-6.98-16.587-15.594v-23.215
			c0-8.613,7.975-15.592,16.587-15.592c8.613,0,16.587,6.98,16.587,15.592V451.85z M429.101,569.492
			c0,8.613-7.974,15.594-16.587,15.594c-8.612,0-16.586-6.98-16.586-15.594v-23.215c0-8.613,7.974-15.594,16.586-15.594
			c8.613,0,16.587,6.98,16.587,15.594V569.492z M429.101,334.209c0,8.613-7.974,15.592-16.587,15.592
			c-8.612,0-16.586-6.981-16.586-15.592v-23.215c0-8.613,7.974-15.594,16.586-15.594c8.613,0,16.587,6.981,16.587,15.594V334.209z
			 M478.861,451.85c0,8.613-3.827,15.594-12.439,15.594c-8.613,0-12.44-6.98-12.44-15.594v-23.215
			c0-8.613,3.827-15.592,12.44-15.592c8.612,0,12.439,6.98,12.439,15.592V451.85z M532.77,334.209
			c0,8.613-3.828,15.592-12.44,15.592c-8.613,0-12.44-6.981-12.44-15.592v-23.215c0-8.613,3.827-15.594,12.44-15.594
			c8.612,0,12.44,6.981,12.44,15.594V334.209z"/>
		<path fill="#CE593F" d="M192.949,297.127c-0.398,0.201-0.794,0.402-1.173,0.636C192.155,297.53,192.551,297.329,192.949,297.127z"
			/>
		<path fill="#CE593F" d="M319.791,671.74c-1.389-1.113-2.773-2.23-4.113-3.429C317.018,669.51,318.404,670.625,319.791,671.74z"/>
		<path fill="#CE593F" d="M190.571,298.602c-0.375,0.282-0.734,0.576-1.081,0.892C189.835,299.178,190.198,298.883,190.571,298.602z
			"/>
		<path fill="#CE593F" d="M276.954,615.946c-0.68-1.194-1.362-2.382-2.036-3.583C275.591,613.564,276.275,614.754,276.954,615.946z"
			/>
		<path fill="#CE593F" d="M184.347,310.994c0-1.024,0.114-2.021,0.301-2.99C184.459,308.975,184.347,309.97,184.347,310.994z"/>
		<path fill="#CE593F" d="M300.256,651.683c-1.105-1.399-2.181-2.851-3.257-4.302C298.075,648.832,299.151,650.281,300.256,651.683z
			"/>
		<path fill="#CE593F" d="M281.453,623.682c-0.773-1.304-1.546-2.608-2.312-3.925C279.904,621.076,280.679,622.378,281.453,623.682z
			"/>
		<path fill="#CE593F" d="M301.374,653.045c4.217,5.233,8.665,10.074,13.4,14.412C310.036,663.121,305.593,658.274,301.374,653.045z
			"/>
		<path fill="#CE593F" d="M272.284,607.641c-0.516-0.932-1.037-1.858-1.551-2.791C271.248,605.782,271.768,606.709,272.284,607.641z
			"/>
		<path fill="#CE593F" d="M295.328,645.127c-0.985-1.366-1.949-2.764-2.911-4.166C293.379,642.365,294.345,643.761,295.328,645.127z
			"/>
		<path fill="#CE593F" d="M285.952,631.08c-0.836-1.336-1.663-2.677-2.484-4.031C284.287,628.403,285.116,629.744,285.952,631.08z"
			/>
		<path fill="#CE593F" d="M290.565,638.241c-0.898-1.348-1.785-2.712-2.667-4.087C288.78,635.529,289.667,636.894,290.565,638.241z"
			/>
	</g>
	<g>
		<path fill="#84BD93" d="M374.661,98.304c0.253-0.697,0.458-1.416,0.609-2.148C375.119,96.888,374.914,97.605,374.661,98.304z"/>
		<path fill="#84BD93" d="M373.759,100.326c0.129-0.24,0.218-0.498,0.332-0.744C373.975,99.828,373.886,100.087,373.759,100.326z"/>
		<path fill="#84BD93" d="M438.004,31.911c1.652,1.371,3.177,2.876,4.604,4.474C441.181,34.789,439.656,33.284,438.004,31.911z"/>
		<path fill="#84BD93" d="M324.938,55.755c-0.587-0.643-1.178-1.269-1.775-1.878C323.76,54.484,324.351,55.112,324.938,55.755z"/>
		<path fill="#84BD93" d="M372.588,102.192c0.052-0.07,0.091-0.153,0.143-0.226C372.679,102.039,372.64,102.119,372.588,102.192z"/>
		<path fill="#84BD93" d="M327.286,58.473c0.511,0.616,1.028,1.207,1.528,1.849C328.314,59.68,327.797,59.089,327.286,58.473z"/>
		<path fill="#84BD93" d="M443.81,37.901c0.96,1.171,1.911,2.352,2.768,3.618C445.719,40.254,444.771,39.072,443.81,37.901z"/>
		<path fill="#84BD93" d="M548.438,149.863c0.354,0.487,0.685,0.964,1.014,1.443C549.12,150.825,548.796,150.352,548.438,149.863z"
			/>
		<path fill="#84BD93" d="M542.558,142.925c-0.321-0.324-0.672-0.63-1.006-0.95C541.884,142.295,542.238,142.604,542.558,142.925z"
			/>
		<path fill="#84BD93" d="M545.703,146.353c0.268,0.317,0.497,0.634,0.754,0.952C546.2,146.985,545.973,146.67,545.703,146.353z"/>
		<path fill="#84BD93" d="M550.745,153.25c0.319,0.502,0.643,1.005,0.936,1.491C551.384,154.252,551.068,153.761,550.745,153.25z"/>
		<path fill="#84BD93" d="M319.097,49.997c0.55,0.481,1.087,1.012,1.63,1.518C320.184,51.007,319.646,50.478,319.097,49.997z"/>
		<path fill="#84BD93" d="M537.492,138.488c0.463,0.354,0.919,0.713,1.362,1.08C538.411,139.199,537.957,138.845,537.492,138.488z"
			/>
		<path fill="#84BD93" d="M450.923,49.242c0.637,1.335,1.257,2.683,1.813,4.072C452.18,51.925,451.562,50.58,450.923,49.242z"/>
		<path fill="#84BD93" d="M533.119,135.49c0.479,0.288,0.932,0.599,1.394,0.9C534.049,136.087,533.601,135.776,533.119,135.49z"/>
		<path fill="#84BD93" d="M447.724,43.385c0.773,1.246,1.534,2.502,2.221,3.819C449.258,45.888,448.497,44.631,447.724,43.385z"/>
		<path fill="#84BD93" d="M171.913,177.111c1.003,2.05,2.042,3.975,3.11,5.813C173.955,181.087,172.917,179.161,171.913,177.111z"/>
		<path fill="#84BD93" d="M168.668,169.796c0.968,2.389,1.961,4.68,2.994,6.821C170.629,174.478,169.636,172.185,168.668,169.796z"
			/>
		<path fill="#84BD93" d="M183.455,194.743c1.385,1.563,2.82,3.025,4.296,4.397C186.273,197.768,184.842,196.306,183.455,194.743z"
			/>
		<path fill="#84BD93" d="M175.568,183.866c1.153,1.93,2.343,3.757,3.57,5.467C177.911,187.625,176.723,185.796,175.568,183.866z"/>
		<path fill="#84BD93" d="M197.577,206.648c-3.417-2.146-6.625-4.563-9.644-7.344C190.951,202.086,194.16,204.502,197.577,206.648z"
			/>
		<path fill="#84BD93" d="M183.229,194.477c-1.311-1.495-2.582-3.085-3.815-4.777C180.648,191.394,181.919,192.982,183.229,194.477z
			"/>
		<path fill="#84BD93" d="M551.9,155.121c-0.904-0.477-1.829-0.927-2.787-1.343c-13.201-5.731-29.469-4.42-48.354,3.914
			c-5.254,2.32-11.358,1.562-15.887-1.976c-4.532-3.535-6.748-9.27-5.774-14.933c0.191-1.136,0.378-2.398,0.554-3.767
			c0.104-0.043,0.212-0.068,0.315-0.114c-5.254,2.32-11.357,1.562-15.886-1.976c-4.532-3.535-6.749-9.27-5.774-14.933
			c2.214-13.147,3.726-42.728-5.287-65.92c-16.762,4.626-47.818,18.99-56.927,62.744c-0.002,0.01-0.072,0.019-0.074,0.027
			c-0.009,0.038-0.094,0.068-0.094,0.106v-0.002c-2.073,5.905-5.76,10.813-12.042,12.112c-8.43,1.729-16.648-3.676-18.396-12.11
			c-0.633-3.05-1.354-5.955-2.186-8.725c-0.054,0.012-0.096,0.033-0.149,0.045c-8.43,1.729-16.68-3.676-18.426-12.11
			c-2.662-12.87-7.24-23.156-12.78-31.449c-11.453-7.62-22.784-10.761-29.164-12.001c-25.152,20.879-23.34,70.016-20.294,88.102
			c0.952,5.654-1.273,11.391-5.801,14.912c-4.524,3.521-10.618,4.286-15.865,1.972c-18.99-8.378-35.33-9.664-48.575-3.817
			c-14.675,6.479-22.89,20.36-26.232,27.327c3.396,10.365,7.238,18.65,11.576,25.457c4.022,2.525,8.314,4.707,12.936,6.672
			c38.339-8.897,92.3-13.979,149.311-13.979c57.113,0,111.168,5.1,149.525,14.026c20.604-8.748,35.035-21.304,45.41-52.958
			C554.059,158.936,553.071,157.097,551.9,155.121z"/>
		<path fill="#84BD93" d="M165.224,160.41c0.898,2.739,1.837,5.285,2.797,7.749C167.061,165.697,166.122,163.149,165.224,160.41z"/>
		<path fill="#84BD93" d="M292.019,34.58c0.245,0.081,0.506,0.183,0.755,0.27C292.524,34.764,292.263,34.663,292.019,34.58z"/>
		<path fill="#84BD93" d="M305.027,40.225c0.496,0.268,0.998,0.577,1.495,0.858C306.022,40.802,305.522,40.495,305.027,40.225z"/>
		<path fill="#84BD93" d="M284.557,32.469c0.282,0.064,0.581,0.141,0.875,0.211C285.135,32.608,284.841,32.535,284.557,32.469z"/>
		<path fill="#84BD93" d="M299.615,37.571c0.535,0.241,1.066,0.473,1.609,0.73C300.679,38.042,300.15,37.812,299.615,37.571z"/>
		<path fill="#84BD93" d="M309.165,42.651c0.622,0.388,1.244,0.792,1.866,1.207C310.407,43.443,309.787,43.039,309.165,42.651z"/>
		<path fill="#84BD93" d="M287.638,33.257c0.344,0.093,0.68,0.183,1.035,0.286C288.313,33.439,287.982,33.35,287.638,33.257z"/>
		<path fill="#84BD93" d="M295.649,35.904c0.496,0.191,1.001,0.398,1.507,0.607C296.648,36.303,296.146,36.097,295.649,35.904z"/>
		<path fill="#84BD93" d="M313.482,45.564c0.601,0.433,1.204,0.852,1.804,1.312C314.685,46.417,314.085,45.998,313.482,45.564z"/>
	</g>
	<path fill="#3F2D20" d="M199.94,295.402c-8.613,0-15.594,6.981-15.594,15.594v23.215c0,8.613,6.981,15.594,15.594,15.594
		s15.594-6.981,15.594-15.594v-23.215C215.532,302.381,208.553,295.402,199.94,295.402z"/>
	<path fill="#3F2D20" d="M306.648,295.402c-8.613,0-15.594,6.981-15.594,15.594v23.215c0,8.613,6.981,15.594,15.594,15.594
		c8.612,0,15.594-6.981,15.594-15.594v-23.215C322.24,302.381,315.261,295.402,306.648,295.402z"/>
	<path fill="#3F2D20" d="M413.355,295.402c-8.612,0-15.594,6.981-15.594,15.594v23.215c0,8.613,6.981,15.594,15.594,15.594
		c8.613,0,15.594-6.981,15.594-15.594v-23.215C428.949,302.381,421.969,295.402,413.355,295.402z"/>
	<path fill="#3F2D20" d="M535.655,334.209v-23.215c0-8.613-6.981-15.594-15.594-15.594s-15.594,6.981-15.594,15.594v23.215
		c0,8.613,6.981,15.594,15.594,15.594S535.655,342.822,535.655,334.209z"/>
	<path fill="#3F2D20" d="M253.294,413.041c-8.613,0-15.594,6.98-15.594,15.594v23.215c0,8.613,6.981,15.594,15.594,15.594
		s15.594-6.98,15.594-15.594v-23.215C268.888,420.021,261.907,413.041,253.294,413.041z"/>
	<path fill="#3F2D20" d="M360,413.041c-8.612,0-15.594,6.98-15.594,15.594v23.215c0,8.613,6.981,15.594,15.594,15.594
		s15.594-6.98,15.594-15.594v-23.215C375.594,420.021,368.612,413.041,360,413.041z"/>
	<path fill="#3F2D20" d="M466.703,413.041c-8.612,0-15.594,6.98-15.594,15.594v23.215c0,8.613,6.981,15.594,15.594,15.594
		c8.613,0,15.594-6.98,15.594-15.594v-23.215C482.297,420.021,475.316,413.041,466.703,413.041z"/>
	<path fill="#3F2D20" d="M306.648,530.686c-8.613,0-15.594,6.98-15.594,15.594v23.216c0,8.612,6.981,15.594,15.594,15.594
		c8.612,0,15.594-6.981,15.594-15.594v-23.216C322.24,537.664,315.261,530.686,306.648,530.686z"/>
	<path fill="#3F2D20" d="M413.355,530.686c-8.612,0-15.594,6.98-15.594,15.594v23.216c0,8.612,6.981,15.594,15.594,15.594
		c8.613,0,15.594-6.981,15.594-15.594v-23.216C428.949,537.664,421.969,530.686,413.355,530.686z"/>
	<path fill="#3F2D20" d="M562.667,237.584c-5.084-4.219-10.151-7.682-15.013-10.533c15.442-12.204,29.213-31.023,38.653-63.024
		c0.906-3.068,0.844-6.34-0.174-9.372c-0.483-1.449-12.283-35.658-44.992-50.101c-15.163-6.695-31.918-8.062-50.016-4.097
		c0.56-28.884-4.724-75.396-40.831-98.068c-2.801-1.76-6.104-2.59-9.386-2.349c-20.966,1.476-58.465,14.418-80.913,50.689
		c-22.45-36.263-59.935-49.213-80.901-50.689c-3.288-0.243-6.589,0.589-9.388,2.349c-36.105,22.67-41.388,69.182-40.831,98.068
		c-18.096-3.96-34.849-2.598-50.016,4.097c-32.709,14.441-44.511,48.649-44.994,50.099c-1.018,3.033-1.078,6.305-0.172,9.372
		c9.446,32.008,23.222,50.831,38.67,63.037c-4.856,2.849-9.923,6.307-14.999,10.518c-21.733,18.032-47.642,53.741-47.642,121.472
		c0,80.454,29.429,144.289,89.963,195.15c14.296,12.012,26.599,34.458,39.622,58.225c24.986,45.583,56.078,102.314,119.363,107.521
		c0.436,0.037,0.867,0.052,1.296,0.052c0.011,0,0.021-0.002,0.029-0.002c0.011,0,0.021,0.002,0.029,0.002
		c0.429,0,0.858-0.017,1.296-0.052c63.289-5.206,94.379-61.938,119.365-107.522c13.026-23.763,25.326-46.209,39.624-58.22
		c60.534-50.864,89.961-114.701,89.961-195.151C610.275,291.326,584.386,255.617,562.667,237.584z M453.341,597.436
		c-23.39,42.682-47.586,86.778-93.343,91.292c-45.751-4.514-69.947-48.61-93.339-91.292c-14.47-26.4-28.138-51.337-46.91-67.111
		c-53.787-45.19-78.84-99.612-78.84-171.274c0-103.187,67.507-113.535,70.256-113.913c0.757-0.089,72.328-13.918,148.67-14.603
		c78.541-0.705,148.492,14.578,149.326,14.646c6.245,0.996,69.926,13.608,69.926,113.867c0,71.656-25.05,126.079-78.84,171.274
		C481.477,546.099,467.813,571.037,453.341,597.436z M191.457,133.083c13.245-5.847,29.584-4.562,48.575,3.817
		c5.248,2.314,11.341,1.549,15.865-1.972c4.528-3.521,6.753-9.257,5.801-14.912c-3.046-18.086-4.856-67.223,20.296-88.102
		c14.115,2.748,52.489,14.698,62.737,64.241c1.746,8.435,10,13.842,18.431,12.11c6.282-1.302,10.885-6.209,12.108-12.112
		l0.002,0.002c0.008-0.037,0.017-0.068,0.024-0.105c0.003-0.008,0.005-0.017,0.007-0.027c10.3-49.48,48.687-61.39,62.702-64.112
		c25.163,20.873,23.345,70.016,20.303,88.081c-0.975,5.663,1.242,11.399,5.774,14.932c4.528,3.538,10.63,4.294,15.886,1.976
		c18.887-8.335,35.154-9.647,48.355-3.915c14.785,6.425,23.08,20.433,26.451,27.435c-10.375,31.656-24.808,44.212-45.41,52.958
		c-38.357-8.926-92.412-14.026-149.524-14.026c-57.012,0-110.973,5.08-149.312,13.977c-20.547-8.745-34.942-21.314-45.301-52.92
		C168.566,153.443,176.781,139.562,191.457,133.083z"/>
</g>
</svg>
