<?xml version="1.0" encoding="utf-8"?>
<!-- Generator: Adobe Illustrator 15.1.0, SVG Export Plug-In . SVG Version: 6.00 Build 0)  -->
<!DOCTYPE svg PUBLIC "-//W3C//DTD SVG 1.1//EN" "http://www.w3.org/Graphics/SVG/1.1/DTD/svg11.dtd">
<svg version="1.1" id="Capa_1" xmlns="http://www.w3.org/2000/svg" xmlns:xlink="http://www.w3.org/1999/xlink" x="0px" y="0px"
	 width="720px" height="720px" viewBox="0 0 720 720" enable-background="new 0 0 720 720" xml:space="preserve">
<g>
	<g>
		<path fill="#CE593F" d="M548.647,254.854c-14.207,5.265-32.001,10.271-52.961,13.064c3.542,20.745,2.819,52.574-22.554,82.785
			c-3.197,3.807-7.868,6.07-12.842,6.213c-0.167,0.004-0.341,0.009-0.512,0.009c-4.785,0-9.371-1.971-12.668-5.462
			c-21.654-22.911-62.68-60.654-87.106-71.602c-24.443,10.936-65.409,48.642-87.021,71.527c-3.301,3.494-7.887,5.464-12.677,5.464
			c-0.167,0-0.336-0.002-0.508-0.007c-4.973-0.146-9.644-2.406-12.841-6.213c-25.4-30.232-26.135-62.066-22.606-82.811
			c-13.915-1.862-26.295-4.739-37.298-7.98c1.646,0.482,3.206,0.987,4.919,1.449C147.199,282.28,80.179,333.777,80.543,453.916
			c0.204,67.261,31.454,125.119,90.373,167.322c53.481,38.308,126.325,60.599,206.689,63.543
			c-5.835,0.206-11.693,0.346-17.601,0.346c87.584,0,167.494-22.69,225.016-63.889c58.92-42.203,90.174-100.062,90.378-167.322
			C675.793,319.064,591.273,270.663,548.647,254.854z"/>
		<path fill="#CE593F" d="M181.885,258.322c-3.617-1.152-7.101-2.333-10.352-3.536C174.786,255.99,178.259,257.172,181.885,258.322z
			"/>
	</g>
	<g>
		<path fill="#84BD93" d="M528.849,215.771c3.69,1.632,7.405,3.32,11.153,5.121C536.254,219.09,532.539,217.405,528.849,215.771z"/>
		<path fill="#84BD93" d="M540.002,220.892c-2.443,0.958-5.091,1.913-7.841,2.856C534.909,222.805,537.559,221.852,540.002,220.892z
			"/>
		<path fill="#84BD93" d="M516.39,210.51c3.452,1.386,6.938,2.844,10.456,4.375C523.328,213.354,519.844,211.896,516.39,210.51z"/>
		<path fill="#84BD93" d="M503.831,205.702c3.444,1.248,6.948,2.592,10.475,3.983C510.779,208.293,507.275,206.951,503.831,205.702z
			"/>
		<path fill="#84BD93" d="M472.37,235.05c19.071-0.941,79.382-12.828,93.086-16.718c-59.986-20.745-112.771-36.067-113.365-36.042
			c-4.767,0.023-9.194-1.725-12.526-4.996c-3.329-3.273-5.226-7.748-5.229-12.419c0,0-0.012-2.205-0.03-5.722
			c-3.425-0.132-5.342-0.116-5.46-0.109c-4.767,0.023-45.823,22.692-49.157,19.424c-3.329-3.274-5.228-7.748-5.23-12.42
			c0,0-0.259-52.544-0.317-58.013c-0.155-14.865-0.714-26.599,8.437-36c4.969-5.1,11.175-7.833,19.304-9.276l-3.214-4.667h-4.964
			c-35.322,0-32.645,26.581-32.782,27.455l0.042,103.697c0.005,4.688-1.885,9.186-5.234,12.466
			c-3.348,3.283-7.888,5.045-12.563,4.978c-0.656-0.019-47.043-0.519-115.013,26.437c6.188,0.858,12.686,1.507,19.516,1.848
			c5.808,0.29,11.089,3.459,14.082,8.446c2.993,4.987,3.296,11.137,0.816,16.398c-0.503,1.122-11.11,25.287,0.663,51.837
			c22.18-21.672,62.53-58.092,91.639-67.09c3.486-1.08,7.062-1.004,10.303,0.007l0.005-0.004
			c29.119,9.019,69.494,45.471,91.686,67.157c11.965-27.002,0.744-51.519,0.603-51.816c-2.483-5.263-2.175-11.418,0.818-16.407
			C461.272,238.507,466.558,235.338,472.37,235.05z"/>
		<path fill="#84BD93" d="M211.194,230.075c-0.914-0.202-1.838-0.396-2.731-0.605C209.358,229.679,210.28,229.873,211.194,230.075z"
			/>
		<path fill="#84BD93" d="M201.378,227.696c-0.482-0.13-0.932-0.269-1.41-0.401C200.446,227.427,200.896,227.566,201.378,227.696z"
			/>
		<path fill="#84BD93" d="M194.416,225.675c-0.753-0.232-1.486-0.468-2.221-0.703C192.932,225.208,193.66,225.443,194.416,225.675z"
			/>
		<path fill="#84BD93" d="M187.708,223.479c-0.628-0.218-1.266-0.434-1.878-0.651C186.445,223.048,187.081,223.264,187.708,223.479z
			"/>
		<path fill="#84BD93" d="M227.917,233.096c-0.858-0.121-1.679-0.264-2.525-0.392C226.238,232.832,227.059,232.975,227.917,233.096z
			"/>
		<path fill="#84BD93" d="M493.424,202.11c3.28,1.087,6.598,2.221,9.969,3.438C500.021,204.332,496.706,203.198,493.424,202.11z"/>
		<path fill="#84BD93" d="M219.484,231.735c-1.064-0.19-2.112-0.392-3.155-0.596C217.373,231.343,218.418,231.542,219.484,231.735z"
			/>
		<path fill="#84BD93" d="M461.337,192.964c2.798,0.67,5.646,1.379,8.56,2.147C466.979,194.344,464.133,193.634,461.337,192.964z"/>
		<path fill="#84BD93" d="M406.465,184.094c1.535,0.118,3.179,0.257,4.934,0.422C409.639,184.349,408.005,184.21,406.465,184.094z"
			/>
		<path fill="#84BD93" d="M412.187,184.593c1.716,0.167,3.524,0.354,5.433,0.575C415.709,184.947,413.902,184.76,412.187,184.593z"
			/>
		<path fill="#84BD93" d="M405.728,184.039c-1.537-0.114-2.977-0.211-4.268-0.283C402.746,183.828,404.195,183.925,405.728,184.039z
			"/>
		<path fill="#84BD93" d="M397.702,183.575c1.089,0.042,2.332,0.1,3.723,0.178C400.031,183.675,398.794,183.617,397.702,183.575z"/>
		<path fill="#84BD93" d="M418.159,185.226c1.959,0.227,4.046,0.494,6.19,0.784C422.2,185.72,420.12,185.453,418.159,185.226z"/>
		<path fill="#84BD93" d="M522.979,226.642c2.49-0.726,4.883-1.465,7.178-2.228C527.861,225.171,525.466,225.916,522.979,226.642z"
			/>
		<path fill="#84BD93" d="M433.834,187.426c2.258,0.366,4.583,0.765,6.985,1.203C438.415,188.191,436.095,187.792,433.834,187.426z"
			/>
		<path fill="#84BD93" d="M470.622,195.299c3.039,0.807,6.157,1.688,9.311,2.608C476.779,196.987,473.664,196.106,470.622,195.299z"
			/>
		<path fill="#84BD93" d="M451.368,190.711c2.675,0.568,5.418,1.175,8.226,1.836C456.783,191.889,454.046,191.279,451.368,190.711z"
			/>
		<path fill="#84BD93" d="M441.656,188.777c2.534,0.468,5.168,0.992,7.848,1.544C446.821,189.77,444.19,189.246,441.656,188.777z"/>
		<path fill="#84BD93" d="M425.759,186.202c2.154,0.299,4.392,0.631,6.714,1C430.147,186.832,427.915,186.503,425.759,186.202z"/>
		<path fill="#84BD93" d="M481.994,198.512c3.118,0.93,6.285,1.913,9.5,2.958C488.279,200.425,485.112,199.442,481.994,198.512z"/>
	</g>
	<path fill="#3F2D20" d="M588.682,234.603c4.196-3.478,6.57-8.717,6.315-14.207c-0.271-5.879-3.491-11.226-8.56-14.214
		c-75.03-44.235-145.277-54.549-177.125-56.91c0,0-0.081-49.542,0-52.34c6.356-0.911,18.653-0.911,24.679-0.911
		c6.484,0,12.432-3.596,15.443-9.336c3.012-5.743,2.587-12.677-1.095-18.012L406.099,7.525C402.844,2.812,397.481,0,391.75,0
		h-21.299c-31.757,0-58.016,24.807-59.768,56.128c0,0-0.101,2.344-0.101,3.491l0.037,89.618
		c-31.866,2.344-102.092,12.617-177.053,56.78c-5.073,2.988-8.291,8.332-8.569,14.209c-0.255,5.545,2.161,10.836,6.438,14.312
		C79.183,261.867,9.338,322.917,9.737,454.021c0.236,77.81,37.502,147.267,104.939,195.567C178.069,694.994,265.194,720,359.998,720
		c94.804,0,181.929-25.006,245.32-70.412c67.433-48.301,104.703-117.753,104.944-195.567
		C710.652,323.031,640.927,261.964,588.682,234.603z M585.014,621.238c-57.521,41.2-137.432,63.889-225.016,63.889
		c-87.584,0-167.495-22.69-225.017-63.889c-58.919-42.201-90.167-100.062-90.373-167.322
		C44.2,318.86,128.968,270.517,171.533,254.787c14.188,5.251,31.929,10.243,52.811,13.037c-3.528,20.742-2.791,52.579,22.609,82.811
		c3.197,3.807,7.869,6.069,12.842,6.213c0.171,0.004,0.341,0.007,0.508,0.007c4.79,0,9.375-1.971,12.677-5.464
		c21.614-22.885,62.579-60.589,87.021-71.527c24.429,10.948,65.453,48.691,87.106,71.602c3.297,3.491,7.883,5.462,12.668,5.462
		c0.174,0,0.346-0.004,0.513-0.009c4.973-0.146,9.645-2.406,12.841-6.213c25.373-30.211,26.096-62.038,22.554-82.785
		c20.958-2.791,38.754-7.799,52.961-13.064c42.626,15.807,127.147,64.208,126.742,199.062
		C675.186,521.177,643.934,579.035,585.014,621.238z M327.695,183.44c4.677,0.065,9.218-1.695,12.563-4.978
		c3.351-3.28,5.239-7.773,5.235-12.461l-0.042-103.69c0.137-0.874-0.55-27.438,24.997-27.438h12.155l19.271,27.9
		c-8.129,1.442-14.335,4.159-19.303,9.259c-9.148,9.401-8.593,21.135-8.438,36c0.061,5.469,0.318,58.013,0.318,58.013
		c0.004,4.669,1.903,9.146,5.229,12.42c3.334,3.271,7.76,5.019,12.529,4.996c0.723-0.033,68.555-0.64,147.788,37.43
		c-16.159,6.334-39.067,12.749-67.632,14.159c-5.813,0.288-11.099,3.455-14.094,8.446c-2.993,4.989-3.302,11.145-0.818,16.407
		c0.142,0.294,11.36,24.812-0.603,51.816c-22.189-21.687-62.566-58.139-91.686-67.157l-0.005,0.005
		c-3.241-1.011-6.816-1.087-10.303-0.007c-29.11,8.998-69.459,45.417-91.639,67.089c-11.773-26.55-1.167-50.715-0.663-51.834
		c2.478-5.261,2.174-11.411-0.816-16.398c-2.993-4.987-8.274-8.154-14.082-8.446c-28.329-1.419-51.302-7.899-67.556-14.274
		C259.222,182.761,326.961,183.419,327.695,183.44z"/>
</g>
</svg>
