<?xml version="1.0" encoding="iso-8859-1"?>
<!-- Generator: Adobe Illustrator 16.0.0, SVG Export Plug-In . SVG Version: 6.00 Build 0)  -->
<!DOCTYPE svg PUBLIC "-//W3C//DTD SVG 1.1//EN" "http://www.w3.org/Graphics/SVG/1.1/DTD/svg11.dtd">
<svg version="1.1" id="Capa_1" xmlns="http://www.w3.org/2000/svg" xmlns:xlink="http://www.w3.org/1999/xlink" x="0px" y="0px"
	 width="49.482px" height="49.482px" viewBox="0 0 49.482 49.482" style="enable-background:new 0 0 49.482 49.482;"
	 xml:space="preserve">
<g>
	<path d="M24.741,0C11.099,0,0.001,11.099,0.001,24.741c0,13.643,11.099,24.742,24.74,24.742c13.643,0,24.74-11.1,24.74-24.742
		C49.481,11.098,38.384,0,24.741,0z M24.741,48.066c-12.862,0-23.326-10.463-23.326-23.326c0-12.862,10.464-23.326,23.326-23.326
		c12.861,0,23.324,10.464,23.324,23.326C48.065,37.604,37.603,48.066,24.741,48.066z"/>
	<path d="M25.067,9.819c-4.389,0-8.059,2.912-9.133,7.247c-0.047,0.189-0.016,0.384,0.084,0.551s0.258,0.284,0.447,0.331
		l5.115,1.279c0.357,0.09,0.738-0.117,0.861-0.459c0.414-1.146,1.361-2.302,2.551-2.302c1.875,0,2.543,1.178,2.543,2.28
		c0,1.15,0,2.581-4.912,2.581c-0.402,0-0.728,0.327-0.728,0.728v7.599c0,0.4,0.326,0.728,0.728,0.728h5.188
		c0.402,0,0.729-0.327,0.729-0.728v-2.74c3.428-0.785,6.094-4.117,6.094-7.641C34.634,13.53,30.878,9.819,25.067,9.819z
		 M27.716,25.584c-0.358,0.048-0.631,0.357-0.631,0.723v2.618h-3.733v-6.153c4.004-0.118,5.639-1.291,5.639-4.026
		c0-2.235-1.607-3.736-3.998-3.736c-2.135,0-3.291,1.908-3.66,2.655l-3.781-0.946c1.119-3.312,4.051-5.443,7.516-5.443
		c5.002,0,8.108,3.064,8.108,7.997C33.177,22.351,30.728,25.184,27.716,25.584z"/>
	<path d="M25.03,31.669c-2.197,0-3.852,1.655-3.852,3.851c0,2.193,1.654,3.849,3.852,3.849c2.193,0,3.85-1.655,3.85-3.849
		C28.88,33.324,27.224,31.669,25.03,31.669z M25.03,37.912c-1.389,0-2.395-1.006-2.395-2.393c0-1.388,1.006-2.395,2.395-2.395
		c1.387,0,2.393,1.007,2.393,2.395C27.423,36.906,26.417,37.912,25.03,37.912z"/>
</g>
<g>
</g>
<g>
</g>
<g>
</g>
<g>
</g>
<g>
</g>
<g>
</g>
<g>
</g>
<g>
</g>
<g>
</g>
<g>
</g>
<g>
</g>
<g>
</g>
<g>
</g>
<g>
</g>
<g>
</g>
</svg>
