<?xml version="1.0" encoding="utf-8"?>
<!-- Generator: Adobe Illustrator 15.1.0, SVG Export Plug-In . SVG Version: 6.00 Build 0)  -->
<!DOCTYPE svg PUBLIC "-//W3C//DTD SVG 1.1//EN" "http://www.w3.org/Graphics/SVG/1.1/DTD/svg11.dtd">
<svg version="1.1" id="Capa_1" xmlns="http://www.w3.org/2000/svg" xmlns:xlink="http://www.w3.org/1999/xlink" x="0px" y="0px"
	 width="720px" height="720px" viewBox="0 0 720 720" enable-background="new 0 0 720 720" xml:space="preserve">
<g>
	<g>
		<g>
			<path fill="#84BD93" d="M73.092,353.574c-0.808-1.385-1.557-2.809-2.344-4.206C71.535,350.768,72.285,352.189,73.092,353.574z"/>
			<path fill="#84BD93" d="M53.592,314.217c-0.77-1.849-1.544-3.696-2.282-5.562C52.048,310.521,52.82,312.366,53.592,314.217z"/>
			<path fill="#84BD93" d="M59.596,327.795c-0.881-1.873-1.739-3.758-2.585-5.648C57.859,324.039,58.715,325.924,59.596,327.795z"/>
			<path fill="#84BD93" d="M66.091,340.885c-0.933-1.774-1.817-3.575-2.718-5.367C64.274,337.311,65.158,339.111,66.091,340.885z"/>
			<path fill="#84BD93" d="M677.265,218.964h-9.221c0.047,0,0.079-0.416,0.124-0.86C652.309,374.176,520.185,496.626,360,496.626
				c-160.26,0-292.433-122.686-308.188-278.863c0.052,0.519,0.088,1.201,0.142,1.201h-9.221
				c2.743,67.444,24.447,126.174,59.703,176.446C163.325,470.36,256.135,518.626,360,518.626
				c103.863,0,196.672-48.384,257.561-123.331C652.816,345.024,674.526,286.408,677.265,218.964z"/>
			<path fill="#84BD93" d="M92.156,382.582c-1.279-1.746-2.561-3.49-3.807-5.262C89.595,379.092,90.877,380.834,92.156,382.582z"/>
			<path fill="#84BD93" d="M83.525,370.205c-1.068-1.605-2.164-3.191-3.206-4.816C81.361,367.014,82.458,368.6,83.525,370.205z"/>
			<path fill="#84BD93" d="M100.993,394.14c-1.38-1.724-2.741-3.46-4.088-5.212C98.252,390.678,99.613,392.416,100.993,394.14z"/>
			<path fill="#84BD93" d="M32.019,237.127c-0.285-1.872-0.57-3.743-0.824-5.626C31.449,233.382,31.734,235.253,32.019,237.127z"/>
			<path fill="#84BD93" d="M30.001,221.255c-0.167-1.624-0.366-3.237-0.508-4.867C29.638,218.018,29.834,219.633,30.001,221.255z"/>
			<path fill="#84BD93" d="M47.966,299.754c-0.583-1.607-1.197-3.202-1.755-4.82C46.771,296.552,47.383,298.145,47.966,299.754z"/>
			<path fill="#84BD93" d="M34.653,252.184c-0.375-1.875-0.721-3.76-1.066-5.645C33.932,248.424,34.278,250.308,34.653,252.184z"/>
			<path fill="#84BD93" d="M37.907,266.825c-0.42-1.692-0.787-3.402-1.18-5.104C37.12,263.424,37.489,265.135,37.907,266.825z"/>
			<path fill="#84BD93" d="M41.772,281.134c-0.244-0.82-0.446-1.66-0.682-2.484C41.328,279.474,41.528,280.313,41.772,281.134z"/>
			<path fill="#84BD93" d="M666.397,314.241c0.775-1.864,1.555-3.723,2.299-5.604C667.952,310.517,667.175,312.379,666.397,314.241z
				"/>
			<path fill="#84BD93" d="M672.021,299.786c0.588-1.622,1.206-3.228,1.769-4.859C673.228,296.558,672.609,298.165,672.021,299.786z
				"/>
			<path fill="#84BD93" d="M646.9,353.585c0.82-1.411,1.583-2.857,2.385-4.279C648.483,350.73,647.721,352.176,646.9,353.585z"/>
			<path fill="#84BD93" d="M660.398,327.805c0.884-1.881,1.744-3.773,2.595-5.671C662.143,324.032,661.282,325.926,660.398,327.805z
				"/>
			<path fill="#84BD93" d="M653.903,340.895c0.937-1.782,1.826-3.591,2.731-5.392C655.729,337.301,654.84,339.111,653.903,340.895z"
				/>
			<path fill="#84BD93" d="M636.438,370.259c1.082-1.628,2.193-3.233,3.248-4.882C638.631,367.025,637.52,368.631,636.438,370.259z"
				/>
			<path fill="#84BD93" d="M618.993,394.154c1.391-1.734,2.758-3.482,4.114-5.243C621.753,390.672,620.382,392.42,618.993,394.154z"
				/>
			<path fill="#84BD93" d="M627.823,382.61c1.291-1.763,2.581-3.521,3.839-5.308C630.406,379.09,629.112,380.848,627.823,382.61z"/>
			<path fill="#84BD93" d="M678.225,281.141c0.249-0.837,0.455-1.693,0.696-2.535C678.68,279.446,678.474,280.302,678.225,281.141z"
				/>
			<path fill="#84BD93" d="M689.995,221.268c0.169-1.63,0.365-3.25,0.51-4.886C690.362,218.018,690.164,219.638,689.995,221.268z"/>
			<path fill="#84BD93" d="M51.417,214.072c-0.373-4.292-0.706-8.597-0.901-12.938C50.71,205.475,51.038,209.782,51.417,214.072z"/>
			<path fill="#84BD93" d="M687.981,237.117c0.282-1.868,0.567-3.735,0.82-5.614C688.551,233.382,688.266,235.248,687.981,237.117z"
				/>
			<path fill="#84BD93" d="M668.607,213.793c0.344-3.902,0.632-7.82,0.821-11.763C669.239,205.973,668.943,209.889,668.607,213.793z
				"/>
			<path fill="#84BD93" d="M682.091,266.826c0.418-1.689,0.787-3.398,1.181-5.098C682.878,263.428,682.509,265.137,682.091,266.826z
				"/>
			<path fill="#84BD93" d="M685.347,252.174c0.373-1.868,0.72-3.745,1.061-5.624C686.066,248.431,685.722,250.307,685.347,252.174z"
				/>
		</g>
		<g>
			<path fill="#CE593F" d="M111.427,319.294c-1.134-2.121-2.209-4.277-3.29-6.43C109.218,315.019,110.293,317.173,111.427,319.294z"
				/>
			<path fill="#CE593F" d="M105.37,307.278c-1.038-2.19-2.014-4.416-2.996-6.636C103.356,302.864,104.332,305.087,105.37,307.278z"
				/>
			<path fill="#CE593F" d="M94.968,282.307c-0.845-2.342-1.611-4.719-2.394-7.091C93.357,277.587,94.124,279.965,94.968,282.307z"/>
			<path fill="#CE593F" d="M125.176,342.313c-1.319-1.988-2.591-4.007-3.859-6.029C122.583,338.306,123.857,340.325,125.176,342.313
				z"/>
			<path fill="#CE593F" d="M118.032,330.975c-1.225-2.051-2.398-4.136-3.573-6.22C115.634,326.84,116.807,328.923,118.032,330.975z"
				/>
			<path fill="#CE593F" d="M86.969,256.2c-0.643-2.535-1.191-5.107-1.765-7.67C85.777,251.093,86.326,253.666,86.969,256.2z"/>
			<path fill="#CE593F" d="M153.813,378.624c1.611,1.733,3.239,3.448,4.894,5.141C157.054,382.072,155.424,380.357,153.813,378.624z
				"/>
			<path fill="#CE593F" d="M310.178,236.278c0.296,0.106,0.594,0.206,0.892,0.311C310.771,236.486,310.474,236.385,310.178,236.278z
				"/>
			<path fill="#CE593F" d="M302.543,233.039c0.182,0.09,0.363,0.182,0.547,0.27C302.907,233.223,302.727,233.129,302.543,233.039z"
				/>
			<path fill="#CE593F" d="M391.759,276.909c29.591,0,55.045-15.042,64.195-36.472C446.802,261.866,421.352,276.907,391.759,276.909
				L391.759,276.909z"/>
			<path fill="#CE593F" d="M318.545,238.789c0.286,0.069,0.58,0.124,0.869,0.189C319.125,238.912,318.831,238.858,318.545,238.789z"
				/>
			<path fill="#CE593F" d="M90.661,269.391c-0.744-2.43-1.403-4.897-2.083-7.353C89.258,264.494,89.917,266.959,90.661,269.391z"/>
			<path fill="#CE593F" d="M83.91,242.764c-0.545-2.707-0.987-5.452-1.456-8.187C82.922,237.312,83.364,240.057,83.91,242.764z"/>
			<path fill="#CE593F" d="M79.764,215.211c-0.465-4.661-0.821-9.354-1.053-14.077C78.943,205.859,79.299,210.55,79.764,215.211z"/>
			<path fill="#CE593F" d="M132.827,353.271c-1.407-1.917-2.772-3.865-4.131-5.817C130.054,349.406,131.42,351.352,132.827,353.271z
				"/>
			<path fill="#CE593F" d="M81.504,229.099c-0.457-3.037-0.798-6.107-1.156-9.176C80.704,222.992,81.047,226.063,81.504,229.099z"/>
			<path fill="#CE593F" d="M99.877,294.941c-0.942-2.261-1.812-4.558-2.696-6.847C98.065,290.385,98.937,292.68,99.877,294.941z"/>
			<path fill="#CE593F" d="M368.243,273.548c0.373,0.108,0.74,0.225,1.114,0.33C368.983,273.773,368.614,273.657,368.243,273.548z"
				/>
			<path fill="#CE593F" d="M373.404,274.875c0.465,0.105,0.922,0.219,1.393,0.315C374.328,275.096,373.869,274.979,373.404,274.875z
				"/>
			<path fill="#CE593F" d="M363.256,271.903c0.27,0.1,0.538,0.201,0.81,0.298C363.794,272.104,363.525,272.003,363.256,271.903z"/>
			<path fill="#CE593F" d="M378.77,275.883c0.53,0.082,1.052,0.182,1.587,0.254C379.821,276.064,379.3,275.965,378.77,275.883z"/>
			<path fill="#CE593F" d="M358.449,269.947c0.164,0.075,0.331,0.148,0.498,0.221C358.78,270.096,358.613,270.022,358.449,269.947z"
				/>
			<path fill="#CE593F" d="M639.981,217.312c0.153-1.424,0.302-2.85,0.433-4.279C640.281,214.462,640.135,215.888,639.981,217.312z"
				/>
			<path fill="#CE593F" d="M353.825,267.679c0.075,0.042,0.149,0.079,0.225,0.118C353.975,267.757,353.9,267.718,353.825,267.679z"
				/>
			<path fill="#CE593F" d="M140.98,363.846c-1.493-1.845-2.951-3.72-4.397-5.603C138.031,360.127,139.487,362.001,140.98,363.846z"
				/>
			<path fill="#CE593F" d="M384.484,276.564c0.511,0.043,1.013,0.112,1.528,0.146C385.497,276.677,384.995,276.607,384.484,276.564z
				"/>
			<path fill="#CE593F" d="M336.747,254.544c-0.315-0.346-0.609-0.708-0.914-1.062C336.138,253.838,336.431,254.198,336.747,254.544
				z"/>
			<path fill="#CE593F" d="M168.253,393.077c-1.733-1.614-3.445-3.25-5.139-4.906C164.807,389.827,166.519,391.463,168.253,393.077z
				"/>
			<path fill="#CE593F" d="M274.961,206.83c-0.176-0.356-0.358-0.708-0.524-1.066C274.603,206.121,274.785,206.474,274.961,206.83z"
				/>
			<path fill="#CE593F" d="M149.609,374.014c-1.575-1.771-3.119-3.565-4.65-5.375C146.492,370.448,148.035,372.243,149.609,374.014z
				"/>
			<path fill="#CE593F" d="M529.752,218.964c-6.913,22.481-28.433,36.485-55.012,39.78c-9.149,21.431-34.604,37.996-64.195,37.996
				c-26.795,0-50.149-14.079-61.13-29.066h0.006c-3.271-5.621-6.315-5.652-9.053-8.174c0.008,0.007,0.015-0.626,0.022-0.618
				c-19.703-3.921-35.294-15.04-43.951-29.321c-4.275-2.726-10.754-6.956-10.754-10.417v-0.18H97.496
				c3.32,67.444,30.254,128.593,72.631,175.345c50.114,45.841,116.758,73.659,189.871,73.659
				c144.176,0,263.321-106.622,279.659-249.004H529.752z M156.38,277.041c-7.782,0-14.09-7.206-14.09-14.988
				s6.308-14.987,14.09-14.987h49.637c7.782,0,14.09,7.205,14.09,14.987s-6.308,14.988-14.09,14.988H156.38z M273.665,339.564
				l-35.097,35.096c-2.75,2.75-6.356,4.125-9.963,4.125s-7.213-1.377-9.963-4.127c-5.502-5.503-5.502-14.424,0.002-19.926
				l35.097-35.095c5.502-5.502,14.424-5.5,19.926,0.002C279.168,325.141,279.168,334.064,273.665,339.564z M373.738,408.537
				c0,7.782-7.206,14.088-14.988,14.088s-14.987-6.308-14.987-14.088v-49.633c0-7.782,7.205-14.09,14.987-14.09
				s14.988,6.308,14.988,14.09V408.537z M501.356,374.732c-2.752,2.75-6.358,4.125-9.961,4.125c-3.606,0-7.215-1.375-9.963-4.125
				L446.34,339.64c-5.503-5.504-5.503-14.424,0-19.928c5.504-5.5,14.423-5.5,19.928,0l35.091,35.093
				C506.86,360.309,506.86,369.229,501.356,374.732z M563.62,277.041h-49.633c-7.782,0-14.09-7.206-14.09-14.988
				s6.308-14.987,14.09-14.987h49.633c7.782,0,14.09,7.205,14.09,14.987S571.402,277.041,563.62,277.041z"/>
			<path fill="#CE593F" d="M277.406,211.204c-0.105-0.167-0.201-0.337-0.304-0.504C277.205,210.869,277.301,211.037,277.406,211.204
				z"/>
			<path fill="#CE593F" d="M333.481,250.565c-0.332-0.442-0.657-0.89-0.973-1.339C332.824,249.677,333.148,250.123,333.481,250.565z
				"/>
			<path fill="#CE593F" d="M330.563,246.208c-0.262-0.437-0.537-0.866-0.785-1.308C330.025,245.342,330.301,245.771,330.563,246.208
				z"/>
		</g>
	</g>
	<path fill="#3F2D20" d="M360,422.627c7.782,0,14.09-6.308,14.09-14.09v-49.633c0-7.783-6.308-14.09-14.09-14.09
		s-14.09,6.308-14.09,14.09v49.633C345.91,416.319,352.218,422.627,360,422.627z"/>
	<path fill="#3F2D20" d="M220.104,263.299c0-7.782-6.308-14.09-14.09-14.09H156.38c-7.782,0-14.09,6.308-14.09,14.09
		s6.308,14.09,14.09,14.09h49.637C213.799,277.387,220.104,271.079,220.104,263.299z"/>
	<path fill="#3F2D20" d="M513.987,277.387h49.633c7.782,0,14.091-6.308,14.091-14.09s-6.309-14.09-14.091-14.09h-49.633
		c-7.782,0-14.09,6.308-14.09,14.09S506.205,277.387,513.987,277.387z"/>
	<path fill="#3F2D20" d="M253.74,319.639l-35.097,35.095c-5.504,5.502-5.504,14.423-0.002,19.926
		c2.752,2.752,6.356,4.127,9.963,4.127c3.604,0,7.213-1.375,9.961-4.125l35.097-35.096c5.504-5.502,5.504-14.424,0.002-19.926
		C268.164,314.138,259.243,314.136,253.74,319.639z"/>
	<path fill="#3F2D20" d="M481.431,374.732c2.75,2.75,6.356,4.125,9.965,4.125c3.603,0,7.209-1.375,9.961-4.125
		c5.504-5.504,5.504-14.423,0-19.927l-35.091-35.093c-5.505-5.5-14.424-5.5-19.929,0c-5.502,5.504-5.502,14.423,0,19.928
		L481.431,374.732z"/>
	<path fill="#3F2D20" d="M705.91,172.956H499.215c-7.782,0-14.09,6.308-14.09,14.088c0,14.016-18.151,25.855-39.505,25.855
		c-0.092-0.002-0.324-0.004-0.416-0.004c-7.04,0-13,5.195-13.957,12.17c-1.795,13.049-19.509,23.664-39.488,23.664
		c-19.979,0-37.695-10.617-39.492-23.664c-0.959-6.973-6.919-12.17-13.957-12.17l-0.283,0.004c-21.486,0-39.64-11.84-39.64-25.855
		c0-7.782-6.308-14.088-14.09-14.088H14.09c-7.782,0-14.09,6.306-14.09,14.088c0,198.506,161.496,360,360,360s360-161.496,360-360
		C720,179.262,713.692,172.956,705.91,172.956z M391.757,276.909c29.593,0,55.045-15.042,64.197-36.472
		c26.58-3.295,48.099-18.931,55.012-39.303h130.329c-7.36,148.785-130.719,267.551-281.297,267.551
		c-150.576,0-273.932-118.769-281.291-267.551h193.835c6.911,20.372,28.431,36.007,55.013,39.303
		C336.713,261.866,362.162,276.909,391.757,276.909z M360,496.866c166.112,0,302.096-131.411,309.49-295.732h22.033
		C684.112,377.588,538.244,518.866,360,518.866c-178.245,0-324.112-141.278-331.525-317.732h22.041
		C57.91,365.455,193.89,496.866,360,496.866z"/>
</g>
</svg>
