<?xml version="1.0" encoding="utf-8"?>
<!-- Generator: Adobe Illustrator 15.1.0, SVG Export Plug-In . SVG Version: 6.00 Build 0)  -->
<!DOCTYPE svg PUBLIC "-//W3C//DTD SVG 1.1//EN" "http://www.w3.org/Graphics/SVG/1.1/DTD/svg11.dtd">
<svg version="1.1"
	 id="svg3390" xmlns:dc="http://purl.org/dc/elements/1.1/" xmlns:cc="http://creativecommons.org/ns#" xmlns:rdf="http://www.w3.org/1999/02/22-rdf-syntax-ns#" xmlns:svg="http://www.w3.org/2000/svg"
	 xmlns="http://www.w3.org/2000/svg" xmlns:xlink="http://www.w3.org/1999/xlink" x="0px" y="0px" width="19.23px"
	 height="31.295px" viewBox="0 0 19.23 31.295" enable-background="new 0 0 19.23 31.295" xml:space="preserve">
<g id="layer1" transform="translate(0,-1.2050002)">
</g>
<path id="path4226" fill="#77D350" fill-opacity="0" d="M8.77,18.809c-0.756-1.521-1.024-1.878-2.774-3.697
	c-1.85-1.923-2.293-2.458-2.666-3.212c-0.471-0.955-0.572-1.549-0.535-3.15c0.029-1.287,0.05-1.432,0.291-2.115
	C3.825,4.538,5.466,2.99,7.554,2.42c0.841-0.23,2.295-0.212,3.089,0.037c2.431,0.763,4.425,2.66,5.079,4.832
	c0.196,0.651,0.198,2.045,0.003,2.8c-0.326,1.263-0.926,2.169-3.02,4.563c-2.036,2.328-2.176,2.535-3.001,4.451l-0.366,0.85
	L8.77,18.809L8.77,18.809L8.77,18.809z"/>
<path id="path3404" fill="none" stroke="#000000" stroke-width="3" stroke-linejoin="round" d="M9.797,29.796
	c0,0,0.349-5.027,0.947-7.34c0.419-1.621,0.743-2.001,1.124-2.96c0.381-0.96,1.268-1.813,3.434-4.322
	c2.131-2.467,2.46-4.203,2.428-5.979C17.654,5.042,13.18,1.506,9.442,1.5C5.01,1.492,1.643,5.105,1.509,9.195
	c-0.062,1.874,0.046,3.87,1.953,5.979c1.908,2.11,3.306,3.255,3.789,4.262s0.857,1.443,1.303,3.02
	C9.228,24.845,9.797,29.796,9.797,29.796z"/>
<path id="path4284" fill="#FF5500" d="M9.494,21.162c-0.201-0.64-1.216-2.573-1.665-3.175c-0.213-0.284-1.072-1.232-1.911-2.107
	c-1.797-1.873-2.09-2.228-2.479-2.999c-0.469-0.931-0.614-1.653-0.614-3.047c0-1.499,0.132-2.137,0.671-3.248
	c0.675-1.39,1.611-2.364,2.934-3.053c1.006-0.523,1.782-0.708,2.968-0.706c0.9,0.002,1.086,0.029,1.8,0.267
	c2.026,0.674,3.775,2.148,4.639,3.91c0.473,0.965,0.593,1.477,0.586,2.512c-0.005,0.915-0.115,1.5-0.423,2.241
	c-0.429,1.032-0.881,1.651-2.936,4.02c-0.808,0.932-1.62,1.916-1.806,2.188c-0.366,0.538-1.133,2.182-1.436,3.077l-0.188,0.56
	L9.494,21.162z"/>
</svg>
